<svg width="194" height="48" viewBox="0 0 194 48" fill="none" xmlns="http://www.w3.org/2000/svg">
<g clip-path="url(#clip0_26_66)">
<path d="M24.0359 47.1621H5.98007C3.95668 47.1621 2.08795 46.1688 0.979601 44.5047C-0.102974 42.8793 -0.309179 40.8412 0.438313 39.0481C2.95143 30.2376 9.42111 17.2991 9.48555 17.1701C9.54998 17.0669 10.7357 15.5189 11.3156 14.7966C12.4111 13.4421 13.6741 12.8229 15.0917 12.9261C17.4115 13.1067 19.4607 15.2996 20.5175 17.1314C21.9094 19.5437 27.5285 30.3279 29.6163 39.1513C30.3251 40.8541 30.1189 42.8922 29.0363 44.5176C27.928 46.1817 26.0593 47.1749 24.0359 47.1749V47.1621ZM14.7824 14.2032C13.8932 14.2032 13.0684 14.6805 12.308 15.6092C11.7409 16.3187 10.5681 17.8409 10.5681 17.8409C10.5681 17.8667 4.15 30.702 1.64977 39.4609C1.04404 40.9444 1.19869 42.4923 2.04929 43.7823C2.92566 45.0852 4.38198 45.8592 5.98007 45.8592H24.0359C25.6211 45.8592 27.0903 45.0852 27.9666 43.7823C28.8172 42.5052 28.9719 40.9573 28.3919 39.5383C26.317 30.7794 20.7753 20.15 19.4092 17.7764C18.4426 16.0994 16.7027 14.3451 15.0015 14.2161C14.9371 14.2161 14.8726 14.2161 14.8082 14.2161L14.7824 14.2032Z" fill="white"/>
<path d="M38.4572 47.7938H32.9283C27.4639 47.7938 23.0176 43.3434 23.0176 37.8739V12.6162C23.0176 7.14671 27.4639 2.69629 32.9283 2.69629H38.4572C43.9216 2.69629 48.3679 7.14671 48.3679 12.6162V37.8739C48.3679 43.3434 43.9216 47.7938 38.4572 47.7938ZM32.9283 3.99916C28.1727 3.99916 24.3064 7.86909 24.3064 12.6291V37.8868C24.3064 42.6468 28.1727 46.5168 32.9283 46.5168H38.4572C43.2128 46.5168 47.0791 42.6468 47.0791 37.8868V12.6162C47.0791 7.85619 43.2128 3.98626 38.4572 3.98626H32.9283V3.99916Z" fill="white"/>
<path d="M57.1445 47.7935C48.5484 47.7935 41.5503 40.9953 41.5503 32.6492C41.5503 24.3031 48.5484 17.5049 57.1445 17.5049C65.7407 17.5049 72.7388 24.3031 72.7388 32.6492C72.7388 40.9953 65.7407 47.7935 57.1445 47.7935ZM57.1445 18.7949C49.2572 18.7949 42.8391 25.0125 42.8391 32.6492C42.8391 40.2859 49.2572 46.5035 57.1445 46.5035C65.0319 46.5035 71.45 40.2859 71.45 32.6492C71.45 25.0125 65.0319 18.7949 57.1445 18.7949Z" fill="white"/>
<path d="M77.9455 48.0002C70.8959 48.0002 66.514 46.2717 64.0653 44.7882L63.6787 44.556L63.7689 44.1045C64.6195 40.0153 65.3284 35.4359 66.0114 30.9983C68.357 15.7766 70.5866 1.3934 78.7832 0.387215C79.7369 0.0131217 80.6004 -0.0900764 81.4123 0.0905202C85.4977 0.993503 88.2815 7.19829 94.9703 43.2789L95.0734 43.8207C95.0863 43.8981 95.112 43.9884 95.1378 44.1045C95.2151 44.4528 95.1378 44.814 94.9187 45.1236C94.2872 46.0395 92.2252 46.7747 88.8099 47.2907C86.0777 47.7035 82.6882 47.8454 79.0925 47.9873H78.8348C78.5383 48.0002 78.2419 48.0002 77.9584 48.0002H77.9455ZM65.1221 43.911C67.6095 45.3171 71.914 46.8392 78.7832 46.6973H79.0281C82.5851 46.5426 85.9359 46.4007 88.6037 46.0008C92.6891 45.3816 93.7975 44.5818 93.8619 44.3496C93.7846 44.0013 93.7331 43.7304 93.7073 43.524C87.2634 8.79786 84.4152 2.07708 81.1288 1.3418C80.5617 1.2128 79.9302 1.3031 79.1827 1.59979L79.0152 1.63849C71.7207 2.43828 69.4653 17.0537 67.2873 31.1789C66.63 35.4617 65.947 39.8863 65.1221 43.8981V43.911Z" fill="white"/>
<path d="M106.505 18.8465C107.123 18.0984 107.626 17.2857 108 16.3827C108.348 17.0793 108.76 17.7243 109.276 18.3047C110.075 19.2077 111.093 19.8914 112.317 20.3558L114.096 17.7759C113.078 17.3889 112.227 16.86 111.557 16.1892C110.887 15.5184 110.384 14.7831 110.062 13.9704C109.74 13.1577 109.572 12.2935 109.572 11.3905V8.56543H106.311V11.3905C106.311 12.3451 106.131 13.2738 105.809 14.1639C105.487 15.054 104.958 15.8925 104.237 16.6665C103.515 17.4405 102.626 18.0468 101.543 18.524L103.373 21.1298C104.623 20.6138 105.667 19.8527 106.505 18.8465Z" fill="white"/>
<path d="M117.331 15.7508H119.341V21.8653H122.55V7.13379H119.341V13.0161H117.331V7.54658H114.212V21.1042H117.331V15.7508Z" fill="white"/>
<path d="M114.327 31.1788C116.016 31.1788 117.485 30.9982 118.735 30.6241C119.985 30.263 120.965 29.7341 121.648 29.0633C122.331 28.3925 122.666 27.5927 122.666 26.6639C122.666 25.7351 122.318 24.9354 121.648 24.2517C120.965 23.568 119.998 23.052 118.735 22.7037C117.485 22.3554 116.016 22.1748 114.327 22.1748C112.639 22.1748 111.17 22.3554 109.92 22.7037C108.67 23.052 107.703 23.568 107.02 24.2517C106.337 24.9354 106.002 25.7351 106.002 26.6639C106.002 27.5927 106.337 28.3925 107.02 29.0633C107.703 29.7341 108.657 30.263 109.92 30.6241C111.183 30.9853 112.639 31.1788 114.327 31.1788ZM109.379 26.6768C109.379 26.2511 109.559 25.8899 109.946 25.5932C110.332 25.2965 110.899 25.0643 111.634 24.9225C112.369 24.7806 113.271 24.7032 114.315 24.7161C115.358 24.7161 116.248 24.7806 116.995 24.9225C117.743 25.0643 118.31 25.2965 118.684 25.5932C119.07 25.8899 119.263 26.2511 119.276 26.6768C119.276 27.1025 119.07 27.4766 118.684 27.7604C118.297 28.0571 117.743 28.2764 117.008 28.4183C116.274 28.5731 115.371 28.6376 114.315 28.6376C113.258 28.6376 112.356 28.5602 111.621 28.4183C110.886 28.2764 110.319 28.0442 109.933 27.7604C109.546 27.4766 109.353 27.1025 109.366 26.6768H109.379Z" fill="white"/>
<path d="M137.706 18.15H142.191V21.2073H145.542V7.08203H142.191V10.6295H137.706V8.8751H126.274V19.8915H137.706V18.1629V18.15ZM142.178 13.2868V15.4024H137.693V13.2868H142.178ZM134.381 17.2341H129.612V11.5453H134.381V17.2341Z" fill="white"/>
<path d="M141.753 22.3945C140.516 22.0333 139.034 21.8398 137.319 21.8398C135.605 21.8398 134.149 22.0204 132.912 22.3945C131.675 22.7686 130.721 23.2975 130.064 24.007C129.406 24.7165 129.071 25.555 129.071 26.5354C129.071 27.5157 129.406 28.3542 130.064 29.0508C130.734 29.7474 131.675 30.2892 132.912 30.6504C134.149 31.0116 135.618 31.1922 137.319 31.1922C139.021 31.1922 140.503 31.0116 141.753 30.6504C143.003 30.2892 143.944 29.7603 144.614 29.0508C145.284 28.3542 145.619 27.5157 145.619 26.5354C145.619 25.555 145.271 24.7165 144.614 24.007C143.944 23.2975 142.99 22.7686 141.753 22.3945ZM141.701 27.6705C141.328 27.9801 140.773 28.2123 140.039 28.3671C139.304 28.5219 138.402 28.6122 137.319 28.6122C136.25 28.6122 135.361 28.5219 134.626 28.3671C133.904 28.2123 133.35 27.9801 132.963 27.6705C132.577 27.3609 132.396 26.9868 132.396 26.5354C132.396 26.0581 132.59 25.6711 132.963 25.3486C133.337 25.039 133.891 24.8068 134.613 24.652C135.335 24.4972 136.237 24.4198 137.307 24.4198C138.376 24.4198 139.291 24.4972 140.026 24.652C140.761 24.8068 141.302 25.039 141.676 25.3486C142.049 25.6582 142.23 26.0581 142.23 26.5354C142.23 26.9868 142.049 27.3609 141.676 27.6705H141.701Z" fill="white"/>
<path d="M153.043 19.775C154.061 20.2781 155.195 20.5361 156.458 20.5361C157.721 20.5361 158.842 20.2781 159.86 19.775C160.878 19.2719 161.677 18.5624 162.257 17.6724C162.837 16.7823 163.121 15.7632 163.121 14.628C163.121 13.4928 162.837 12.4867 162.257 11.5837C161.677 10.6807 160.878 9.98411 159.86 9.46812C158.842 8.96503 157.708 8.70703 156.458 8.70703C155.208 8.70703 154.061 8.96503 153.043 9.46812C152.024 9.97121 151.225 10.6807 150.645 11.5837C150.065 12.4867 149.769 13.4928 149.769 14.628C149.769 15.7632 150.065 16.7823 150.645 17.6724C151.225 18.5624 152.024 19.2719 153.043 19.775ZM153.545 13.0285C153.842 12.5641 154.228 12.2287 154.731 11.9836C155.233 11.7514 155.801 11.6353 156.445 11.6224C157.089 11.6224 157.669 11.7514 158.185 11.9836C158.7 12.2158 159.1 12.5641 159.383 13.0285C159.667 13.4928 159.809 14.0217 159.809 14.628C159.809 15.2343 159.667 15.789 159.383 16.2405C159.1 16.692 158.7 17.0274 158.185 17.2596C157.669 17.4918 157.089 17.6208 156.445 17.6337C155.801 17.6337 155.233 17.5047 154.731 17.2596C154.228 17.0145 153.829 16.6791 153.545 16.2405C153.262 15.8019 153.107 15.2601 153.107 14.628C153.107 13.9959 153.249 13.4799 153.545 13.0285Z" fill="white"/>
<path d="M154.267 26.2509C155.839 26.2122 157.502 26.109 159.28 25.9542C161.046 25.7994 162.76 25.5543 164.41 25.2318L164.178 22.8066C161.884 23.1291 159.461 23.3355 156.922 23.4258C154.37 23.529 151.664 23.5677 148.79 23.5677L149.189 26.3025C151.019 26.3025 152.72 26.2767 154.293 26.238L154.267 26.2509Z" fill="white"/>
<path d="M168.856 7.08203H165.518V31.2433H168.856V7.08203Z" fill="white"/>
<path d="M179.604 15.0154C181.086 14.2156 182.233 13.2223 183.019 12.0356C183.019 12.0356 183.019 12.0227 183.032 12.0098C183.818 13.1965 184.953 14.1898 186.435 14.9896C187.917 15.7894 189.67 16.3312 191.706 16.5892L192.891 13.9834C191.164 13.777 189.682 13.3771 188.458 12.7708C187.234 12.1646 186.306 11.4551 185.687 10.6424C185.056 9.8297 184.746 8.99122 184.746 8.12693V7.32715H181.267V8.12693C181.267 9.00412 180.957 9.8555 180.339 10.6553C179.72 11.4551 178.792 12.1646 177.555 12.7708C176.318 13.3642 174.836 13.777 173.122 13.9834L174.346 16.5892C176.356 16.3312 178.096 15.8023 179.591 15.0025L179.604 15.0154Z" fill="white"/>
<path d="M172.065 17.8145V20.4718H181.318V22.4713H174.398V25.1286H177.684V28.1214H174.191V30.8303H191.899V28.1214H188.394V25.1286H191.642V22.4713H184.669V20.4718H194V17.8145H172.065ZM185.107 28.1214H181.022V25.1286H185.107V28.1214Z" fill="white"/>
<path d="M102.071 42.6849H103.089V39.0214H106.634V38.1184H103.089V35.3837H107.007V34.4678H102.071V42.6849Z" fill="white"/>
<path d="M113.709 34.8812C113.155 34.5329 112.536 34.3652 111.84 34.3652C111.144 34.3652 110.513 34.5329 109.971 34.8812C109.43 35.2295 108.992 35.7197 108.683 36.3518C108.373 36.9839 108.219 37.7321 108.219 38.5835C108.219 39.4348 108.373 40.183 108.683 40.8151C108.992 41.4472 109.417 41.9374 109.971 42.2857C110.526 42.634 111.144 42.8017 111.84 42.8017C112.536 42.8017 113.168 42.634 113.709 42.2857C114.263 41.9374 114.688 41.4472 114.998 40.8151C115.307 40.183 115.462 39.4348 115.462 38.5835C115.462 37.7321 115.307 36.9839 114.998 36.3518C114.688 35.7197 114.263 35.2295 113.709 34.8812ZM114.134 40.3378C113.902 40.828 113.593 41.2021 113.193 41.4601C112.794 41.7181 112.343 41.8471 111.84 41.8471C111.338 41.8471 110.887 41.7181 110.487 41.4601C110.087 41.2021 109.778 40.828 109.546 40.3378C109.314 39.8476 109.198 39.2671 109.198 38.5835C109.198 37.8998 109.314 37.3064 109.546 36.8162C109.778 36.326 110.087 35.9519 110.487 35.6939C110.887 35.4359 111.338 35.3198 111.84 35.3198C112.343 35.3198 112.794 35.4488 113.193 35.6939C113.593 35.939 113.902 36.3131 114.134 36.8162C114.366 37.3193 114.482 37.8998 114.482 38.5835C114.482 39.2671 114.366 39.8605 114.134 40.3378Z" fill="white"/>
<path d="M121.313 39.1762C121.738 38.9698 122.047 38.6731 122.241 38.299C122.434 37.9249 122.537 37.4992 122.537 36.9961C122.537 36.493 122.434 36.0544 122.228 35.6804C122.021 35.3063 121.712 34.9967 121.3 34.7903C120.887 34.5839 120.359 34.4678 119.74 34.4678H116.957V42.672H117.975V39.4858H119.753C119.818 39.4858 119.882 39.4729 119.947 39.4729L121.673 42.672H122.859L121.003 39.2794C121.106 39.2407 121.222 39.2149 121.313 39.1762ZM117.975 35.3837H119.702C120.127 35.3837 120.475 35.4482 120.758 35.5772C121.029 35.7062 121.235 35.8867 121.351 36.1318C121.48 36.3769 121.532 36.6607 121.545 36.9961C121.545 37.3315 121.48 37.6153 121.351 37.8346C121.222 38.0539 121.029 38.2474 120.758 38.3635C120.488 38.4796 120.14 38.557 119.715 38.557H117.988V35.3708L117.975 35.3837Z" fill="white"/>
<path d="M125.024 39.0214H128.723V38.1184H125.024V35.3837H128.981V34.4678H124.006V42.6849H129.045V41.769H125.024V39.0214Z" fill="white"/>
<path d="M135.49 38.9317C135.039 38.5964 134.484 38.3513 133.853 38.1836L133.041 37.9514C132.603 37.8482 132.229 37.6934 131.92 37.487C131.61 37.2806 131.456 36.9968 131.456 36.6098C131.456 36.3518 131.533 36.1196 131.688 35.9132C131.842 35.7068 132.049 35.552 132.319 35.4359C132.59 35.3198 132.899 35.2682 133.26 35.2682C133.582 35.2682 133.892 35.3198 134.149 35.4101C134.42 35.5133 134.626 35.6552 134.794 35.8487C134.961 36.0422 135.051 36.2744 135.077 36.5324H136.07C136.07 36.1196 135.928 35.7455 135.696 35.423C135.451 35.0876 135.129 34.8296 134.704 34.649C134.278 34.4684 133.814 34.3652 133.299 34.3652C132.783 34.3652 132.293 34.4555 131.855 34.649C131.417 34.8425 131.082 35.1134 130.837 35.4617C130.592 35.81 130.463 36.2099 130.463 36.6743C130.463 37.2161 130.644 37.6547 131.005 38.003C131.366 38.3513 131.881 38.6222 132.551 38.8157L133.556 39.0865C133.892 39.1768 134.175 39.28 134.407 39.3832C134.639 39.4864 134.819 39.6283 134.961 39.796C135.103 39.9637 135.167 40.183 135.167 40.4281C135.167 40.7248 135.077 40.9828 134.91 41.2021C134.742 41.4214 134.51 41.602 134.201 41.7181C133.892 41.8342 133.556 41.8987 133.183 41.8987C132.848 41.8987 132.538 41.86 132.268 41.7568C131.984 41.6536 131.752 41.4988 131.585 41.3053C131.417 41.1118 131.301 40.8538 131.275 40.5571H130.231C130.27 41.0086 130.412 41.4085 130.657 41.7439C130.902 42.0793 131.25 42.3502 131.675 42.5437C132.1 42.7372 132.616 42.8275 133.196 42.8275C133.814 42.8275 134.356 42.7243 134.794 42.5179C135.232 42.3115 135.58 42.0277 135.825 41.6665C136.057 41.3053 136.173 40.9054 136.173 40.4539C136.173 39.7831 135.941 39.2671 135.49 38.9317Z" fill="white"/>
<path d="M137.19 35.3837H139.768V42.6849H140.799V35.3837H143.364V34.4678H137.19V35.3837Z" fill="white"/>
<path d="M147.643 42.6849H148.661V39.0214H152.205V38.1184H148.661V35.3837H152.579V34.4678H147.643V42.6849Z" fill="white"/>
<path d="M159.28 34.8812C158.726 34.5329 158.107 34.3652 157.412 34.3652C156.716 34.3652 156.084 34.5329 155.543 34.8812C155.001 35.2295 154.563 35.7197 154.254 36.3518C153.945 36.9839 153.79 37.7321 153.79 38.5835C153.79 39.4348 153.945 40.183 154.254 40.8151C154.563 41.4472 154.989 41.9374 155.543 42.2857C156.097 42.634 156.716 42.8017 157.412 42.8017C158.107 42.8017 158.739 42.634 159.28 42.2857C159.834 41.9374 160.26 41.4472 160.569 40.8151C160.878 40.183 161.033 39.4348 161.033 38.5835C161.033 37.7321 160.878 36.9839 160.569 36.3518C160.26 35.7197 159.834 35.2295 159.28 34.8812ZM159.693 40.3378C159.461 40.828 159.151 41.2021 158.752 41.4601C158.352 41.7181 157.901 41.8471 157.399 41.8471C156.896 41.8471 156.445 41.7181 156.045 41.4601C155.646 41.2021 155.337 40.828 155.105 40.3378C154.873 39.8476 154.757 39.2671 154.757 38.5835C154.757 37.8998 154.873 37.3064 155.105 36.8162C155.337 36.326 155.646 35.9519 156.045 35.6939C156.445 35.4359 156.896 35.3198 157.399 35.3198C157.901 35.3198 158.352 35.4488 158.752 35.6939C159.151 35.939 159.461 36.3131 159.693 36.8162C159.925 37.3193 160.041 37.8998 160.041 38.5835C160.041 39.2671 159.925 39.8605 159.693 40.3378Z" fill="white"/>
<path d="M166.884 39.1762C167.309 38.9698 167.619 38.6731 167.812 38.299C168.005 37.9249 168.108 37.4992 168.108 36.9961C168.108 36.493 168.005 36.0544 167.799 35.6804C167.593 35.3063 167.283 34.9967 166.871 34.7903C166.459 34.5839 165.93 34.4678 165.312 34.4678H162.528V42.672H163.546V39.4858H165.324C165.389 39.4858 165.453 39.4729 165.518 39.4729L167.245 42.672H168.43L166.575 39.2794C166.678 39.2407 166.794 39.2149 166.884 39.1762ZM163.546 35.3837H165.273C165.698 35.3837 166.046 35.4482 166.33 35.5772C166.6 35.7062 166.807 35.8867 166.923 36.1318C167.051 36.3769 167.103 36.6607 167.116 36.9961C167.116 37.3315 167.051 37.6153 166.923 37.8346C166.794 38.0539 166.6 38.2474 166.33 38.3635C166.059 38.4796 165.711 38.557 165.286 38.557H163.559V35.3708L163.546 35.3837Z" fill="white"/>
<path d="M173.508 34.4678H172.49V42.6849H177.323V41.769H173.508V34.4678Z" fill="white"/>
<path d="M179.694 34.4678H178.676V42.672H179.694V34.4678Z" fill="white"/>
<path d="M181.512 42.6849H182.53V39.0214H186.074V38.1184H182.53V35.3837H186.448V34.4678H181.512V42.6849Z" fill="white"/>
<path d="M188.987 39.0214H192.673V38.1184H188.987V35.3837H192.931V34.4678H187.969V42.6849H192.995V41.769H188.987V39.0214Z" fill="white"/>
</g>
<defs>
<clipPath id="clip0_26_66">
<rect width="194" height="48" fill="white"/>
</clipPath>
</defs>
</svg>
