<svg width="150" height="37" viewBox="0 0 150 37" fill="none" xmlns="http://www.w3.org/2000/svg">
<g clip-path="url(#clip0_28_1108)">
<path d="M20.7799 34.6303C20.0799 35.2103 19.1699 35.5603 18.1499 35.5603H4.1399C1.2099 35.5603 -0.800102 32.6303 0.309898 29.9603C2.2899 23.0403 7.3099 13.0303 7.3099 13.0303C7.3099 13.0303 8.2199 11.8303 8.6699 11.2803C11.0199 8.39035 13.8499 11.0703 14.9799 13.0303C15.4899 13.9103 16.6199 16.0303 17.8699 18.7303V28.8603C17.8699 31.2303 19.0199 33.3303 20.7799 34.6303Z" fill="#35763C"/>
<path d="M20.7801 34.6305C19.0201 33.3305 17.8701 31.2305 17.8701 28.8605V18.7305C19.4001 22.0605 21.1001 26.2405 21.9801 29.9605C22.7001 31.7005 22.1001 33.5605 20.7801 34.6305Z" fill="#25602E"/>
<path d="M36.5301 9.28082V16.0908C33.9101 18.1408 32.2401 21.2908 32.2401 24.8108C32.2401 27.8308 33.4701 30.5808 35.4801 32.5908C34.2201 34.6708 31.9401 36.0508 29.3401 36.0508H25.0501C23.4501 36.0508 21.9701 35.5308 20.7801 34.6308C22.1001 33.5608 22.7001 31.7008 21.9801 29.9608C21.1001 26.2408 19.4001 22.0608 17.8701 18.7308V9.28082C17.8701 5.31082 21.0901 2.09082 25.0501 2.09082H29.3401C33.3101 2.09082 36.5301 5.31082 36.5301 9.28082Z" fill="#A4BC49"/>
<path d="M36.5297 16.0908V28.8608C36.5297 30.2308 36.1497 31.5108 35.4797 32.5908C33.4697 30.5808 32.2397 27.8308 32.2397 24.8108C32.2397 21.2908 33.9097 18.1408 36.5297 16.0908Z" fill="#3F8A38"/>
<path d="M49.47 33.7803C49.71 33.9203 49.96 34.0603 50.22 34.2003C48.39 35.3703 46.2 36.0503 43.85 36.0503C40.56 36.0503 37.58 34.7203 35.48 32.5903C36.15 31.5103 36.53 30.2303 36.53 28.8603V16.0903C38.53 14.5103 41.08 13.5703 43.85 13.5703C47.17 13.5703 50.16 14.9203 52.27 17.0903C51.31 22.5803 50.56 28.5903 49.47 33.7803Z" fill="#68AC45"/>
<path d="M55.4497 24.8108C55.4497 28.7408 53.3697 32.1908 50.2197 34.2008C49.9597 34.0608 49.7097 33.9208 49.4697 33.7808C50.5597 28.5908 51.3097 22.5808 52.2697 17.0908C54.2397 19.1008 55.4497 21.8208 55.4497 24.8108Z" fill="#35763C"/>
<path d="M68.3197 35.6505C66.1797 35.9805 63.4997 36.0805 60.6397 36.2005C56.0697 36.2905 52.6197 35.4405 50.2197 34.2005C53.3697 32.1905 55.4497 28.7404 55.4497 24.8104C55.4497 21.8204 54.2397 19.1004 52.2697 17.0904C53.8097 8.28045 55.8897 0.820449 60.7597 0.280449C61.3997 0.0204487 61.9897 -0.0695513 62.5597 0.0504487C65.2797 0.650449 67.4597 4.94045 72.6997 33.1305C72.7297 33.3105 72.6097 32.8405 72.8197 33.7804C73.0197 34.7304 70.3097 35.3505 68.3197 35.6505Z" fill="#648943"/>
<path d="M89.9503 13.2598H91.5103V17.9998H94.0003V6.58984H91.5103V11.1398H89.9503V6.90984H87.5303V17.4198H89.9503V13.2598Z" fill="#5F4622"/>
<path d="M81.5502 15.6595C82.0302 15.0795 82.4202 14.4495 82.7102 13.7495C82.9802 14.2895 83.3002 14.7895 83.7002 15.2395C84.3202 15.9395 85.1102 16.4695 86.0602 16.8295L87.4402 14.8295C86.6502 14.5295 85.9902 14.1195 85.4702 13.5995C84.9502 13.0795 84.5602 12.5095 84.3102 11.8795C84.0602 11.2495 83.9302 10.5795 83.9302 9.87945V7.68945H81.4002V9.87945C81.4002 10.6195 81.2602 11.3395 81.0102 12.0295C80.7602 12.7195 80.3502 13.3695 79.7902 13.9695C79.2302 14.5695 78.5402 15.0395 77.7002 15.4095L79.1202 17.4295C80.0902 17.0295 80.9002 16.4395 81.5502 15.6595Z" fill="#5F4622"/>
<path d="M87.6304 25.23C88.9404 25.23 90.0804 25.09 91.0504 24.8C92.0204 24.52 92.7804 24.11 93.3104 23.59C93.8404 23.07 94.1004 22.45 94.1004 21.73C94.1004 21.01 93.8304 20.39 93.3104 19.86C92.7804 19.33 92.0304 18.93 91.0504 18.66C90.0804 18.39 88.9404 18.25 87.6304 18.25C86.3204 18.25 85.1804 18.39 84.2104 18.66C83.2404 18.93 82.4904 19.33 81.9604 19.86C81.4304 20.39 81.1704 21.01 81.1704 21.73C81.1704 22.45 81.4304 23.07 81.9604 23.59C82.4904 24.11 83.2304 24.52 84.2104 24.8C85.1904 25.08 86.3204 25.23 87.6304 25.23ZM83.7904 21.73C83.7904 21.4 83.9304 21.12 84.2304 20.89C84.5304 20.66 84.9704 20.48 85.5404 20.37C86.1104 20.26 86.8104 20.2 87.6204 20.21C88.4304 20.21 89.1204 20.26 89.7004 20.37C90.2804 20.48 90.7204 20.66 91.0104 20.89C91.3104 21.12 91.4604 21.4 91.4704 21.73C91.4704 22.06 91.3104 22.35 91.0104 22.57C90.7104 22.8 90.2804 22.97 89.7104 23.08C89.1404 23.2 88.4404 23.25 87.6204 23.25C86.8004 23.25 86.1004 23.19 85.5304 23.08C84.9604 22.97 84.5204 22.79 84.2204 22.57C83.9204 22.35 83.7704 22.06 83.7804 21.73H83.7904Z" fill="#5F4622"/>
<path d="M108.9 18.4202C107.94 18.1402 106.79 17.9902 105.46 17.9902C104.13 17.9902 103 18.1302 102.04 18.4202C101.08 18.7102 100.34 19.1202 99.8301 19.6702C99.3201 20.2202 99.0601 20.8702 99.0601 21.6302C99.0601 22.3902 99.3201 23.0402 99.8301 23.5802C100.35 24.1202 101.08 24.5402 102.04 24.8202C103 25.1002 104.14 25.2402 105.46 25.2402C106.78 25.2402 107.93 25.1002 108.9 24.8202C109.87 24.5402 110.6 24.1302 111.12 23.5802C111.64 23.0402 111.9 22.3902 111.9 21.6302C111.9 20.8702 111.63 20.2202 111.12 19.6702C110.6 19.1202 109.86 18.7102 108.9 18.4202ZM108.86 22.5002C108.57 22.7402 108.14 22.9202 107.57 23.0402C107 23.1602 106.3 23.2302 105.46 23.2302C104.63 23.2302 103.94 23.1602 103.37 23.0402C102.81 22.9202 102.38 22.7402 102.08 22.5002C101.78 22.2602 101.64 21.9702 101.64 21.6202C101.64 21.2502 101.79 20.9502 102.08 20.7002C102.37 20.4602 102.8 20.2802 103.36 20.1602C103.92 20.0402 104.62 19.9802 105.45 19.9802C106.28 19.9802 106.99 20.0402 107.56 20.1602C108.13 20.2802 108.55 20.4602 108.84 20.7002C109.13 20.9402 109.27 21.2502 109.27 21.6202C109.27 21.9702 109.13 22.2602 108.84 22.5002H108.86Z" fill="#5F4622"/>
<path d="M105.76 15.1298H109.24V17.4998H111.84V6.5498H109.24V9.2998H105.76V7.9398H96.8901V16.4798H105.76V15.1398V15.1298ZM109.24 11.3598V12.9998H105.76V11.3598H109.24ZM103.19 14.4098H99.4901V9.9998H103.19V14.4098Z" fill="#5F4622"/>
<path d="M118.61 21.3995C119.83 21.3695 121.12 21.2895 122.5 21.1695C123.87 21.0495 125.2 20.8595 126.48 20.6095L126.3 18.7295C124.52 18.9795 122.64 19.1395 120.67 19.2095C118.69 19.2895 116.59 19.3195 114.36 19.3195L114.67 21.4395C116.09 21.4395 117.41 21.4195 118.63 21.3895L118.61 21.3995Z" fill="#5F4622"/>
<path d="M129.94 6.5498H127.35V25.2798H129.94V6.5498Z" fill="#5F4622"/>
<path d="M117.66 16.3896C118.45 16.7796 119.33 16.9796 120.31 16.9796C121.29 16.9796 122.16 16.7796 122.95 16.3896C123.74 15.9996 124.36 15.4496 124.81 14.7596C125.26 14.0696 125.48 13.2796 125.48 12.3996C125.48 11.5196 125.26 10.7396 124.81 10.0396C124.36 9.33957 123.74 8.79957 122.95 8.39957C122.16 8.00957 121.28 7.80957 120.31 7.80957C119.34 7.80957 118.45 8.00957 117.66 8.39957C116.87 8.78957 116.25 9.33957 115.8 10.0396C115.35 10.7396 115.12 11.5196 115.12 12.3996C115.12 13.2796 115.35 14.0696 115.8 14.7596C116.25 15.4496 116.87 15.9996 117.66 16.3896ZM118.06 11.1496C118.29 10.7896 118.59 10.5296 118.98 10.3396C119.37 10.1596 119.81 10.0696 120.31 10.0596C120.81 10.0596 121.26 10.1596 121.66 10.3396C122.06 10.5196 122.37 10.7896 122.59 11.1496C122.81 11.5096 122.92 11.9196 122.92 12.3896C122.92 12.8596 122.81 13.2896 122.59 13.6396C122.37 13.9896 122.06 14.2496 121.66 14.4296C121.26 14.6096 120.81 14.7096 120.31 14.7196C119.81 14.7196 119.37 14.6196 118.98 14.4296C118.59 14.2396 118.28 13.9796 118.06 13.6396C117.84 13.2996 117.72 12.8796 117.72 12.3896C117.72 11.8996 117.83 11.4996 118.06 11.1496Z" fill="#5F4622"/>
<path d="M132.42 14.8594V16.9194H139.6V18.4694H134.23V20.5294H136.78V22.8494H134.07V24.9494H147.81V22.8494H145.09V20.5294H147.61V18.4694H142.2V16.9194H149.44V14.8594H132.42ZM142.55 22.8494H139.38V20.5294H142.55V22.8494Z" fill="#5F4622"/>
<path d="M138.27 12.7002C139.42 12.0802 140.31 11.3102 140.92 10.3902C140.92 10.3902 140.92 10.3802 140.93 10.3702C141.54 11.2902 142.42 12.0602 143.57 12.6802C144.72 13.3002 146.08 13.7202 147.66 13.9202L148.58 11.9002C147.24 11.7402 146.09 11.4302 145.14 10.9602C144.19 10.4902 143.47 9.94024 142.99 9.31024C142.5 8.68024 142.26 8.03023 142.26 7.36023V6.74023H139.56V7.36023C139.56 8.04023 139.32 8.70023 138.84 9.32023C138.36 9.94023 137.64 10.4902 136.68 10.9602C135.72 11.4202 134.57 11.7402 133.24 11.9002L134.19 13.9202C135.75 13.7202 137.1 13.3102 138.26 12.6902L138.27 12.7002Z" fill="#5F4622"/>
<path d="M78.1201 34.1403H78.9101V31.3003H81.6601V30.6103H78.9101V28.4803H81.9501V27.7803H78.1201V34.1403Z" fill="#5F4622"/>
<path d="M87.1404 28.0895C86.7104 27.8195 86.2304 27.6895 85.6904 27.6895C85.1504 27.6895 84.6604 27.8195 84.2404 28.0895C83.8204 28.3595 83.4804 28.7395 83.2404 29.2295C83.0004 29.7195 82.8804 30.2995 82.8804 30.9595C82.8804 31.6195 83.0004 32.1995 83.2404 32.6895C83.4804 33.1795 83.8104 33.5595 84.2404 33.8295C84.6704 34.0995 85.1504 34.2295 85.6904 34.2295C86.2304 34.2295 86.7204 34.0995 87.1404 33.8295C87.5704 33.5595 87.9004 33.1795 88.1404 32.6895C88.3804 32.1995 88.5004 31.6195 88.5004 30.9595C88.5004 30.2995 88.3804 29.7195 88.1404 29.2295C87.9004 28.7395 87.5704 28.3595 87.1404 28.0895ZM87.4704 32.3195C87.2904 32.6995 87.0504 32.9895 86.7404 33.1895C86.4304 33.3895 86.0804 33.4895 85.6904 33.4895C85.3004 33.4895 84.9504 33.3895 84.6404 33.1895C84.3304 32.9895 84.0904 32.6995 83.9104 32.3195C83.7304 31.9395 83.6404 31.4895 83.6404 30.9595C83.6404 30.4295 83.7304 29.9695 83.9104 29.5895C84.0904 29.2095 84.3304 28.9195 84.6404 28.7195C84.9504 28.5195 85.3004 28.4295 85.6904 28.4295C86.0804 28.4295 86.4304 28.5295 86.7404 28.7195C87.0504 28.9095 87.2904 29.1995 87.4704 29.5895C87.6504 29.9795 87.7404 30.4295 87.7404 30.9595C87.7404 31.4895 87.6504 31.9495 87.4704 32.3195Z" fill="#5F4622"/>
<path d="M93.0402 31.4303C93.3702 31.2703 93.6102 31.0403 93.7602 30.7503C93.9102 30.4603 93.9902 30.1303 93.9902 29.7403C93.9902 29.3503 93.9102 29.0103 93.7502 28.7203C93.5902 28.4303 93.3502 28.1903 93.0302 28.0303C92.7102 27.8703 92.3002 27.7803 91.8202 27.7803H89.6602V34.1403H90.4501V31.6703H91.8302C91.8802 31.6703 91.9302 31.6603 91.9802 31.6603L93.3202 34.1403H94.2402L92.8002 31.5103C92.8802 31.4803 92.9702 31.4603 93.0402 31.4303ZM90.4602 28.4803H91.8002C92.1302 28.4803 92.4002 28.5303 92.6202 28.6303C92.8302 28.7303 92.9902 28.8703 93.0802 29.0603C93.1802 29.2503 93.2202 29.4703 93.2302 29.7303C93.2302 29.9903 93.1802 30.2103 93.0802 30.3803C92.9802 30.5503 92.8302 30.7003 92.6202 30.7903C92.4102 30.8803 92.1402 30.9403 91.8102 30.9403H90.4702V28.4703L90.4602 28.4803Z" fill="#5F4622"/>
<path d="M95.9301 31.3003H98.8001V30.6103H95.9301V28.4803H99.0001V27.7803H95.1401V34.1403H99.0401V33.4403H95.9301V31.3003Z" fill="#5F4622"/>
<path d="M104.05 31.2295C103.7 30.9695 103.27 30.7795 102.78 30.6495L102.15 30.4695C101.81 30.3895 101.52 30.2695 101.28 30.1095C101.04 29.9495 100.92 29.7295 100.92 29.4295C100.92 29.2295 100.98 29.0495 101.1 28.8895C101.22 28.7295 101.38 28.6095 101.59 28.5195C101.8 28.4295 102.04 28.3895 102.32 28.3895C102.57 28.3895 102.81 28.4295 103.01 28.4995C103.22 28.5795 103.38 28.6895 103.51 28.8395C103.64 28.9895 103.71 29.1695 103.73 29.3695H104.5C104.5 29.0495 104.39 28.7595 104.21 28.5095C104.02 28.2495 103.77 28.0495 103.44 27.9095C103.11 27.7695 102.75 27.6895 102.35 27.6895C101.95 27.6895 101.57 27.7595 101.23 27.9095C100.89 28.0595 100.63 28.2695 100.44 28.5395C100.25 28.8095 100.15 29.1195 100.15 29.4795C100.15 29.8995 100.29 30.2395 100.57 30.5095C100.85 30.7795 101.25 30.9895 101.77 31.1395L102.55 31.3495C102.81 31.4195 103.03 31.4995 103.21 31.5795C103.39 31.6595 103.53 31.7695 103.64 31.8995C103.75 32.0295 103.8 32.1995 103.8 32.3895C103.8 32.6195 103.73 32.8195 103.6 32.9895C103.47 33.1595 103.29 33.2995 103.05 33.3895C102.81 33.4795 102.55 33.5295 102.26 33.5295C102 33.5295 101.76 33.4995 101.55 33.4195C101.33 33.3395 101.15 33.2195 101.02 33.0695C100.89 32.9195 100.8 32.7195 100.78 32.4895H99.9702C100 32.8395 100.11 33.1495 100.3 33.4095C100.49 33.6695 100.76 33.8795 101.09 34.0295C101.42 34.1795 101.82 34.2495 102.27 34.2495C102.75 34.2495 103.17 34.1695 103.51 34.0095C103.85 33.8495 104.12 33.6295 104.31 33.3495C104.49 33.0695 104.58 32.7595 104.58 32.4095C104.58 31.8895 104.4 31.4895 104.05 31.2295Z" fill="#5F4622"/>
<path d="M105.36 28.4803H107.37V34.1403H108.17V28.4803H110.16V27.7803H105.36V28.4803Z" fill="#5F4622"/>
<path d="M113.47 34.1403H114.26V31.3003H117.02V30.6103H114.26V28.4803H117.31V27.7803H113.47V34.1403Z" fill="#5F4622"/>
<path d="M122.5 28.0895C122.07 27.8195 121.59 27.6895 121.05 27.6895C120.51 27.6895 120.02 27.8195 119.6 28.0895C119.18 28.3595 118.84 28.7395 118.6 29.2295C118.36 29.7195 118.24 30.2995 118.24 30.9595C118.24 31.6195 118.36 32.1995 118.6 32.6895C118.84 33.1795 119.17 33.5595 119.6 33.8295C120.03 34.0995 120.51 34.2295 121.05 34.2295C121.59 34.2295 122.08 34.0995 122.5 33.8295C122.93 33.5595 123.26 33.1795 123.5 32.6895C123.74 32.1995 123.86 31.6195 123.86 30.9595C123.86 30.2995 123.74 29.7195 123.5 29.2295C123.26 28.7395 122.93 28.3595 122.5 28.0895ZM122.83 32.3195C122.65 32.6995 122.41 32.9895 122.1 33.1895C121.79 33.3895 121.44 33.4895 121.05 33.4895C120.66 33.4895 120.31 33.3895 120 33.1895C119.69 32.9895 119.45 32.6995 119.27 32.3195C119.09 31.9395 119 31.4895 119 30.9595C119 30.4295 119.09 29.9695 119.27 29.5895C119.45 29.2095 119.69 28.9195 120 28.7195C120.31 28.5195 120.66 28.4295 121.05 28.4295C121.44 28.4295 121.79 28.5295 122.1 28.7195C122.41 28.9095 122.65 29.1995 122.83 29.5895C123.01 29.9795 123.1 30.4295 123.1 30.9595C123.1 31.4895 123.01 31.9495 122.83 32.3195Z" fill="#5F4622"/>
<path d="M128.4 31.4303C128.73 31.2703 128.97 31.0403 129.12 30.7503C129.27 30.4603 129.35 30.1303 129.35 29.7403C129.35 29.3503 129.27 29.0103 129.11 28.7203C128.95 28.4303 128.71 28.1903 128.39 28.0303C128.07 27.8703 127.66 27.7803 127.18 27.7803H125.02V34.1403H125.81V31.6703H127.19C127.24 31.6703 127.29 31.6603 127.34 31.6603L128.68 34.1403H129.6L128.16 31.5103C128.24 31.4803 128.33 31.4603 128.4 31.4303ZM125.81 28.4803H127.15C127.48 28.4803 127.75 28.5303 127.97 28.6303C128.18 28.7303 128.34 28.8703 128.43 29.0603C128.53 29.2503 128.57 29.4703 128.58 29.7303C128.58 29.9903 128.53 30.2103 128.43 30.3803C128.33 30.5503 128.18 30.7003 127.97 30.7903C127.76 30.8803 127.49 30.9403 127.16 30.9403H125.82V28.4703L125.81 28.4803Z" fill="#5F4622"/>
<path d="M133.55 27.7803H132.76V34.1403H136.5V33.4403H133.55V27.7803Z" fill="#5F4622"/>
<path d="M138.35 27.7803H137.56V34.1403H138.35V27.7803Z" fill="#5F4622"/>
<path d="M139.75 34.1403H140.54V31.3003H143.3V30.6103H140.54V28.4803H143.59V27.7803H139.75V34.1403Z" fill="#5F4622"/>
<path d="M145.55 31.3003H148.42V30.6103H145.55V28.4803H148.62V27.7803H144.76V34.1403H148.66V33.4403H145.55V31.3003Z" fill="#5F4622"/>
</g>
<defs>
<clipPath id="clip0_28_1108">
<rect width="149.45" height="36.21" fill="white"/>
</clipPath>
</defs>
</svg>
