<svg width="58" height="45" viewBox="0 0 58 45" fill="none" xmlns="http://www.w3.org/2000/svg">
<g clip-path="url(#clip0_139_371)">
<path d="M41.99 25.3H49.02C49.4 25.3 49.73 25.62 49.73 26.03V26.33H50.05C50.13 26.33 50.19 26.41 50.19 26.49V32.2C50.19 32.28 50.13 32.36 50.05 32.36H49.73V32.66C49.73 33.06 49.41 33.39 49.02 33.39H41.99V27.05C43.77 27.03 45.3 26.97 46.29 26.95C48.03 26.89 48.65 27.09 48.87 28.08C49.07 29.07 49.13 30.28 49.17 30.85C49.21 31.44 49.33 31.03 49.33 30.39C49.31 29.74 49.23 28.13 49.15 27.48C49.07 26.83 48.7 26.53 47.88 26.45C47.46 26.43 44.89 26.45 41.98 26.47V25.3H41.99ZM41.99 39.99V39.08C44.66 36.58 45.53 34.48 45.69 34.01H46.34C45.21 36.45 43.67 38.43 42 39.99M41.99 36.45C42.78 35.7 43.51 34.87 44.17 34.01H43.66C43.13 34.7 42.59 35.34 41.98 35.95V36.45H41.99ZM41.99 22.86V21.29C42.17 20.95 42.41 20.72 42.8 20.72C43.1 20.72 43.34 20.86 43.51 21.14C43.67 21.4 43.75 21.77 43.75 22.23C43.75 22.39 43.69 22.94 43.65 23.16H43V23.08C43.54 22.82 43.65 22.01 43.28 21.71C42.8 21.31 42.47 21.97 42.25 22.4C42.17 22.56 42.07 22.72 41.99 22.86ZM41.99 19.02V18.31C42.05 18.31 42.13 18.29 42.21 18.27C42.8 18.09 42.83 17.62 42.61 17.06L41.98 17.22V16.25C42.04 16.23 42.12 16.21 42.18 16.19C42.24 16.17 42.3 16.15 42.36 16.13C42.4 16.13 42.42 16.09 42.42 16.05L42.44 15.85L42.54 15.81L43 17.53C43.14 18.12 43.2 18.66 42.6 18.94C42.36 19.04 42.15 19.06 41.97 19.02M41.99 9.96C45.3 13.29 47.36 17.9 47.36 22.97C47.36 23.62 47.32 24.24 47.26 24.89H47.82C47.9 24.14 47.94 23.4 47.94 22.63C47.94 17.2 45.64 12.27 41.98 8.82V9.97L41.99 9.96ZM41.99 6.48C44.01 8.46 47.3 11.75 48.39 14.17C49.7 17.06 49.54 18.53 49.48 20.01C49.42 21.48 49.32 24.86 49.32 24.86H49.58C49.58 24.86 49.7 23.45 49.7 22.03C49.7 20.61 50.08 20.17 49.8 17.89C49.54 15.59 48.71 13.2 46.91 11.02C45.78 9.63 43.7 7.34 41.98 5.57V6.48H41.99ZM50.79 27.18C51.25 27.16 51.48 27.42 51.68 28.03C51.82 28.45 52.04 28.58 52.55 28.59C52.83 28.59 53.16 28.63 53.34 28.55C53.79 28.31 53.97 27.78 54.69 27.58C55.62 27.34 57.5 27.66 57.5 29.24C57.5 30.82 55.62 31.16 54.69 30.92C53.96 30.72 53.78 30.19 53.34 29.95C53.16 29.87 52.84 29.91 52.55 29.91C52.04 29.93 51.82 30.05 51.68 30.48C51.48 31.09 51.26 31.35 50.79 31.33V27.19V27.18ZM41.1 25.3H41.99V26.47C41.69 26.47 41.4 26.49 41.1 26.49V25.3ZM41.99 33.4H41.1V27.06H41.99V33.4ZM41.99 5.57V6.48C41.65 6.16 41.34 5.87 41.1 5.63V4.68C41.38 4.96 41.67 5.27 41.99 5.57ZM41.99 8.81V9.96C41.69 9.68 41.4 9.41 41.1 9.13V8.02C41.4 8.26 41.69 8.53 41.99 8.81ZM41.99 16.26V17.23L41.22 17.45C41.32 17.95 41.54 18.34 41.99 18.32V19.03C41.71 18.97 41.51 18.77 41.34 18.42C41.26 18.64 41.2 18.8 41.1 18.95V16.51L41.97 16.27H41.99V16.26ZM41.99 21.29V22.86C41.77 23.18 41.51 23.43 41.12 23.43H41.1V22.58C41.52 22.5 41.67 21.97 41.89 21.45C41.93 21.39 41.95 21.33 41.99 21.29ZM41.99 35.95V36.45C41.69 36.71 41.4 36.97 41.1 37.24V36.78C41.4 36.52 41.69 36.24 41.99 35.95ZM41.99 39.08V39.99C41.69 40.27 41.4 40.52 41.1 40.78V39.87C41.4 39.61 41.71 39.34 41.99 39.08ZM41.1 14.68V13.79L41.63 14.54L41.55 14.6L41.39 14.56C41.39 14.56 41.33 14.54 41.29 14.56C41.25 14.58 41.19 14.62 41.13 14.66L41.11 14.68H41.1ZM37.64 25.3H41.09V26.49C39.92 26.49 38.73 26.51 37.64 26.53V25.3ZM41.1 33.4H37.65V27.02C38.84 27.06 40.01 27.06 41.1 27.06V33.4ZM41.1 4.69V5.64C41.1 5.64 41.02 5.56 40.98 5.52C39.55 4.13 39.2 3.46 37.65 3.02V2.48C38.46 2.72 39.17 2.98 39.57 3.31C39.94 3.59 40.48 4.1 41.11 4.7M41.1 8.02V9.13C40.05 8.22 38.88 7.41 37.65 6.75V5.74C38.88 6.37 40.03 7.13 41.1 8.02ZM41.1 13.79V14.68C41.04 14.72 41 14.76 40.94 14.8L39.81 15.57C39.36 15.89 39.02 15.99 38.68 15.97C38.34 15.93 38.01 15.71 37.73 15.32C37.71 15.28 37.67 15.22 37.65 15.18V13.5C37.75 13.38 37.87 13.28 38.03 13.18L39.22 12.33C39.28 12.29 39.34 12.25 39.4 12.21C39.46 12.17 39.52 12.13 39.56 12.09C39.58 12.07 39.6 12.03 39.58 11.99V11.81L39.68 11.75L40.41 12.8L40.33 12.88L40.13 12.76C40.13 12.76 40.07 12.74 40.03 12.76C39.99 12.8 39.93 12.82 39.87 12.86C39.83 12.9 39.75 12.94 39.69 13L38.56 13.79C38 14.19 37.61 14.54 38.06 15.2C38.44 15.75 39.03 15.48 39.49 15.16L40.64 14.35C40.72 14.31 40.78 14.25 40.82 14.21C40.88 14.17 40.94 14.15 40.98 14.11C41.02 14.09 41.02 14.05 41 14.01L40.98 13.81L41.06 13.73L41.1 13.79ZM41.1 16.5V18.94C41 19.08 40.88 19.2 40.7 19.34C40.4 19.58 40.08 19.8 40.08 20.05L39.98 20.07L39.9 19.75C39.78 19.31 39.74 19.12 40 18.86C40.28 18.58 40.67 18.38 40.95 18.01C41.01 17.95 41.09 17.89 41.07 17.81L40.99 17.51L39.7 17.85C39.64 17.87 39.62 17.89 39.62 17.95V18.23L39.5 18.27L39.1 16.73L39.2 16.71L39.34 16.87C39.34 16.87 39.4 16.93 39.44 16.93C39.5 16.91 39.58 16.89 39.66 16.87C39.74 16.85 39.82 16.83 39.92 16.79L41.11 16.49L41.1 16.5ZM41.1 22.58V23.43C40.78 23.41 40.51 23.27 40.35 23.01C40.17 22.71 40.09 22.32 40.09 21.82C40.09 21.5 40.15 21.19 40.25 20.79H40.94V20.89C40.58 21.11 40.48 21.42 40.44 21.7C40.4 22 40.5 22.55 40.89 22.61C40.97 22.61 41.05 22.61 41.11 22.59M41.1 36.78V37.24C40.03 38.11 38.88 38.9 37.65 39.52V39.18C38.88 38.51 40.05 37.71 41.1 36.78ZM41.1 39.87V40.78C39.97 41.71 38.8 42.46 37.65 43.04V42.31C37.91 42.17 38.18 42.01 38.42 41.85C39.45 41.18 40.34 40.52 41.11 39.87M37.64 12.32C37.64 12.32 37.66 12.28 37.68 12.24C38.1 11.51 38.08 10.83 37.64 10.3V12.32ZM36.15 25.3H37.64V26.53C37.11 26.53 36.61 26.55 36.15 26.55V25.3ZM37.64 33.4H36.15V26.98C36.69 26.98 37.18 27 37.6 27.02H37.64V33.4ZM37.64 2.46V3C37.38 2.92 37.08 2.86 36.73 2.8C36.53 2.76 36.35 2.72 36.14 2.7V2.11C36.67 2.21 37.17 2.33 37.63 2.45M37.64 5.74V6.75C37.16 6.49 36.65 6.25 36.15 6.02V5.05C36.65 5.25 37.16 5.47 37.64 5.74ZM37.64 10.3V12.32C37.26 12.93 36.73 13.29 36.15 13.31V12.79C36.41 12.61 36.65 12.26 36.88 11.9C37.33 11.15 37.51 10.41 36.92 10.06C36.66 9.9 36.39 9.94 36.15 10.1V9.6C36.47 9.6 36.8 9.68 37.12 9.88C37.34 10 37.5 10.14 37.65 10.3M37.64 13.51V15.19C37.42 14.83 37.24 14.38 37.3 14.1C37.34 13.9 37.46 13.7 37.64 13.51ZM37.64 39.18V39.52C37.16 39.76 36.65 40 36.15 40.21V39.89C36.65 39.67 37.16 39.43 37.64 39.18ZM37.64 42.31V43.04C37.13 43.3 36.63 43.53 36.15 43.73V42.98C36.65 42.8 37.16 42.58 37.64 42.31ZM34.45 25.3H36.15V26.55C35.52 26.57 34.94 26.57 34.45 26.57V25.3ZM36.15 33.4H34.45V26.96C35.06 26.96 35.62 26.98 36.15 26.98V33.4ZM36.15 2.12V2.71C35.56 2.59 35 2.51 34.45 2.41V1.82C35.02 1.9 35.58 2 36.15 2.12ZM36.15 5.05V6.02C35.61 5.8 35.04 5.6 34.45 5.41V4.44C35.04 4.62 35.6 4.82 36.15 5.05ZM36.15 9.59V10.09C35.89 10.27 35.64 10.6 35.44 10.98C35.02 11.71 34.79 12.52 35.36 12.84C35.64 13 35.9 12.96 36.15 12.78V13.3C35.85 13.3 35.5 13.22 35.18 13.04C34.84 12.84 34.6 12.58 34.45 12.29V11C34.49 10.88 34.55 10.74 34.63 10.62C35.01 9.95 35.56 9.61 36.15 9.59ZM36.15 39.89V40.21C35.61 40.43 35.04 40.63 34.45 40.8V40.52C35.04 40.34 35.6 40.12 36.15 39.89ZM36.15 42.98V43.73C35.56 43.97 35 44.17 34.45 44.32V43.47C35.02 43.35 35.6 43.19 36.15 42.99M34.45 35.97V35.55L35.22 35.23L35.34 37.11L35.12 37.21L35.1 35.49L34.6 35.73C34.54 35.75 34.52 35.77 34.5 35.81C34.48 35.83 34.48 35.89 34.46 35.97M34.45 8.5V8.36L34.57 8.4L34.55 8.5C34.55 8.5 34.49 8.5 34.45 8.5ZM34.35 25.3H34.45V26.57C34.45 26.57 34.39 26.59 34.35 26.59V25.3ZM34.45 33.4H34.35V26.96H34.45V33.4ZM34.45 1.82V2.41H34.35V1.8C34.35 1.8 34.41 1.82 34.45 1.82ZM34.45 4.44V5.41C34.45 5.41 34.39 5.39 34.35 5.37V4.42C34.35 4.42 34.41 4.44 34.45 4.44ZM34.45 8.36V8.5H34.35V8.34L34.45 8.36ZM34.45 11.01V12.3C34.41 12.2 34.37 12.1 34.35 12V11.35C34.37 11.23 34.41 11.13 34.45 11.01ZM34.45 35.54V35.96L34.37 35.98L34.35 35.8V35.6L34.45 35.54ZM34.45 40.51V40.79C34.45 40.79 34.39 40.81 34.35 40.83V40.53C34.35 40.53 34.41 40.51 34.45 40.51ZM34.45 43.46V44.31C34.45 44.31 34.39 44.33 34.35 44.35V43.48C34.35 43.48 34.41 43.48 34.45 43.46ZM34.35 36.82V36.42C34.39 36.56 34.39 36.68 34.35 36.82ZM33.77 25.3H34.35V26.59H33.77V25.3ZM34.35 33.4H33.77V26.96H34.35V33.4ZM34.35 1.8V2.41C34.15 2.37 33.97 2.33 33.77 2.31V1.72C33.97 1.74 34.15 1.78 34.35 1.8ZM34.35 4.42V5.37C34.15 5.31 33.97 5.27 33.77 5.21V4.26C33.97 4.3 34.15 4.36 34.35 4.42ZM34.35 8.34V8.5C34.29 8.5 34.23 8.52 34.23 8.56C34.21 8.62 34.17 8.74 34.15 8.8C34.13 8.88 34.11 8.94 34.09 9.02L33.77 10.23V8.17L34.35 8.33V8.34ZM34.35 12V11.35C34.31 11.58 34.31 11.8 34.35 12ZM34.35 35.6V35.8L34.33 35.6H34.35ZM34.35 36.41C34.35 36.41 34.33 36.33 34.33 36.31C34.27 36.11 34.17 35.97 34.01 35.89C33.93 35.83 33.85 35.81 33.77 35.79V35.93C33.77 35.93 33.83 35.97 33.87 35.99C33.95 36.07 34.01 36.17 34.05 36.33C34.07 36.35 34.07 36.39 34.09 36.43V36.53C34.09 36.53 34.01 36.59 33.99 36.63C33.95 36.65 33.91 36.67 33.87 36.67C33.85 36.69 33.81 36.69 33.77 36.69V36.87C33.77 36.87 33.83 36.87 33.87 36.85C33.91 36.83 33.95 36.81 33.99 36.79C34.03 36.77 34.07 36.73 34.11 36.67C34.13 36.85 34.09 37.01 34.01 37.15C33.97 37.25 33.87 37.37 33.77 37.47V37.57L33.83 37.59C34.05 37.41 34.21 37.21 34.31 36.98C34.33 36.92 34.33 36.86 34.35 36.8V36.4V36.41ZM34.35 40.53V40.83C34.15 40.89 33.97 40.93 33.77 40.99V40.69C33.97 40.65 34.15 40.59 34.35 40.53ZM34.35 43.48V44.35C34.15 44.39 33.97 44.45 33.77 44.49V43.6C33.97 43.56 34.15 43.52 34.35 43.48ZM33.22 25.3H33.76V26.59C33.56 26.59 33.4 26.59 33.22 26.61V25.3ZM33.77 33.4H33.23V26.96H33.77V33.4ZM33.77 1.72V2.31C33.59 2.27 33.41 2.25 33.23 2.23V1.64C33.41 1.66 33.59 1.7 33.77 1.72ZM33.77 4.26V5.21C33.59 5.17 33.43 5.11 33.23 5.07V4.12C33.43 4.16 33.59 4.2 33.77 4.26ZM33.77 8.18V10.24L33.53 11.25C33.45 11.51 33.39 11.69 33.27 11.92C33.25 11.94 33.25 11.96 33.23 11.98V9.42L33.39 8.85C33.41 8.77 33.43 8.69 33.45 8.63C33.47 8.57 33.49 8.43 33.51 8.39C33.53 8.29 33.35 8.23 33.29 8.17L33.33 8.07L33.77 8.19V8.18ZM33.77 35.79V35.93C33.77 35.93 33.67 35.91 33.61 35.93C33.55 35.95 33.51 36.01 33.49 36.09C33.45 36.17 33.47 36.27 33.49 36.37C33.53 36.49 33.57 36.57 33.65 36.63C33.69 36.67 33.73 36.69 33.77 36.69V36.87C33.67 36.89 33.57 36.87 33.51 36.81C33.39 36.75 33.31 36.65 33.25 36.49C33.25 36.47 33.23 36.45 33.23 36.41V36.21C33.23 36.21 33.25 36.13 33.27 36.09C33.35 35.95 33.45 35.87 33.57 35.83C33.65 35.79 33.71 35.79 33.77 35.79ZM33.77 37.48V37.58L33.67 37.56C33.67 37.56 33.75 37.5 33.77 37.48ZM33.77 40.69V40.99C33.59 41.03 33.43 41.07 33.23 41.13V40.83C33.43 40.79 33.59 40.75 33.77 40.69ZM33.77 43.6V44.49C33.59 44.53 33.41 44.57 33.23 44.61V43.68C33.43 43.66 33.59 43.62 33.77 43.6ZM32.58 25.3H33.23V26.61H32.58V25.3ZM33.22 33.4H32.57V26.96H33.22V33.4ZM33.22 1.64V2.23C33 2.19 32.77 2.15 32.57 2.11V1.56C32.77 1.58 32.99 1.62 33.22 1.64ZM33.22 4.12V5.07C33 5.03 32.8 4.97 32.57 4.93V3.98C32.79 4.02 32.99 4.08 33.22 4.12ZM33.22 9.41V11.97C33.08 12.21 32.84 12.33 32.57 12.41V11.76C32.65 11.56 32.71 11.32 32.77 11.11L33.22 9.39V9.41ZM33.22 40.83V41.13C33 41.17 32.8 41.21 32.57 41.25V40.97C32.79 40.93 32.99 40.89 33.22 40.83ZM33.22 43.68V44.61C33 44.65 32.77 44.67 32.57 44.71V43.76C32.79 43.74 32.99 43.7 33.22 43.68ZM32.58 37.93V37.73C32.64 37.67 32.7 37.61 32.74 37.53C32.82 37.39 32.88 37.25 32.88 37.07C32.84 37.11 32.78 37.15 32.74 37.17C32.7 37.19 32.66 37.21 32.62 37.23H32.58V37.05H32.64C32.64 37.05 32.72 37.03 32.74 37.01C32.78 36.99 32.82 36.97 32.88 36.93C32.88 36.89 32.88 36.85 32.86 36.81C32.86 36.79 32.86 36.75 32.84 36.71C32.82 36.57 32.76 36.45 32.68 36.37C32.66 36.33 32.62 36.31 32.58 36.29V36.17C32.68 36.17 32.76 36.21 32.86 36.27C32.98 36.39 33.08 36.53 33.12 36.74C33.18 36.96 33.14 37.18 33.04 37.41C32.94 37.61 32.78 37.79 32.58 37.96M31.36 25.3H32.57V26.61C32.12 26.63 31.72 26.65 31.36 26.65V25.3ZM32.58 33.4H31.37V26.96H32.58V33.4ZM32.58 1.56V2.11C32.16 2.05 31.75 1.99 31.37 1.93V1.44H31.43C31.71 1.48 32.12 1.52 32.58 1.56ZM32.58 3.98V4.93C32.18 4.85 31.77 4.79 31.37 4.75V3.8C31.77 3.86 32.18 3.92 32.58 3.98ZM32.58 11.77V12.42C32.34 12.48 32.07 12.5 31.85 12.48V12.36C32.23 12.32 32.44 12.08 32.58 11.77ZM32.58 36.15V36.27C32.58 36.27 32.5 36.25 32.44 36.27C32.36 36.29 32.32 36.33 32.28 36.41C32.24 36.49 32.24 36.59 32.26 36.69C32.3 36.81 32.34 36.91 32.42 36.97C32.46 37.01 32.52 37.03 32.58 37.03V37.21C32.46 37.23 32.34 37.21 32.24 37.15C32.12 37.07 32.06 36.95 32.02 36.79C31.98 36.65 32 36.51 32.08 36.39C32.16 36.27 32.26 36.19 32.42 36.15C32.48 36.15 32.52 36.13 32.58 36.15ZM32.58 37.73V37.93C32.58 37.93 32.54 37.95 32.52 37.97L32.36 37.91C32.44 37.85 32.52 37.79 32.58 37.73ZM32.58 40.98V41.26C32.18 41.34 31.77 41.4 31.37 41.44V41.16C31.77 41.12 32.18 41.06 32.58 40.98ZM32.58 43.76V44.71C32.44 44.71 32.32 44.73 32.18 44.73C31.94 44.75 31.65 44.75 31.37 44.77V43.82C31.77 43.82 32.18 43.8 32.58 43.76ZM31.36 38.13V36.33L31.54 37.78C31.56 37.84 31.58 37.9 31.6 37.92C31.64 37.96 31.7 37.96 31.76 37.96H31.8L31.82 38.06L31.36 38.12V38.13ZM30.11 25.3H31.36V26.65C30.9 26.67 30.47 26.69 30.11 26.71V25.3ZM31.36 33.4H30.11V26.96H31.36V33.4ZM31.36 1.43V1.92C31.14 1.9 30.92 1.86 30.69 1.82C30.53 1.8 30.33 1.76 30.1 1.72V1.22C30.56 1.32 30.99 1.4 31.35 1.44M31.36 3.8V4.75C30.96 4.69 30.53 4.65 30.11 4.63V3.7C30.54 3.72 30.96 3.76 31.36 3.8ZM31.36 36.35V38.13L31.12 38.15L31.1 38.05H31.14C31.22 38.03 31.26 38.01 31.3 37.99C31.32 37.95 31.32 37.89 31.32 37.81L31.2 36.78C31.18 36.7 31.16 36.64 31.12 36.62C31.1 36.6 31.02 36.6 30.92 36.6V36.52L31.36 36.36V36.35ZM31.36 41.16V41.44C30.96 41.5 30.53 41.52 30.11 41.56V41.28C30.54 41.26 30.96 41.22 31.36 41.16ZM31.36 43.82V44.77C30.98 44.77 30.55 44.75 30.11 44.73V43.82C30.54 43.84 30.96 43.84 31.36 43.82ZM30.11 11.83V11.59C30.23 11.57 30.35 11.53 30.47 11.45C30.85 11.21 30.73 10.95 30.49 10.97H30.11V10.63C30.23 10.65 30.33 10.65 30.45 10.67C30.85 10.69 31.12 10.95 30.85 11.4C30.69 11.66 30.39 11.8 30.1 11.84M30.11 9.75V9.45C30.51 9.23 30.94 9.21 31 9.51C31.08 9.87 30.9 10.08 30.8 10.16C30.68 10.26 30.6 10.22 30.66 10.12C30.78 9.94 30.78 9.68 30.58 9.66C30.46 9.64 30.3 9.66 30.12 9.76M29.16 25.3H30.11V26.71C29.75 26.73 29.42 26.73 29.16 26.75V25.3ZM30.11 33.4H29.16V26.98C29.46 26.96 29.79 26.96 30.11 26.96V33.4ZM30.11 1.21V1.71C29.83 1.65 29.49 1.59 29.16 1.51V1.01C29.48 1.09 29.81 1.15 30.11 1.21ZM30.11 3.7V4.63C29.81 4.61 29.49 4.61 29.16 4.61V3.68C29.48 3.68 29.81 3.68 30.11 3.7ZM30.11 9.45V9.75C29.97 9.81 29.83 9.93 29.75 10.13C29.61 10.41 29.83 10.55 30.11 10.61V10.95C29.93 10.93 29.71 10.89 29.55 10.79C29.27 10.65 29.17 10.26 29.61 9.8C29.75 9.64 29.93 9.52 30.11 9.44M30.11 11.59V11.83C29.93 11.87 29.73 11.87 29.61 11.85C29.35 11.79 29.16 11.61 29.25 11.39C29.33 11.19 29.43 11.39 29.57 11.51C29.65 11.61 29.87 11.65 30.11 11.59ZM30.11 41.28V41.56C29.81 41.56 29.49 41.58 29.16 41.58V41.3C29.48 41.3 29.81 41.3 30.11 41.28ZM30.11 43.82V44.73C29.81 44.73 29.49 44.69 29.16 44.67V43.78C29.46 43.8 29.79 43.82 30.11 43.82ZM29.16 38.23V38.09C29.16 38.09 29.28 38.13 29.38 38.13C29.5 38.13 29.6 38.09 29.7 38.05C29.78 37.99 29.86 37.89 29.92 37.77L30.02 37.81L29.9 38.25L29.15 38.23H29.16ZM29.16 37.34V37.22H29.26C29.42 37.22 29.52 37.22 29.58 37.18C29.62 37.14 29.66 37.08 29.66 37H29.76V37.59H29.64C29.64 37.51 29.62 37.45 29.56 37.41C29.52 37.37 29.42 37.35 29.26 37.35H29.16V37.34ZM29.16 36.53V36.43L29.97 36.45V36.83H29.87C29.85 36.73 29.79 36.65 29.73 36.61C29.65 36.57 29.53 36.55 29.35 36.55L29.17 36.53H29.16ZM28.15 25.3H29.16V26.75C28.76 26.77 28.43 26.77 28.15 26.77V25.3ZM29.16 33.4H28.15V26.98H29.16V33.4ZM29.16 1.01V1.51C28.82 1.45 28.49 1.37 28.15 1.31V0.76C28.49 0.84 28.84 0.92 29.16 1M29.16 3.68V4.61C28.82 4.61 28.47 4.63 28.15 4.63V3.7C28.47 3.68 28.82 3.68 29.16 3.68ZM29.16 36.43V36.53L29.1 36.55C29.08 36.57 29.08 36.59 29.08 36.63L29.06 37.22H29.16V37.34H29.06V37.87C29.06 37.95 29.08 38.03 29.12 38.07C29.12 38.07 29.1333 38.0767 29.16 38.09V38.23L28.51 38.21V38.11C28.61 38.09 28.67 38.07 28.71 38.05C28.75 38.01 28.77 37.93 28.77 37.83L28.79 36.82C28.79 36.7 28.77 36.64 28.73 36.6C28.71 36.56 28.65 36.54 28.55 36.52V36.44H29.16V36.43ZM29.16 41.3V41.58C28.82 41.58 28.47 41.56 28.15 41.54V41.28C28.47 41.3 28.82 41.3 29.16 41.3ZM29.16 43.78V44.67C28.82 44.65 28.49 44.61 28.15 44.57V43.68C28.47 43.72 28.82 43.76 29.16 43.78ZM28.15 38.11V37.77C28.15 37.77 28.17 37.73 28.19 37.71H28.31L28.21 38.09C28.21 38.09 28.17 38.09 28.15 38.11ZM28.15 36.61V36.41C28.23 36.43 28.29 36.47 28.37 36.53V36.89H28.27C28.25 36.79 28.21 36.69 28.15 36.61ZM28.15 11.92V11.58C28.21 11.6 28.29 11.62 28.37 11.62C28.63 11.62 28.85 11.54 28.96 11.44C29.06 11.34 29.12 11.48 28.96 11.6C28.84 11.7 28.56 11.88 28.15 11.92ZM28.15 10.85V10.63C28.31 10.49 28.47 10.33 28.53 10.21C28.67 9.93 28.57 9.62 28.37 9.73C28.31 9.77 28.23 9.83 28.15 9.91V9.51C28.43 9.29 28.74 9.21 28.9 9.35C29.26 9.61 28.82 10.28 28.39 10.64C28.31 10.72 28.23 10.78 28.15 10.86M27.43 25.3H28.16V26.77H27.43V25.3ZM28.15 33.4H27.42V26.98H28.15V33.4ZM28.15 0.77V1.32C27.91 1.26 27.67 1.2 27.42 1.14V0.62C27.66 0.66 27.9 0.72 28.15 0.78M28.15 3.7V4.63C27.91 4.65 27.67 4.67 27.42 4.69V3.76C27.66 3.74 27.9 3.72 28.15 3.7ZM28.15 9.49V9.89C28.03 10.01 27.91 10.19 27.83 10.39C27.71 10.71 27.71 10.98 27.71 10.98C27.71 10.98 27.93 10.8 28.15 10.62V10.84C27.99 10.98 27.85 11.08 27.75 11.16C27.83 11.32 27.97 11.48 28.15 11.56V11.9C28.05 11.9 27.95 11.9 27.85 11.88C27.67 11.86 27.53 11.76 27.43 11.62V10.45L27.45 10.43C27.57 10.05 27.87 9.68 28.16 9.48M28.15 36.41V36.61C28.15 36.61 28.13 36.59 28.11 36.57C28.03 36.49 27.93 36.43 27.79 36.43C27.65 36.41 27.53 36.43 27.43 36.51V36.37L27.45 36.35C27.59 36.31 27.71 36.31 27.85 36.31C27.93 36.33 28.01 36.35 28.09 36.39C28.11 36.39 28.13 36.41 28.15 36.41ZM28.15 37.77V38.11C28.05 38.13 27.97 38.15 27.89 38.17H27.59C27.53 38.17 27.49 38.15 27.43 38.13V37.99C27.49 38.03 27.55 38.05 27.63 38.05C27.75 38.07 27.85 38.05 27.95 37.99C28.03 37.95 28.09 37.87 28.15 37.77ZM28.15 41.28V41.54C27.91 41.54 27.67 41.52 27.42 41.5V41.22C27.66 41.24 27.9 41.26 28.15 41.28ZM28.15 43.68V44.57C27.91 44.55 27.67 44.51 27.42 44.47V43.6C27.66 43.62 27.9 43.66 28.15 43.68ZM26.84 25.3H27.43V26.77C27.25 26.79 27.05 26.79 26.84 26.79V25.3ZM27.43 33.4H26.84V27C27.04 27 27.22 26.98 27.43 26.98V33.4ZM27.43 0.61V1.13C27.23 1.09 27.05 1.05 26.84 1.01V0.46C27.04 0.5 27.24 0.54 27.43 0.6M27.43 3.76V4.69C27.25 4.71 27.05 4.73 26.84 4.75V3.82C27.04 3.8 27.24 3.78 27.43 3.76ZM27.43 10.46V11.63C27.39 11.55 27.35 11.47 27.33 11.37C27.21 11.51 27.01 11.69 26.91 11.77C26.89 11.77 26.87 11.79 26.85 11.79V11.51C27.09 11.43 27.27 11.29 27.31 11.27C27.29 11.05 27.33 10.77 27.43 10.46ZM27.43 36.37V36.51C27.43 36.51 27.39 36.55 27.37 36.57C27.27 36.69 27.19 36.87 27.17 37.12C27.13 37.38 27.15 37.6 27.25 37.77C27.29 37.87 27.35 37.95 27.43 37.99V38.13C27.37 38.11 27.31 38.09 27.25 38.07C27.17 38.01 27.07 37.93 27.01 37.83C26.93 37.73 26.89 37.63 26.87 37.53L26.85 37.51V37.09C26.87 36.99 26.91 36.91 26.93 36.83C26.99 36.73 27.05 36.65 27.13 36.57C27.21 36.49 27.31 36.43 27.43 36.39M27.43 41.22V41.5C27.25 41.48 27.05 41.46 26.84 41.44V41.16C27.04 41.18 27.24 41.2 27.43 41.22ZM27.43 43.6V44.47C27.25 44.45 27.05 44.41 26.84 44.39V43.5C27.04 43.54 27.22 43.56 27.43 43.6ZM26.84 36.33V36.25H26.88L26.84 36.33ZM26.84 8.66V7.63C26.96 7.45 27.06 7.41 27.14 7.41C27.32 7.41 27.36 7.67 27.24 7.89C27.18 8.01 27.02 8.29 26.84 8.66ZM25.75 25.3H26.84V26.79C26.48 26.79 26.07 26.81 25.75 26.81V25.29V25.3ZM26.84 33.4H25.75V27H26.84V33.4ZM26.84 0.46V1.01C26.46 0.91 26.07 0.83 25.75 0.75V0.27C26.13 0.33 26.5 0.39 26.84 0.47M26.84 3.82V4.75C26.48 4.81 26.11 4.87 25.75 4.93V3.98C26.11 3.92 26.48 3.86 26.84 3.82ZM26.84 7.63V8.66C26.68 9 26.5 9.43 26.4 9.79C26.2 10.54 26.12 11.51 26.52 11.55C26.64 11.55 26.74 11.55 26.84 11.51V11.79C26.66 11.89 26.05 12.11 25.89 11.65C25.69 11.17 25.87 10.46 26.25 9.11C26.47 8.3 26.68 7.86 26.84 7.64M26.84 36.25V36.35C26.74 36.35 26.68 36.35 26.62 36.39C26.58 36.41 26.54 36.47 26.52 36.59L26.24 37.64C26.22 37.7 26.22 37.76 26.2 37.8C26.2 37.86 26.18 37.9 26.18 37.94L26.04 37.92C26.02 37.86 26 37.8 25.98 37.74C25.96 37.68 25.92 37.6 25.88 37.48L25.76 37.24V36.53L26.16 37.46L26.4 36.53C26.44 36.43 26.44 36.35 26.4 36.31C26.38 36.25 26.32 36.23 26.22 36.19L26.26 36.09L26.85 36.25H26.84ZM26.84 37.08V37.16C26.82 37.28 26.82 37.4 26.84 37.5V37.08ZM26.84 41.16V41.44C26.48 41.38 26.11 41.34 25.75 41.26V40.98C26.11 41.06 26.48 41.12 26.84 41.16ZM26.84 43.5V44.39C26.5 44.33 26.13 44.27 25.75 44.19V43.32C26.11 43.38 26.48 43.44 26.84 43.5ZM24.82 25.3H25.75V26.82C25.57 26.82 25.43 26.84 25.3 26.84C25.08 26.86 24.94 26.88 24.82 26.88V25.3ZM25.75 33.4H24.82V27H25.75V33.4ZM25.75 0.26V0.74C25.39 0.66 25.06 0.6 24.88 0.56H24.82V0.1C25.12 0.14 25.45 0.2 25.75 0.26ZM25.75 3.98V4.93C25.45 4.99 25.12 5.05 24.82 5.13V4.18C25.12 4.1 25.45 4.04 25.75 3.98ZM25.75 36.53V37.24L25.37 36.33L25.15 37.18C25.11 37.3 25.11 37.38 25.13 37.44C25.15 37.5 25.19 37.54 25.27 37.56H25.31L25.27 37.68L24.82 37.56V37.42C24.82 37.42 24.88 37.4 24.9 37.38C24.94 37.34 24.98 37.26 25.02 37.16L25.28 36.15C25.26 36.09 25.22 36.03 25.18 35.97C25.14 35.93 25.1 35.89 25.06 35.87L25.08 35.77L25.48 35.89L25.74 36.54L25.75 36.53ZM25.75 40.98V41.26C25.45 41.22 25.12 41.14 24.82 41.08V40.78C25.12 40.86 25.45 40.92 25.75 40.98ZM25.75 43.32V44.19C25.45 44.13 25.12 44.07 24.82 43.99V43.12C25.12 43.18 25.43 43.24 25.75 43.32ZM24.82 35.79C24.82 35.79 24.9 35.79 24.96 35.81L25 35.71L24.82 35.63V35.79ZM24.32 25.3H24.82V26.88C24.48 26.94 24.56 26.98 24.82 27V33.4H24.32V25.3ZM24.82 0.1V0.56C24.68 0.52 24.5 0.5 24.32 0.48V0.04C24.48 0.06 24.66 0.08 24.82 0.1ZM24.82 4.18V5.13C24.64 5.17 24.48 5.21 24.32 5.27V4.32C24.48 4.26 24.64 4.22 24.82 4.18ZM24.82 35.62V35.78C24.82 35.78 24.76 35.78 24.74 35.8C24.7 35.82 24.66 35.86 24.62 35.96L24.32 36.79V35.98L24.36 35.86C24.4 35.76 24.4 35.7 24.38 35.66C24.38 35.62 24.36 35.6 24.32 35.58V35.44L24.82 35.62ZM24.82 37.42V37.56L24.64 37.5L24.68 37.4H24.7C24.7 37.4 24.78 37.42 24.82 37.42ZM24.82 40.77V41.07C24.64 41.03 24.48 40.97 24.32 40.93V40.63C24.48 40.69 24.64 40.73 24.82 40.77ZM24.82 43.12V43.99C24.66 43.95 24.48 43.91 24.32 43.87V42.98C24.48 43.02 24.64 43.08 24.82 43.12ZM24.32 37.34V37.22C24.32 37.22 24.36 37.24 24.4 37.26L24.36 37.36L24.32 37.34ZM24.32 12.24V11.19V11.23C24.52 11.53 24.52 11.86 24.34 12.18C24.34 12.2 24.32 12.22 24.32 12.24ZM23.79 25.3H24.32V33.4H23.79V27.16H23.81C23.89 27.16 23.97 27.08 23.97 27C23.97 26.92 23.89 26.86 23.81 26.86H23.79V25.31V25.3ZM24.32 0.04V0.48C24.16 0.48 23.98 0.46 23.79 0.46V0C23.87 0.02 23.93 0.02 24.01 0.02C24.11 0.04 24.21 0.04 24.31 0.04M24.32 4.32V5.27C24.14 5.31 23.98 5.37 23.79 5.41V4.46C23.97 4.4 24.13 4.36 24.32 4.32ZM24.32 11.19V12.24C24.2 12.44 24.04 12.62 23.79 12.81V10.79C24.01 10.87 24.17 10.99 24.32 11.19ZM24.32 35.44V35.58C24.32 35.58 24.26 35.54 24.22 35.52L24.26 35.42L24.32 35.44ZM24.32 35.99V36.8L24.26 36.92C24.22 37.02 24.22 37.08 24.24 37.14C24.26 37.16 24.28 37.18 24.32 37.22V37.34L23.79 37.16V37H23.87C23.87 37 23.95 36.92 23.99 36.82L24.31 35.99H24.32ZM24.32 40.63V40.93C24.14 40.89 23.98 40.83 23.79 40.79V40.49C23.97 40.55 24.13 40.59 24.32 40.63ZM24.32 42.98V43.87C24.14 43.83 23.98 43.79 23.79 43.75V42.86C23.95 42.9 24.13 42.94 24.32 42.98ZM23.79 35.77V35.24C23.85 35.3 23.91 35.36 23.97 35.44L23.81 35.76H23.79V35.77ZM22.9 25.3H23.79V26.85C23.73 26.85 23.67 26.91 23.67 26.99C23.67 27.07 23.73 27.13 23.79 27.15V33.39H22.9V27.11C23.06 27.11 23.18 27.05 23.18 26.99C23.18 26.93 23.06 26.89 22.9 26.89V25.29V25.3ZM23.79 0V0.46C23.51 0.46 23.2 0.46 22.9 0.5V0.04C23.18 0 23.49 0 23.79 0ZM23.79 4.46V5.41C23.49 5.51 23.18 5.61 22.9 5.71V4.74C23.18 4.64 23.49 4.54 23.79 4.46ZM23.79 10.78V12.8C23.67 12.88 23.53 12.98 23.37 13.06C23.23 13.16 23.07 13.22 22.91 13.28V12.86C22.97 12.84 23.03 12.82 23.07 12.8C23.37 12.68 23.84 12.27 23.68 11.89C23.54 11.55 23.25 11.47 22.91 11.47V10.7C23.21 10.68 23.53 10.7 23.8 10.78M23.79 35.24V35.77L23.71 35.73C23.75 35.61 23.75 35.49 23.73 35.41C23.71 35.33 23.65 35.25 23.55 35.21C23.49 35.17 23.41 35.15 23.35 35.17C23.27 35.19 23.23 35.23 23.19 35.29C23.17 35.33 23.17 35.37 23.17 35.41C23.15 35.45 23.17 35.49 23.17 35.51C23.19 35.57 23.25 35.67 23.33 35.83C23.37 35.89 23.41 35.95 23.43 36.01C23.49 36.11 23.53 36.21 23.55 36.29C23.55 36.39 23.53 36.45 23.49 36.53C23.43 36.67 23.33 36.77 23.19 36.81C23.09 36.83 23.01 36.83 22.91 36.79V36.67C22.91 36.67 23.01 36.69 23.05 36.67C23.13 36.65 23.19 36.59 23.23 36.53C23.25 36.45 23.27 36.39 23.25 36.33C23.25 36.25 23.19 36.13 23.11 35.97C22.99 35.77 22.93 35.63 22.91 35.55C22.91 35.47 22.91 35.39 22.97 35.29C23.03 35.17 23.11 35.09 23.23 35.05C23.35 35.03 23.47 35.05 23.61 35.11C23.67 35.13 23.73 35.19 23.79 35.25M23.79 37V37.16L23.63 37.08L23.67 36.98C23.67 36.98 23.75 37 23.79 37ZM23.79 40.49V40.79C23.49 40.69 23.18 40.59 22.9 40.49V40.19C23.18 40.29 23.49 40.39 23.79 40.49ZM23.79 42.86V43.75C23.49 43.67 23.18 43.57 22.9 43.49V42.6C23.16 42.68 23.46 42.78 23.79 42.86ZM22.9 9.57V9.31L23.04 9.59L22.98 9.61C22.98 9.61 22.92 9.57 22.9 9.57ZM22.6 25.3H22.9V26.9C22.74 26.9 22.6 26.94 22.6 27C22.6 27.06 22.74 27.12 22.9 27.12V33.4H22.6V25.3ZM22.9 0.04V0.5C22.8 0.52 22.7 0.52 22.6 0.54V0.08C22.7 0.06 22.8 0.04 22.9 0.04ZM22.9 4.75V5.72C22.8 5.76 22.7 5.8 22.6 5.84V4.87C22.7 4.83 22.8 4.79 22.9 4.75ZM22.9 9.31V9.57C22.8 9.51 22.7 9.49 22.6 9.47V9.01C22.6 9.01 22.68 8.99 22.7 8.99L22.9 9.31ZM22.9 10.7V11.47C22.8 11.47 22.7 11.47 22.6 11.49V10.72C22.66 10.7 22.7 10.7 22.74 10.7H22.9ZM22.9 12.86V13.28C22.8 13.32 22.7 13.34 22.6 13.38V12.92C22.7 12.9 22.8 12.88 22.9 12.86ZM22.9 36.67V36.79C22.84 36.79 22.8 36.77 22.76 36.75C22.7 36.71 22.66 36.69 22.6 36.65V36.02L22.64 36.04C22.62 36.2 22.6 36.32 22.64 36.42C22.68 36.52 22.74 36.58 22.82 36.64C22.86 36.64 22.88 36.66 22.9 36.66M22.9 40.19V40.49C22.8 40.47 22.7 40.43 22.6 40.39V40.07C22.7 40.11 22.8 40.15 22.9 40.19ZM22.9 42.59V43.48C22.8 43.44 22.7 43.42 22.6 43.38V42.51C22.7 42.53 22.8 42.57 22.9 42.59ZM21.23 25.3H22.6V33.4H21.23V26.98C22.44 26.92 21.85 26.68 21.23 26.68V25.31V25.3ZM22.6 0.08V0.54C22.15 0.6 21.67 0.74 21.23 0.94V0.48C21.67 0.28 22.14 0.14 22.6 0.08ZM22.6 4.87V5.84C22.14 6.02 21.67 6.22 21.23 6.45V5.44C21.69 5.24 22.14 5.04 22.6 4.87ZM22.6 9.01V9.47C22.12 9.41 21.59 9.71 21.53 10.1C21.41 10.73 22.09 10.75 22.6 10.73V11.5C22.42 11.52 22.24 11.54 22.03 11.56C21.73 11.6 21.45 11.58 21.22 11.46V9.78C21.38 9.64 21.56 9.5 21.76 9.38C21.9 9.3 22.35 9.12 22.59 9.02M22.6 12.92V13.38C22.52 13.4 22.42 13.44 22.32 13.46L21.94 12.81L22.04 12.77C22.24 12.87 22.42 12.91 22.61 12.91M22.6 36.03V36.66C22.6 36.66 22.56 36.62 22.54 36.6C22.48 36.54 22.42 36.46 22.38 36.38L22.56 36.02L22.6 36.04V36.03ZM22.6 40.07V40.39C22.14 40.21 21.67 40.03 21.23 39.8V39.46C21.67 39.68 22.14 39.88 22.6 40.07ZM22.6 42.51V43.38C22.14 43.24 21.67 43.08 21.23 42.9V42.03C21.23 42.03 21.31 42.05 21.35 42.07C21.59 42.17 22.04 42.33 22.6 42.51ZM21.23 15.07V14.44C21.29 14.28 21.29 14.12 21.23 13.96V12.99C21.51 13.27 21.65 13.54 21.71 13.84C21.77 14.22 21.63 14.61 21.29 15.01C21.27 15.03 21.25 15.05 21.23 15.07ZM19.35 25.3H21.23V26.67C21.17 26.67 21.11 26.67 21.05 26.69L19.35 26.71V25.3ZM21.23 33.4H19.35V27.1H19.39C20.06 27.08 20.62 27.02 20.72 27H20.8C20.96 27 21.1 27 21.22 26.98V33.4H21.23ZM21.23 0.48V0.94C20.97 1.04 20.7 1.2 20.46 1.38C20.16 1.6 19.77 1.97 19.35 2.39V1.62C19.97 1.11 20.6 0.73 21.23 0.47M21.23 5.43V6.44C20.58 6.76 19.96 7.11 19.35 7.49V6.46C19.96 6.08 20.58 5.75 21.23 5.43ZM21.23 9.77V11.45C21.09 11.39 20.97 11.27 20.87 11.11C20.71 10.83 20.71 10.52 20.87 10.22C20.97 10.06 21.09 9.92 21.23 9.78M21.23 12.99C21.17 12.91 21.07 12.83 20.97 12.75L19.84 11.78C19.76 11.72 19.7 11.68 19.64 11.62C19.58 11.58 19.54 11.54 19.5 11.5C19.46 11.46 19.46 11.42 19.46 11.38V11.22L19.38 11.14L19.36 11.16V12.15C19.36 12.15 19.42 12.19 19.46 12.23L20.65 13.22C20.91 13.44 21.15 13.68 21.24 13.97V13L21.23 12.99ZM21.23 14.44V15.07C20.91 15.45 20.46 15.78 20.12 15.8C19.88 15.82 19.62 15.74 19.35 15.6V14.49L19.45 14.57C20.01 15.05 20.52 15.38 21.07 14.71C21.15 14.63 21.21 14.53 21.23 14.45M21.23 39.46V39.8C20.58 39.5 19.96 39.15 19.35 38.79V38.41C19.96 38.79 20.58 39.16 21.23 39.46ZM21.23 42.03V42.9C20.56 42.64 19.94 42.33 19.35 42.01V40.96C20.1 41.47 20.76 41.83 21.23 42.03ZM17.25 25.3H19.35V26.71L17.25 26.73V25.3ZM19.35 33.4H17.25V27.14C17.98 27.14 18.78 27.12 19.35 27.1V33.4ZM19.35 1.64V2.41C18.73 3.08 17.98 3.9 17.25 4.73V3.62C17.98 2.83 18.66 2.17 19.35 1.64ZM19.35 6.46V7.49C18.62 7.97 17.92 8.5 17.25 9.09V7.96C17.92 7.41 18.62 6.91 19.35 6.47M19.35 11.15V12.14C19.35 12.14 19.29 12.08 19.27 12.06C19.21 12.02 19.15 11.96 19.09 11.92C19.07 11.9 19.03 11.9 18.99 11.92L18.79 12.02L18.69 11.94L19.36 11.15H19.35ZM19.35 14.48V15.59C19.23 15.51 19.09 15.41 18.95 15.29L17.74 14.28C17.68 14.22 17.6 14.16 17.54 14.12C17.5 14.08 17.44 14.04 17.4 14C17.36 13.96 17.32 13.98 17.28 13.98H17.26V13.66L17.9 12.89L17.98 12.97L17.92 13.19C17.92 13.19 17.92 13.27 17.94 13.29C18 13.35 18.04 13.39 18.1 13.43C18.16 13.49 18.22 13.53 18.3 13.59L19.35 14.48ZM19.35 38.41V38.79C18.62 38.33 17.92 37.82 17.25 37.28V36.82C17.92 37.41 18.62 37.93 19.35 38.42M19.35 40.96V42.01C19.13 41.89 18.93 41.77 18.73 41.65C18.24 41.33 17.76 40.94 17.26 40.52V39.43C17.99 40.02 18.71 40.54 19.36 40.96M17.25 26.98V26.96C17.43 26.96 17.59 26.98 17.78 26.98H17.25ZM17.25 22.05V21.14H18.32C18.32 21.14 18.38 21.1 18.4 21.06L18.52 20.82H18.64V22.33H18.52L18.4 22.13C18.4 22.13 18.36 22.07 18.32 22.05H17.25ZM17.25 19.43C18.12 19.53 18.82 19.13 19.15 18.24C19.55 17.11 19.01 16.14 17.82 15.7C17.62 15.64 17.44 15.58 17.26 15.56V16.53C17.38 16.57 17.48 16.59 17.58 16.63C18.45 16.95 19.15 17.38 18.91 18.08C18.69 18.67 18 18.69 17.25 18.48V19.43ZM8.46 25.3H17.25V26.73L14.34 26.77C13.43 26.79 12.68 26.79 14.18 26.89C14.42 26.89 14.87 26.89 15.23 26.91C15.8 26.91 16.48 26.93 17.25 26.95V26.97C16.38 26.99 15.49 27.03 16.02 27.09C16.3 27.11 16.75 27.13 17.25 27.13V33.39H8.46C8.08 33.39 7.77 33.07 7.77 32.66V32.36H7.45C7.37 32.36 7.31 32.28 7.31 32.2V26.49C7.31 26.41 7.37 26.33 7.45 26.33H7.77V26.03C7.77 25.63 8.07 25.3 8.46 25.3ZM17.25 3.62V4.73C16.24 5.86 15.21 6.97 14.42 7.6C12.68 8.95 10.28 12.18 9.67 13.48C9.08 14.79 9.35 15.28 9.35 16.31C9.35 17.34 9.47 21.34 9.25 22.43C9.03 23.5 8.54 24.93 8.54 24.93L8.22 24.87C8.22 24.87 9.03 22.95 9.03 21.76C9.03 20.57 9.03 15.12 9.09 14.31C9.13 13.48 9.68 12.71 10.61 11.26C11.54 9.79 14.1 7.16 16.67 4.27C16.87 4.05 17.07 3.83 17.26 3.62M17.25 7.96C13.03 11.45 10.34 16.72 10.34 22.62C10.34 23.39 10.38 24.13 10.46 24.88H11.03C10.97 24.23 10.93 23.61 10.93 22.96C10.93 17.43 13.39 12.46 17.25 9.09V7.96ZM17.25 13.65L16.99 13.95L17.07 14.03L17.25 13.97V13.65ZM17.25 15.55C16.38 15.43 15.69 15.85 15.37 16.74C14.97 17.87 15.45 18.84 16.64 19.28C16.86 19.34 17.07 19.4 17.25 19.42V18.47C17.13 18.43 17.01 18.39 16.89 18.35C16.04 18.03 15.37 17.6 15.62 16.92C15.84 16.31 16.51 16.29 17.26 16.52V15.55H17.25ZM17.25 21.14H15.11V20.21L15.73 19.87L15.71 19.75H14.78L14.76 19.77V23.41L14.78 23.43L15.73 23.41L15.71 23.31L15.1 22.99V22.06H17.24V21.15L17.25 21.14ZM17.25 36.82V37.28C16.08 36.31 15.03 35.22 14.12 34.01H14.62C15.41 35.04 16.28 35.99 17.25 36.82ZM17.25 39.42C15.67 38.13 14.02 36.51 12.95 34.88C12.75 34.56 12.57 34.27 12.39 34.01H11.5C12.04 34.76 14.59 38.21 17.26 40.51V39.42H17.25ZM6.71 27.18C6.25 27.16 6.02 27.42 5.8 28.03C5.66 28.45 5.46 28.58 4.95 28.59C4.67 28.59 4.34 28.63 4.16 28.55C3.72 28.31 3.54 27.78 2.79 27.58C1.88 27.34 0 27.66 0 29.24C0 30.82 1.88 31.16 2.79 30.92C3.54 30.72 3.72 30.19 4.16 29.95C4.34 29.87 4.67 29.91 4.95 29.91C5.45 29.93 5.66 30.05 5.8 30.48C6.02 31.09 6.25 31.35 6.71 31.33V27.19V27.18Z" fill="#005B35"/>
</g>
<defs>
<clipPath id="clip0_139_371">
<rect width="57.5" height="44.77" fill="white"/>
</clipPath>
</defs>
</svg>
