<svg width="40" height="41" viewBox="0 0 40 41" fill="none" xmlns="http://www.w3.org/2000/svg">
<g clip-path="url(#clip0_48_534)">
<path d="M40 32.4726C40 36.8903 36.4196 40.4723 31.9987 40.4723H7.99968C3.58204 40.4723 0 36.8903 0 32.4726V8.47198C0 4.05275 3.58204 0.470703 7.99968 0.470703H31.9987C36.4196 0.470703 40 4.05275 40 8.47198V32.4726Z" fill="#2FB44A"/>
<path d="M29.1216 8.8042H10.8786C8.5525 8.8042 6.66675 10.7721 6.66675 13.2007V23.6305C6.66675 26.059 8.5525 28.027 10.8786 28.027H17.1628L19.3072 31.6588C19.3072 31.6588 19.3309 31.7015 19.3769 31.7623C19.5025 31.9862 19.7339 32.1375 20.0001 32.1375C20.2663 32.1375 20.4952 31.9874 20.6208 31.7662C20.6743 31.7002 20.6929 31.6575 20.6929 31.6575L22.8374 28.0257H29.1216C31.4477 28.0257 33.3334 26.0577 33.3334 23.6292V13.2007C33.3334 10.7721 31.4477 8.8042 29.1216 8.8042Z" fill="white"/>
<path d="M12.2605 16.1586C12.2605 16.1586 11.5006 16.1586 10.8108 16.8302V14.127H9.10522V21.23H10.8277V20.674C10.8277 20.674 11.2343 21.4079 12.2592 21.4079C12.2592 21.4079 14.6624 21.3196 14.6624 18.7566C14.6624 18.7566 14.5741 16.1586 12.2592 16.1586H12.2605ZM11.8851 19.9076C11.2798 19.9076 10.7887 19.4165 10.7887 18.8112C10.7887 18.2059 11.2798 17.7161 11.8851 17.7161C12.4905 17.7161 12.9802 18.2072 12.9802 18.8112C12.9802 19.4152 12.4892 19.9076 11.8851 19.9076Z" fill="#F47628"/>
<path d="M15.2109 13.9668V15.61C15.2109 15.61 15.989 15.575 15.989 17.0234V21.2283H17.6323V16.635C17.6323 16.635 17.7024 13.9668 15.2109 13.9668Z" fill="#F47628"/>
<path d="M21.6514 16.1802C21.6514 16.1802 18.8338 16.1802 18.8338 18.8107C18.8338 18.8107 18.7429 21.4061 21.6514 21.4061C21.6514 21.4061 24.5339 21.4022 24.5339 18.8107C24.5339 18.8107 24.6274 16.1802 21.6514 16.1802ZM21.6514 19.907C21.046 19.907 20.555 19.416 20.555 18.8107C20.555 18.2053 21.046 17.7156 21.6514 17.7156C22.2567 17.7156 22.7464 18.2066 22.7464 18.8107C22.7464 19.4147 22.2554 19.907 21.6514 19.907Z" fill="#F47628"/>
<path d="M29.2375 16.3534V16.8302C29.2375 16.8302 28.7478 16.1807 27.8073 16.1807C27.8073 16.1807 25.395 16.0793 25.395 18.793C25.395 18.793 25.3678 21.3222 27.741 21.3222C27.741 21.3222 28.7088 21.3611 29.2375 20.6727V21.0701C29.2375 21.0701 29.357 22.3159 28.1515 22.3159H27.741V23.8267H28.4035C28.4035 23.8267 30.8951 23.8539 30.8951 21.1637V16.3534H29.2388H29.2375ZM28.2178 19.9075C27.6124 19.9075 27.1227 19.4165 27.1227 18.8112C27.1227 18.2058 27.6124 17.7161 28.2178 17.7161C28.8231 17.7161 29.3129 18.2071 29.3129 18.8112C29.3129 19.4152 28.8218 19.9075 28.2178 19.9075Z" fill="#F47628"/>
</g>
<defs>
<clipPath id="clip0_48_534">
<rect width="40" height="40" fill="white" transform="translate(0 0.470703)"/>
</clipPath>
</defs>
</svg>
