<svg width="40" height="41" viewBox="0 0 40 41" fill="none" xmlns="http://www.w3.org/2000/svg">
<g clip-path="url(#clip0_48_520)">
<path d="M32.682 0.470703H7.318C3.27638 0.470703 0 3.74708 0 7.78871V33.1527C0 37.1943 3.27638 40.4707 7.318 40.4707H32.682C36.7236 40.4707 40 37.1943 40 33.1527V7.78871C40 3.74708 36.7236 0.470703 32.682 0.470703Z" fill="#FFDA00"/>
<path d="M20.0011 6.70068C12.81 6.70068 6.98022 12.093 6.98022 18.745C6.98022 23.6569 9.03676 26.0025 11.855 28.141L11.8687 28.1469V33.9122C11.8687 34.1837 12.1792 34.34 12.3979 34.1779L17.3352 30.5101L17.4407 30.5569C18.2687 30.7093 19.1242 30.7894 19.9991 30.7894C27.1902 30.7894 33.02 25.397 33.02 18.745C33.02 12.093 27.1902 6.70068 19.9991 6.70068M15.6361 21.7956C16.9133 21.7956 18.0051 21.032 18.3332 19.8504H20.2218C19.7608 22.1218 17.9914 23.612 15.638 23.612C12.9018 23.612 10.732 21.5711 10.732 18.7313C10.732 15.8916 12.9018 13.8507 15.638 13.8507C18.0168 13.8507 19.796 15.3702 20.2354 17.6806H18.3527C18.0656 16.4248 16.9368 15.6417 15.638 15.6417C13.7983 15.6417 12.5737 16.9541 12.5737 18.7333C12.5737 20.5125 13.9662 21.7996 15.638 21.7996M28.0749 23.4245H26.3445V19.5223C26.3445 18.6239 25.8211 18.1415 25.0165 18.1415C24.1181 18.1415 23.5419 18.6903 23.5419 19.8036V23.4245H21.8115V13.88H23.5419V17.4697C23.9579 16.8389 24.6278 16.5303 25.5399 16.5303C26.2781 16.5303 26.8816 16.7725 27.3503 17.2685C27.8327 17.7646 28.0749 18.4345 28.0749 19.3075V23.4245Z" fill="#231F20"/>
</g>
<defs>
<clipPath id="clip0_48_520">
<rect width="40" height="40" fill="white" transform="translate(0 0.470703)"/>
</clipPath>
</defs>
</svg>
