<svg width="55" height="60" viewBox="0 0 55 60" fill="none" xmlns="http://www.w3.org/2000/svg">
<g clip-path="url(#clip0_51_336)">
<path d="M33.1602 19.7871L27.6215 23.8868L22.0828 19.7871C21.8305 19.5339 21.422 19.5339 21.1697 19.7871C20.9174 20.0403 20.9174 20.4503 21.1697 20.7035L26.9607 25.1046V29.4454C26.9607 29.8072 27.249 30.0966 27.6095 30.0966C27.9699 30.0966 28.2582 29.8072 28.2582 29.4454V25.1167L34.0733 20.7035C34.3256 20.4503 34.3256 20.0403 34.0733 19.7871C33.8209 19.5339 33.4125 19.5339 33.1602 19.7871Z" fill="#0054A6"/>
<path d="M9.89975 0C7.80923 0 5.85087 0.819936 4.37308 2.30305C2.90732 3.78617 2.09033 5.75161 2.09033 7.84968C2.09033 12.1664 5.59856 15.6752 9.89975 15.6752C11.9783 15.6752 13.9486 14.8674 15.4264 13.3842C16.8922 11.9011 17.7092 9.93569 17.7092 7.83762C17.7092 3.5209 14.2009 0 9.89975 0ZM13.9606 11.9132C12.8673 13.0105 11.4256 13.6013 9.89975 13.6013C8.37391 13.6013 6.88411 12.9622 5.83885 11.9132C4.80561 10.8762 4.15682 9.44132 4.15682 7.84968C4.15682 6.25804 4.75755 4.85932 5.83885 3.77412C6.92016 2.67685 8.36189 2.07396 9.89975 2.07396C13.0596 2.07396 15.6427 4.6664 15.6427 7.83762C15.6427 9.38103 15.0419 10.828 13.9606 11.9132Z" fill="#0054A6"/>
<path d="M15.6431 7.83764C15.6431 9.38105 15.0423 10.828 13.961 11.9132C12.8677 13.0105 11.426 13.6013 9.90015 13.6013C8.37431 13.6013 6.88451 12.9622 5.83925 11.9132C4.80601 10.8762 4.15723 9.44134 4.15723 7.8497C4.15723 6.25806 4.75795 4.85934 5.83925 3.77414C6.92056 2.67687 8.3623 2.07397 9.90015 2.07397C13.06 2.07397 15.6431 4.66642 15.6431 7.83764Z" fill="white"/>
<path d="M15.8231 15.9647C15.4506 15.6271 14.8859 15.603 14.4895 15.9044C14.4414 15.9406 9.86389 19.4012 5.59875 15.9165C5.21429 15.5909 4.6496 15.603 4.26514 15.9406C4.09694 16.0853 0.10813 19.6424 0 26.6239C0 26.9012 0.10813 27.1665 0.300362 27.3715C0.492594 27.5644 0.756912 27.6729 1.03325 27.6729H18.7546C19.3193 27.6729 19.7758 27.2268 19.7879 26.6721C19.7999 26.3948 19.9681 19.775 15.8231 15.9647ZM2.11455 25.599C2.43894 21.644 4.15701 19.1601 5.0581 18.0869C8.7946 20.5708 12.7954 19.4012 14.9941 18.0628C17.0846 20.4503 17.5772 23.9109 17.6973 25.599H2.11455Z" fill="#0054A6"/>
<path d="M17.6975 25.5989H2.11475C2.43914 21.6439 4.15721 19.16 5.05829 18.0869C8.7948 20.5708 12.7956 19.4012 14.9943 18.0627C17.0848 20.4502 17.5774 23.9108 17.6975 25.5989Z" fill="#FFCB05"/>
<path d="M44.8621 0C42.7716 0 40.8133 0.819936 39.3355 2.30305C37.8577 3.78617 37.0527 5.75161 37.0527 7.84968C37.0527 12.1664 40.5489 15.6752 44.8621 15.6752C46.9407 15.6752 48.899 14.8674 50.3768 13.3842C51.8546 11.9011 52.6716 9.93569 52.6716 7.83762C52.6716 3.5209 49.1633 0 44.8621 0ZM48.911 11.9132C47.8297 13.0105 46.388 13.6013 44.8621 13.6013C43.3363 13.6013 41.8345 12.9622 40.8013 11.9132C39.768 10.8762 39.1192 9.44132 39.1192 7.84968C39.1192 6.25804 39.7079 4.85932 40.8013 3.77412C41.8826 2.67685 43.3243 2.07396 44.8621 2.07396C48.022 2.07396 50.5931 4.6664 50.6051 7.83762C50.6051 9.38103 50.0043 10.828 48.911 11.9132Z" fill="#0054A6"/>
<path d="M50.605 7.83764C50.605 9.38105 50.0043 10.828 48.9109 11.9132C47.8296 13.0105 46.3879 13.6013 44.8621 13.6013C43.3362 13.6013 41.8344 12.9622 40.8012 11.9132C39.7679 10.8762 39.1191 9.44134 39.1191 7.8497C39.1191 6.25806 39.7078 4.85934 40.8012 3.77414C41.8825 2.67687 43.3242 2.07397 44.8621 2.07397C48.0219 2.07397 50.593 4.66642 50.605 7.83764Z" fill="white"/>
<path d="M50.773 15.9647C50.4125 15.6271 49.8479 15.603 49.4514 15.9044C49.4033 15.9406 44.8138 19.4012 40.5607 15.9165C40.1642 15.5909 39.5995 15.603 39.2271 15.9406C39.0589 16.0853 35.058 19.6424 34.9619 26.6239C34.9619 26.9012 35.07 27.1665 35.2623 27.3715C35.4545 27.5644 35.7188 27.6729 35.9952 27.6729H53.7165C54.2692 27.6729 54.7257 27.2268 54.7498 26.6721C54.7618 26.3948 54.93 19.775 50.773 15.9647ZM37.0765 25.599C37.4009 21.644 39.1069 19.1601 40.02 18.0869C43.7445 20.5708 47.7453 19.4012 49.944 18.0628C52.0465 20.4503 52.5391 23.9109 52.6472 25.599H37.0765Z" fill="#0054A6"/>
<path d="M52.6474 25.5989H37.0767C37.4011 21.6439 39.1071 19.16 40.0202 18.0869C43.7447 20.5708 47.7455 19.4012 49.9442 18.0627C52.0467 20.4502 52.5393 23.9108 52.6474 25.5989Z" fill="#FFCB05"/>
<path d="M27.6214 32.3271C25.5309 32.3271 23.5725 33.1471 22.0948 34.6302C20.617 36.1013 19.812 38.0788 19.812 40.1648C19.812 44.4815 23.3202 48.0024 27.6214 48.0024C29.6999 48.0024 31.6583 47.1825 33.1361 45.6993C34.6139 44.2162 35.4308 42.2508 35.4308 40.1648C35.4308 35.836 31.9226 32.3271 27.6214 32.3271ZM31.6823 44.2403C30.589 45.3255 29.1473 45.9284 27.6214 45.9284C26.0956 45.9284 24.6058 45.2773 23.5605 44.2403C22.5153 43.1913 21.8785 41.7564 21.8785 40.1648C21.8785 38.5731 22.4792 37.1865 23.5605 36.0892C24.6418 35.004 26.0836 34.4011 27.6214 34.4011C30.7812 34.4011 33.3644 36.9815 33.3644 40.1648C33.3644 41.6961 32.7636 43.1431 31.6823 44.2403Z" fill="#0054A6"/>
<path d="M33.3643 40.1648C33.3643 41.6961 32.7635 43.1431 31.6822 44.2403C30.5889 45.3256 29.1472 45.9285 27.6213 45.9285C26.0955 45.9285 24.6057 45.2773 23.5604 44.2403C22.5152 43.1913 21.8784 41.7564 21.8784 40.1648C21.8784 38.5732 22.4791 37.1865 23.5604 36.0892C24.6418 35.004 26.0835 34.4011 27.6213 34.4011C30.7812 34.4011 33.3643 36.9815 33.3643 40.1648Z" fill="white"/>
<path d="M33.5443 48.2797C33.1718 47.9421 32.6071 47.918 32.2107 48.2194C32.1626 48.2556 27.5851 51.7162 23.3199 48.2315C22.9235 47.918 22.3708 47.918 21.9863 48.2556C21.8181 48.4003 17.8293 51.9573 17.7212 58.9509C17.7212 59.2282 17.8293 59.4935 18.0216 59.6864C18.2138 59.8914 18.4781 60 18.7544 60H36.4758C37.0405 60 37.497 59.5538 37.509 58.9871C37.5211 58.7098 37.6893 52.09 33.5443 48.2797ZM19.8357 57.926C20.1601 53.971 21.8662 51.475 22.7793 50.4139C26.5038 52.8979 30.5046 51.7162 32.7033 50.3898C34.8058 52.7773 35.2984 56.2379 35.4185 57.926H19.8357Z" fill="#0054A6"/>
<path d="M35.4187 57.9261H19.8359C20.1603 53.9711 21.8664 51.4751 22.7795 50.414C26.504 52.8979 30.5048 51.7163 32.7034 50.3899C34.806 52.7774 35.2986 56.238 35.4187 57.9261Z" fill="#FFCB05"/>
</g>
<defs>
<clipPath id="clip0_51_336">
<rect width="54.75" height="60" fill="white"/>
</clipPath>
</defs>
</svg>
