<svg width="60" height="60" viewBox="0 0 60 60" fill="none" xmlns="http://www.w3.org/2000/svg">
<g clip-path="url(#clip0_51_351)">
<path d="M20.625 39.375H3.75V3.75H52.5V26.25H56.25V3.75C56.25 1.66875 54.5625 0 52.5 0H3.75C1.6875 0 0 1.6875 0 3.75V39.3562C0 41.4375 1.6875 43.1062 3.75 43.1062H20.625V39.3562V39.375Z" fill="#0054A6"/>
<path d="M37.5 5.625H7.5C6.46875 5.625 5.625 6.46875 5.625 7.5V31.875C5.625 32.9062 6.46875 33.75 7.5 33.75C8.53125 33.75 9.375 32.9062 9.375 31.875V9.375H37.5C38.5312 9.375 39.375 8.53125 39.375 7.5C39.375 6.46875 38.5312 5.625 37.5 5.625Z" fill="#0054A6"/>
<path d="M46.875 5.625H43.125C42.0938 5.625 41.25 6.46875 41.25 7.5C41.25 8.53125 42.0938 9.375 43.125 9.375H46.875C47.9062 9.375 48.75 8.53125 48.75 7.5C48.75 6.46875 47.9062 5.625 46.875 5.625Z" fill="#0054A6"/>
<path d="M20.625 45H18.75V48.75H13.125C12.0938 48.75 11.25 49.5938 11.25 50.625C11.25 51.6562 12.0938 52.5 13.125 52.5H24.375L20.625 45Z" fill="#0054A6"/>
<path d="M59.4562 56.8125L51.2062 48.5625C53.175 46.0312 54.375 42.8438 54.375 39.375C54.375 31.1063 47.6437 24.375 39.375 24.375C31.1063 24.375 24.375 31.1063 24.375 39.375C24.375 47.6437 31.1063 54.375 39.375 54.375C42.825 54.375 46.0125 53.1937 48.5625 51.225L56.7938 59.4562C57.1688 59.8312 57.6375 60 58.125 60C58.6125 60 59.0812 59.8312 59.4562 59.4562C60.1875 58.725 60.1875 57.5437 59.4562 56.8125ZM39.375 50.625C33.1687 50.625 28.125 45.5812 28.125 39.375C28.125 33.1687 33.1687 28.125 39.375 28.125C45.5812 28.125 50.625 33.1875 50.625 39.375C50.625 45.5625 45.5812 50.625 39.375 50.625Z" fill="#0054A6"/>
<path d="M39.375 28.125C33.1688 28.125 28.125 33.1875 28.125 39.375C28.125 45.5625 33.1688 50.625 39.375 50.625C45.5812 50.625 50.625 45.5812 50.625 39.375C50.625 33.1688 45.5812 28.125 39.375 28.125ZM39.375 33.75C36.2625 33.75 33.75 36.2812 33.75 39.375C33.75 40.425 32.9062 41.25 31.875 41.25C30.8438 41.25 30 40.425 30 39.375C30 34.2188 34.2 30 39.375 30C40.4062 30 41.25 30.8438 41.25 31.875C41.25 32.9062 40.4062 33.75 39.375 33.75Z" fill="#FFCB05"/>
<path d="M41.25 31.875C41.25 32.925 40.4062 33.75 39.375 33.75C36.2625 33.75 33.75 36.2812 33.75 39.375C33.75 40.425 32.9062 41.25 31.875 41.25C30.8438 41.25 30 40.425 30 39.375C30 34.2188 34.2 30 39.375 30C40.4062 30 41.25 30.8438 41.25 31.875Z" fill="#0054A6"/>
</g>
<defs>
<clipPath id="clip0_51_351">
<rect width="60" height="60" fill="white"/>
</clipPath>
</defs>
</svg>
