<svg width="60" height="61" viewBox="0 0 60 61" fill="none" xmlns="http://www.w3.org/2000/svg">
<g clip-path="url(#clip0_51_610)">
<path d="M59.945 36.5662V36.5597L58.9318 24.7596C58.6736 21.6593 56.6213 18.9221 53.7043 17.7913L38.6898 12.002C35.7566 10.8294 32.4716 11.4109 30.116 13.512L21.239 21.412C20.8905 21.7236 20.571 22.0513 20.2645 22.3693C20.1096 22.53 19.9515 22.6906 19.7933 22.848C19.4836 23.1532 19.3513 23.5966 19.4384 24.0207C19.5287 24.4447 19.8256 24.7981 20.2322 24.9555L58.238 39.7949C58.3897 39.856 58.551 39.8849 58.7091 39.8849C58.964 39.8849 59.219 39.8078 59.4352 39.66C59.7901 39.4222 59.9999 39.0239 59.9999 38.5998C59.9999 37.9412 59.9999 37.2601 59.945 36.5662ZM23.0137 23.2817L31.8392 15.4267C33.459 13.981 35.7146 13.5827 37.7443 14.3923L52.7717 20.1879C54.7724 20.9622 56.1793 22.8416 56.36 24.9748L57.3635 36.6947L23.0137 23.2817Z" fill="#0054A6"/>
<path d="M57.3635 36.6946L23.0137 23.2817L31.8391 15.4267C33.459 13.981 35.7145 13.5826 37.7442 14.3922L52.7717 20.1879C54.7723 20.9621 56.1792 22.8416 56.3599 24.9748L57.3635 36.6946Z" fill="white"/>
<path d="M26.5408 34.5903C24.6757 33.8578 22.5589 34.7735 21.8264 36.6272C21.0907 38.4841 22.0103 40.5916 23.869 41.3209C24.2981 41.488 24.7467 41.5747 25.2081 41.5747C25.96 41.5747 26.6666 41.3498 27.2539 40.9514C27.8444 40.5531 28.3123 39.978 28.5866 39.2841C29.3191 37.4303 28.4027 35.326 26.5408 34.5903ZM26.1858 38.346C25.9826 38.8632 25.3501 39.1395 24.8209 38.9307C24.2788 38.7186 24.0142 38.1082 24.2271 37.5717C24.3917 37.1573 24.7886 36.9067 25.2081 36.9067C25.334 36.9067 25.4663 36.9292 25.5889 36.9806C26.0051 37.1444 26.2601 37.5428 26.2601 37.9636C26.2601 38.0889 26.2342 38.2207 26.1858 38.346ZM46.9603 42.5738C46.9345 42.561 46.9087 42.5514 46.8828 42.5417C45.0113 41.8735 42.9461 42.8469 42.2717 44.7135C41.636 46.4901 42.4976 48.4659 44.2368 49.2144C44.2626 49.2241 44.2885 49.2369 44.3143 49.2434C44.7112 49.3879 45.1242 49.4586 45.534 49.4586C46.06 49.4586 46.5827 49.343 47.07 49.1116C47.9412 48.7036 48.5995 47.9808 48.9222 47.078C48.9222 47.078 48.9233 47.077 48.9254 47.0748C49.5611 45.2982 48.6996 43.3224 46.9603 42.5738ZM44.7047 45.5777C44.8886 45.0605 45.4534 44.7874 45.9729 44.948C46.4408 45.1729 46.6699 45.7191 46.4924 46.2106C46.402 46.4676 46.2149 46.6732 45.9664 46.7889C45.7341 46.8981 45.4727 46.9174 45.2242 46.8403C44.7563 46.6154 44.5272 46.0692 44.7047 45.5777ZM46.9603 42.5738C46.9345 42.561 46.9087 42.5514 46.8828 42.5417C45.0113 41.8735 42.9461 42.8469 42.2717 44.7135C41.636 46.4901 42.4976 48.4659 44.2368 49.2144C44.2626 49.2241 44.2885 49.2369 44.3143 49.2434C44.7112 49.3879 45.1242 49.4586 45.534 49.4586C46.06 49.4586 46.5827 49.343 47.07 49.1116C47.9412 48.7036 48.5995 47.9808 48.9222 47.078C48.9222 47.078 48.9233 47.077 48.9254 47.0748C49.5611 45.2982 48.6996 43.3224 46.9603 42.5738ZM44.7047 45.5777C44.8886 45.0605 45.4534 44.7874 45.9729 44.948C46.4408 45.1729 46.6699 45.7191 46.4924 46.2106C46.402 46.4676 46.2149 46.6732 45.9664 46.7889C45.7341 46.8981 45.4727 46.9174 45.2242 46.8403C44.7563 46.6154 44.5272 46.0692 44.7047 45.5777ZM26.5408 34.5903C24.6757 33.8578 22.5589 34.7735 21.8264 36.6272C21.0907 38.4841 22.0103 40.5916 23.869 41.3209C24.2981 41.488 24.7467 41.5747 25.2081 41.5747C25.96 41.5747 26.6666 41.3498 27.2539 40.9514C27.8444 40.5531 28.3123 39.978 28.5866 39.2841C29.3191 37.4303 28.4027 35.326 26.5408 34.5903ZM26.1858 38.346C25.9826 38.8632 25.3501 39.1395 24.8209 38.9307C24.2788 38.7186 24.0142 38.1082 24.2271 37.5717C24.3917 37.1573 24.7886 36.9067 25.2081 36.9067C25.334 36.9067 25.4663 36.9292 25.5889 36.9806C26.0051 37.1444 26.2601 37.5428 26.2601 37.9636C26.2601 38.0889 26.2342 38.2207 26.1858 38.346ZM58.8577 42.259L18.0865 26.3209C17.5282 26.1024 16.8893 26.2952 16.5505 26.7899C15.3501 28.5344 14.3433 30.4106 13.5527 32.3704L10.6131 39.7081C10.4872 40.0262 10.4937 40.3796 10.6292 40.6944C10.7647 41.0093 11.0229 41.2534 11.3423 41.3787L14.4724 42.6028L13.2268 45.7255C12.9655 46.3873 13.2881 47.1326 13.9496 47.3961L24.7725 51.6786C25.0919 51.8039 25.4469 51.7974 25.7599 51.6625C26.0761 51.5276 26.3246 51.2738 26.4504 50.9589L27.7154 47.788L37.0184 51.428L35.7954 54.4929C35.6695 54.8109 35.676 55.1643 35.8115 55.4792C35.9471 55.7908 36.202 56.0382 36.5182 56.1635L47.3411 60.4396C47.4992 60.5006 47.6605 60.5295 47.8186 60.5295C48.3317 60.5295 48.8157 60.2243 49.019 59.7199L50.2613 56.61L53.4011 57.8373C54.0626 58.0975 54.8112 57.773 55.0726 57.1144L57.9864 49.7895C58.7673 47.8202 59.332 45.7544 59.6612 43.6533C59.7547 43.059 59.4224 42.4775 58.8577 42.259ZM55.5856 48.845L53.1461 54.978L50.0097 53.7508C49.3514 53.4905 48.6028 53.8118 48.3382 54.4704L47.0958 57.5771L38.6705 54.2487L39.8967 51.1806C40.0226 50.8626 40.0161 50.5059 39.8806 50.1943C39.7451 49.8795 39.4869 49.6353 39.1674 49.51L27.4604 44.9287C26.7989 44.6685 26.0535 44.9898 25.7889 45.6484L24.5272 48.8129L16.1019 45.4813L17.3507 42.349C17.4766 42.0341 17.4701 41.6775 17.3346 41.3659C17.1958 41.051 16.9409 40.8037 16.6215 40.6816L13.4947 39.4575L15.9503 33.3245C16.544 31.8563 17.2701 30.4363 18.1187 29.0934L56.9312 44.2669C56.6215 45.8315 56.1697 47.3672 55.5856 48.845ZM44.2368 49.2144C44.2626 49.2241 44.2885 49.2369 44.3143 49.2434C44.7112 49.3879 45.1242 49.4586 45.534 49.4586C46.06 49.4586 46.5827 49.343 47.07 49.1116C47.9412 48.7036 48.5995 47.9808 48.9222 47.078C48.9222 47.078 48.9233 47.077 48.9254 47.0748C49.5611 45.2982 48.6996 43.3224 46.9603 42.5738C46.9345 42.561 46.9087 42.5514 46.8828 42.5417C45.0113 41.8735 42.9461 42.8469 42.2717 44.7135C41.636 46.4901 42.4976 48.4659 44.2368 49.2144ZM46.4924 46.2106C46.402 46.4676 46.2149 46.6732 45.9664 46.7889C45.7341 46.8981 45.4727 46.9174 45.2242 46.8403C44.7563 46.6154 44.5272 46.0692 44.7047 45.5777C44.8886 45.0605 45.4534 44.7874 45.9729 44.948C46.4408 45.1729 46.6699 45.7191 46.4924 46.2106ZM23.869 41.3209C24.2981 41.488 24.7467 41.5747 25.2081 41.5747C25.96 41.5747 26.6666 41.3498 27.2539 40.9514C27.8444 40.5531 28.3123 39.978 28.5866 39.2841C29.3191 37.4303 28.4027 35.326 26.5408 34.5903C24.6757 33.8578 22.5589 34.7735 21.8264 36.6272C21.0907 38.4841 22.0103 40.5916 23.869 41.3209ZM25.5889 36.9806C26.0051 37.1444 26.2601 37.5428 26.2601 37.9636C26.2601 38.0889 26.2342 38.2207 26.1858 38.346C25.9826 38.8632 25.3501 39.1395 24.8209 38.9307C24.2788 38.7186 24.0142 38.1082 24.2271 37.5717C24.3917 37.1573 24.7886 36.9067 25.2081 36.9067C25.334 36.9067 25.4663 36.9292 25.5889 36.9806Z" fill="#0054A6"/>
<path d="M18.1187 29.0935C17.27 30.4364 16.544 31.8564 15.9503 33.3246L13.4946 39.4576L16.6214 40.6816C16.9409 40.8037 17.1958 41.0511 17.3346 41.3659C17.4701 41.6776 17.4766 42.0342 17.3507 42.349L16.1019 45.4814L24.5272 48.8129L25.7889 45.6484C26.0535 44.9898 26.7989 44.6686 27.4604 44.9288L39.1674 49.5101C39.4869 49.6354 39.745 49.8795 39.8806 50.1944C40.0161 50.506 40.0225 50.8626 39.8967 51.1807L38.6705 54.2488L47.0958 57.5771L48.3381 54.4705C48.6027 53.8119 49.3514 53.4906 50.0096 53.7508L53.1461 54.9781L55.5856 48.8451C56.1697 47.3672 56.6214 45.8316 56.9312 44.267L18.1187 29.0935ZM28.5866 39.2841C28.3123 39.9781 27.8444 40.5531 27.2539 40.9515C26.6666 41.3499 25.9599 41.5748 25.2081 41.5748C24.7466 41.5748 24.2981 41.488 23.8689 41.321C22.0103 40.5917 21.0906 38.4842 21.8263 36.6272C22.5588 34.7735 24.6757 33.8579 26.5408 34.5904C28.4027 35.3261 29.3191 37.4304 28.5866 39.2841ZM48.9254 47.0749C48.9254 47.0749 48.9254 47.0781 48.9222 47.0781C48.5995 47.9808 47.9412 48.7037 47.07 49.1117C46.5827 49.343 46.06 49.4587 45.534 49.4587C45.1242 49.4587 44.7112 49.388 44.3142 49.2434C44.2884 49.237 44.2626 49.2242 44.2368 49.2145C42.4975 48.466 41.636 46.4902 42.2717 44.7136C42.9461 42.847 45.0112 41.8735 46.8828 42.5418C46.9086 42.5514 46.9344 42.5611 46.9603 42.5739C48.6995 43.3225 49.5611 45.2983 48.9254 47.0749Z" fill="white"/>
<path d="M20.3356 8.06649L10.9003 0.674112V11.382H0L7.55405 20.7823L0 30.1794H12.2814L12.6331 29.4533C14.4111 25.8037 16.8441 22.5782 19.858 19.8667L29.7806 11.0479V0.529541L20.3356 8.06649ZM27.1991 9.89771L18.1349 17.9551C15.0662 20.7116 12.5589 23.9564 10.6744 27.6092H5.37593L10.8616 20.7823L5.3727 13.9521H13.4818V5.96861L20.3485 11.3498L27.1991 5.88186V9.89771Z" fill="#0054A6"/>
<path d="M27.199 5.88184V9.89769L18.1347 17.9551C15.066 20.7116 12.5587 23.9564 10.6743 27.6092H5.37579L10.8614 20.7822L5.37256 13.9521H13.4816V5.96858L20.3484 11.3498L27.199 5.88184Z" fill="white"/>
<path d="M47.7088 46.6444C47.2764 47.8427 45.9534 48.466 44.7498 48.0355C43.6301 47.5536 43.0783 46.2878 43.4881 45.1441C43.9205 43.9458 45.2435 43.3225 46.4471 43.753C47.5668 44.2349 48.1186 45.5007 47.7088 46.6444Z" fill="#FFCB05"/>
<path d="M27.3861 38.815C27.0247 39.7306 26.1406 40.2896 25.208 40.2896C24.9208 40.2896 24.6304 40.2382 24.3464 40.1258C23.1428 39.6535 22.5523 38.2978 23.0267 37.0994C23.501 35.9011 24.8627 35.3132 26.0663 35.7855C27.27 36.2609 27.8605 37.6135 27.3861 38.815Z" fill="#FFCB05"/>
</g>
<defs>
<clipPath id="clip0_51_610">
<rect width="60" height="60" fill="white" transform="translate(0 0.529541)"/>
</clipPath>
</defs>
</svg>
