<svg width="60" height="60" viewBox="0 0 60 60" fill="none" xmlns="http://www.w3.org/2000/svg">
<g clip-path="url(#clip0_51_443)">
<path d="M1.875 0C0.84375 0 0 0.84375 0 1.875V15C0 16.0312 0.84375 16.875 1.875 16.875C2.90625 16.875 3.75 16.0312 3.75 15V1.875C3.75 0.84375 2.90625 0 1.875 0ZM18.75 0H9.375C8.34375 0 7.5 0.84375 7.5 1.875V15C7.5 16.0312 8.34375 16.875 9.375 16.875H18.75C19.7812 16.875 20.625 16.0312 20.625 15V1.875C20.625 0.84375 19.7812 0 18.75 0ZM16.875 13.125H11.25V3.75H16.875V13.125ZM26.25 0C25.2188 0 24.375 0.84375 24.375 1.875V15C24.375 16.0312 25.2188 16.875 26.25 16.875C27.2812 16.875 28.125 16.0312 28.125 15V1.875C28.125 0.84375 27.2812 0 26.25 0ZM50.625 0C49.5938 0 48.75 0.84375 48.75 1.875V15C48.75 16.0312 49.5938 16.875 50.625 16.875C51.6562 16.875 52.5 16.0312 52.5 15V1.875C52.5 0.84375 51.6562 0 50.625 0ZM43.125 0H33.75C32.7188 0 31.875 0.84375 31.875 1.875V15C31.875 16.0312 32.7188 16.875 33.75 16.875H43.125C44.1562 16.875 45 16.0312 45 15V1.875C45 0.84375 44.1562 0 43.125 0ZM41.25 13.125H35.625V3.75H41.25V13.125ZM1.875 41.25C0.84375 41.25 0 42.0938 0 43.125V56.25C0 57.2812 0.84375 58.125 1.875 58.125C2.90625 58.125 3.75 57.2812 3.75 56.25V43.125C3.75 42.0938 2.90625 41.25 1.875 41.25ZM18.75 41.25H9.375C8.34375 41.25 7.5 42.0938 7.5 43.125V56.25C7.5 57.2812 8.34375 58.125 9.375 58.125H18.75C19.7812 58.125 20.625 57.2812 20.625 56.25V43.125C20.625 42.0938 19.7812 41.25 18.75 41.25ZM16.875 54.375H11.25V45H16.875V54.375ZM24.375 52.5V56.25C24.375 57.2812 25.2188 58.125 26.25 58.125C27.2812 58.125 28.125 57.2812 28.125 56.25V52.5H24.375ZM18.75 20.625C17.7188 20.625 16.875 21.4688 16.875 22.5V35.625C16.875 36.6562 17.7188 37.5 18.75 37.5C19.7812 37.5 20.625 36.6562 20.625 35.625V22.5C20.625 21.4688 19.7812 20.625 18.75 20.625ZM11.25 20.625H1.875C0.84375 20.625 0 21.4688 0 22.5V35.625C0 36.6562 0.84375 37.5 1.875 37.5H11.25C12.2812 37.5 13.125 36.6562 13.125 35.625V22.5C13.125 21.4688 12.2812 20.625 11.25 20.625ZM9.375 33.75H3.75V24.375H9.375V33.75ZM26.25 20.625C25.2188 20.625 24.375 21.4688 24.375 22.5V26.25H28.125V22.5C28.125 21.4688 27.2812 20.625 26.25 20.625ZM50.625 20.625C49.5938 20.625 48.75 21.4688 48.75 22.5V24.375H52.5V22.5C52.5 21.4688 51.6562 20.625 50.625 20.625ZM39.375 30C34.2 30 30 34.2 30 39.375C30 40.4062 30.8438 41.25 31.875 41.25C32.9062 41.25 33.75 40.4062 33.75 39.375C33.75 36.2812 36.2625 33.75 39.375 33.75C40.4062 33.75 41.25 32.9062 41.25 31.875C41.25 30.8438 40.4062 30 39.375 30ZM39.375 30C34.2 30 30 34.2 30 39.375C30 40.4062 30.8438 41.25 31.875 41.25C32.9062 41.25 33.75 40.4062 33.75 39.375C33.75 36.2812 36.2625 33.75 39.375 33.75C40.4062 33.75 41.25 32.9062 41.25 31.875C41.25 30.8438 40.4062 30 39.375 30ZM39.375 30C34.2 30 30 34.2 30 39.375C30 40.4062 30.8438 41.25 31.875 41.25C32.9062 41.25 33.75 40.4062 33.75 39.375C33.75 36.2812 36.2625 33.75 39.375 33.75C40.4062 33.75 41.25 32.9062 41.25 31.875C41.25 30.8438 40.4062 30 39.375 30ZM39.375 30C34.2 30 30 34.2 30 39.375C30 40.4062 30.8438 41.25 31.875 41.25C32.9062 41.25 33.75 40.4062 33.75 39.375C33.75 36.2812 36.2625 33.75 39.375 33.75C40.4062 33.75 41.25 32.9062 41.25 31.875C41.25 30.8438 40.4062 30 39.375 30ZM39.375 30C34.2 30 30 34.2 30 39.375C30 40.4062 30.8438 41.25 31.875 41.25C32.9062 41.25 33.75 40.4062 33.75 39.375C33.75 36.2812 36.2625 33.75 39.375 33.75C40.4062 33.75 41.25 32.9062 41.25 31.875C41.25 30.8438 40.4062 30 39.375 30ZM39.375 30C34.2 30 30 34.2 30 39.375C30 40.4062 30.8438 41.25 31.875 41.25C32.9062 41.25 33.75 40.4062 33.75 39.375C33.75 36.2812 36.2625 33.75 39.375 33.75C40.4062 33.75 41.25 32.9062 41.25 31.875C41.25 30.8438 40.4062 30 39.375 30ZM39.375 30C34.2 30 30 34.2 30 39.375C30 40.4062 30.8438 41.25 31.875 41.25C32.9062 41.25 33.75 40.4062 33.75 39.375C33.75 36.2812 36.2625 33.75 39.375 33.75C40.4062 33.75 41.25 32.9062 41.25 31.875C41.25 30.8438 40.4062 30 39.375 30ZM39.375 30C34.2 30 30 34.2 30 39.375C30 40.4062 30.8438 41.25 31.875 41.25C32.9062 41.25 33.75 40.4062 33.75 39.375C33.75 36.2812 36.2625 33.75 39.375 33.75C40.4062 33.75 41.25 32.9062 41.25 31.875C41.25 30.8438 40.4062 30 39.375 30ZM39.375 30C34.2 30 30 34.2 30 39.375C30 40.4062 30.8438 41.25 31.875 41.25C32.9062 41.25 33.75 40.4062 33.75 39.375C33.75 36.2812 36.2625 33.75 39.375 33.75C40.4062 33.75 41.25 32.9062 41.25 31.875C41.25 30.8438 40.4062 30 39.375 30ZM39.375 30C34.2 30 30 34.2 30 39.375C30 40.4062 30.8438 41.25 31.875 41.25C32.9062 41.25 33.75 40.4062 33.75 39.375C33.75 36.2812 36.2625 33.75 39.375 33.75C40.4062 33.75 41.25 32.9062 41.25 31.875C41.25 30.8438 40.4062 30 39.375 30ZM39.375 30C34.2 30 30 34.2 30 39.375C30 40.4062 30.8438 41.25 31.875 41.25C32.9062 41.25 33.75 40.4062 33.75 39.375C33.75 36.2812 36.2625 33.75 39.375 33.75C40.4062 33.75 41.25 32.9062 41.25 31.875C41.25 30.8438 40.4062 30 39.375 30ZM39.375 30C34.2 30 30 34.2 30 39.375C30 40.4062 30.8438 41.25 31.875 41.25C32.9062 41.25 33.75 40.4062 33.75 39.375C33.75 36.2812 36.2625 33.75 39.375 33.75C40.4062 33.75 41.25 32.9062 41.25 31.875C41.25 30.8438 40.4062 30 39.375 30ZM39.375 30C34.2 30 30 34.2 30 39.375C30 40.4062 30.8438 41.25 31.875 41.25C32.9062 41.25 33.75 40.4062 33.75 39.375C33.75 36.2812 36.2625 33.75 39.375 33.75C40.4062 33.75 41.25 32.9062 41.25 31.875C41.25 30.8438 40.4062 30 39.375 30ZM59.4562 56.7938L51.2062 48.5625C53.175 46.0125 54.375 42.825 54.375 39.375C54.375 31.1063 47.6437 24.375 39.375 24.375C31.1063 24.375 24.375 31.1063 24.375 39.375C24.375 47.6437 31.1063 54.375 39.375 54.375C42.825 54.375 46.0125 53.175 48.5625 51.2062L56.7938 59.4562C57.1688 59.8125 57.6375 60 58.125 60C58.6125 60 59.0812 59.8125 59.4562 59.4562C60.1875 58.725 60.1875 57.525 59.4562 56.7938ZM39.375 50.625C33.1688 50.625 28.125 45.5812 28.125 39.375C28.125 33.1688 33.1688 28.125 39.375 28.125C45.5812 28.125 50.625 33.1688 50.625 39.375C50.625 45.5812 45.5812 50.625 39.375 50.625ZM39.375 30C34.2 30 30 34.2 30 39.375C30 40.4062 30.8438 41.25 31.875 41.25C32.9062 41.25 33.75 40.4062 33.75 39.375C33.75 36.2812 36.2625 33.75 39.375 33.75C40.4062 33.75 41.25 32.9062 41.25 31.875C41.25 30.8438 40.4062 30 39.375 30ZM39.375 30C34.2 30 30 34.2 30 39.375C30 40.4062 30.8438 41.25 31.875 41.25C32.9062 41.25 33.75 40.4062 33.75 39.375C33.75 36.2812 36.2625 33.75 39.375 33.75C40.4062 33.75 41.25 32.9062 41.25 31.875C41.25 30.8438 40.4062 30 39.375 30ZM39.375 30C34.2 30 30 34.2 30 39.375C30 40.4062 30.8438 41.25 31.875 41.25C32.9062 41.25 33.75 40.4062 33.75 39.375C33.75 36.2812 36.2625 33.75 39.375 33.75C40.4062 33.75 41.25 32.9062 41.25 31.875C41.25 30.8438 40.4062 30 39.375 30ZM39.375 30C34.2 30 30 34.2 30 39.375C30 40.4062 30.8438 41.25 31.875 41.25C32.9062 41.25 33.75 40.4062 33.75 39.375C33.75 36.2812 36.2625 33.75 39.375 33.75C40.4062 33.75 41.25 32.9062 41.25 31.875C41.25 30.8438 40.4062 30 39.375 30ZM39.375 30C34.2 30 30 34.2 30 39.375C30 40.4062 30.8438 41.25 31.875 41.25C32.9062 41.25 33.75 40.4062 33.75 39.375C33.75 36.2812 36.2625 33.75 39.375 33.75C40.4062 33.75 41.25 32.9062 41.25 31.875C41.25 30.8438 40.4062 30 39.375 30ZM39.375 30C34.2 30 30 34.2 30 39.375C30 40.4062 30.8438 41.25 31.875 41.25C32.9062 41.25 33.75 40.4062 33.75 39.375C33.75 36.2812 36.2625 33.75 39.375 33.75C40.4062 33.75 41.25 32.9062 41.25 31.875C41.25 30.8438 40.4062 30 39.375 30ZM39.375 30C34.2 30 30 34.2 30 39.375C30 40.4062 30.8438 41.25 31.875 41.25C32.9062 41.25 33.75 40.4062 33.75 39.375C33.75 36.2812 36.2625 33.75 39.375 33.75C40.4062 33.75 41.25 32.9062 41.25 31.875C41.25 30.8438 40.4062 30 39.375 30ZM39.375 30C34.2 30 30 34.2 30 39.375C30 40.4062 30.8438 41.25 31.875 41.25C32.9062 41.25 33.75 40.4062 33.75 39.375C33.75 36.2812 36.2625 33.75 39.375 33.75C40.4062 33.75 41.25 32.9062 41.25 31.875C41.25 30.8438 40.4062 30 39.375 30ZM39.375 30C34.2 30 30 34.2 30 39.375C30 40.4062 30.8438 41.25 31.875 41.25C32.9062 41.25 33.75 40.4062 33.75 39.375C33.75 36.2812 36.2625 33.75 39.375 33.75C40.4062 33.75 41.25 32.9062 41.25 31.875C41.25 30.8438 40.4062 30 39.375 30ZM39.375 30C34.2 30 30 34.2 30 39.375C30 40.4062 30.8438 41.25 31.875 41.25C32.9062 41.25 33.75 40.4062 33.75 39.375C33.75 36.2812 36.2625 33.75 39.375 33.75C40.4062 33.75 41.25 32.9062 41.25 31.875C41.25 30.8438 40.4062 30 39.375 30ZM39.375 30C34.2 30 30 34.2 30 39.375C30 40.4062 30.8438 41.25 31.875 41.25C32.9062 41.25 33.75 40.4062 33.75 39.375C33.75 36.2812 36.2625 33.75 39.375 33.75C40.4062 33.75 41.25 32.9062 41.25 31.875C41.25 30.8438 40.4062 30 39.375 30ZM39.375 30C34.2 30 30 34.2 30 39.375C30 40.4062 30.8438 41.25 31.875 41.25C32.9062 41.25 33.75 40.4062 33.75 39.375C33.75 36.2812 36.2625 33.75 39.375 33.75C40.4062 33.75 41.25 32.9062 41.25 31.875C41.25 30.8438 40.4062 30 39.375 30Z" fill="#0054A6"/>
<path d="M41.25 3.75H35.625V13.125H41.25V3.75Z" fill="white"/>
<path d="M16.875 3.75H11.25V13.125H16.875V3.75Z" fill="white"/>
<path d="M16.875 45H11.25V54.375H16.875V45Z" fill="#FFCB05"/>
<path d="M9.375 24.375H3.75V33.75H9.375V24.375Z" fill="white"/>
<path d="M39.375 28.125C33.1688 28.125 28.125 33.1688 28.125 39.375C28.125 45.5812 33.1688 50.625 39.375 50.625C45.5812 50.625 50.625 45.5812 50.625 39.375C50.625 33.1688 45.5812 28.125 39.375 28.125ZM39.375 33.75C36.2625 33.75 33.75 36.2812 33.75 39.375C33.75 40.4062 32.9062 41.25 31.875 41.25C30.8438 41.25 30 40.4062 30 39.375C30 34.2 34.2 30 39.375 30C40.4062 30 41.25 30.8438 41.25 31.875C41.25 32.9062 40.4062 33.75 39.375 33.75Z" fill="#FFCB05"/>
</g>
<defs>
<clipPath id="clip0_51_443">
<rect width="60" height="60" fill="white"/>
</clipPath>
</defs>
</svg>
