<svg width="60" height="56" viewBox="0 0 60 56" fill="none" xmlns="http://www.w3.org/2000/svg">
<g clip-path="url(#clip0_51_635)">
<path d="M43.2311 37.8923V42.5608H47.8997V37.8923H43.2311ZM43.2311 25.4356V30.1114H47.8997V25.4356H43.2311ZM43.2311 37.8923V42.5608H47.8997V37.8923H43.2311ZM43.2311 25.4356V30.1114H47.8997V25.4356H43.2311ZM43.2311 25.4356V30.1114H47.8997V25.4356H43.2311ZM43.2311 37.8923V42.5608H47.8997V37.8923H43.2311ZM43.2311 37.8923V42.5608H47.8997V37.8923H43.2311ZM43.2311 25.4356V30.1114H47.8997V25.4356H43.2311ZM43.2311 25.4356V30.1114H47.8997V25.4356H43.2311ZM43.2311 37.8923V42.5608H47.8997V37.8923H43.2311ZM43.2311 37.8923V42.5608H47.8997V37.8923H43.2311ZM43.2311 25.4356V30.1114H47.8997V25.4356H43.2311ZM43.2311 25.4356V30.1114H47.8997V25.4356H43.2311ZM43.2311 37.8923V42.5608H47.8997V37.8923H43.2311ZM43.2311 37.8923V42.5608H47.8997V37.8923H43.2311ZM43.2311 25.4356V30.1114H47.8997V25.4356H43.2311ZM43.2311 25.4356V30.1114H47.8997V25.4356H43.2311ZM43.2311 37.8923V42.5608H47.8997V37.8923H43.2311ZM43.2311 42.5608H47.8997V37.8923H43.2311V42.5608ZM43.2311 25.4356V30.1114H47.8997V25.4356H43.2311ZM58.6184 14.3679C57.6948 13.4443 56.5822 12.9862 55.266 12.9862H29.5819V5.25624C29.5819 3.94731 29.1165 2.82744 28.2002 1.91119C27.284 0.994939 26.1641 0.529541 24.8479 0.529541H4.73397C3.41777 0.529541 2.2979 0.987667 1.38165 1.91119C0.458126 2.82744 0 3.94731 0 5.25624V50.2908C0 51.5997 0.458126 52.7196 1.38165 53.6358C2.2979 54.5594 3.41777 55.0175 4.73397 55.0175H55.266C56.5822 55.0175 57.6948 54.5594 58.6184 53.6358C59.5346 52.7196 60 51.5997 60 50.2908V17.7129C60 16.404 59.5346 15.2841 58.6184 14.3679ZM12.4567 50.349H4.66853V42.5608H12.4567V50.349ZM12.4567 37.8923H4.66853V30.1114H12.4567V37.8923ZM12.4567 25.4356H4.66853V17.6547H12.4567V25.4356ZM12.4567 12.9862H4.66853V5.19807H12.4567V12.9862ZM24.9061 50.349H17.1252V42.5608H24.9061V50.349ZM24.9061 37.8923H17.1252V30.1114H24.9061V37.8923ZM24.9061 25.4356H17.1252V17.6547H24.9061V25.4356ZM24.9061 12.9862H17.1252V5.19807H24.9061V12.9862ZM55.3242 50.349H29.5819V42.5608H36.4029V37.8923H29.5819V30.1114H36.4029V25.4356H29.5819V17.6547H55.3242V50.349ZM47.8997 37.8923H43.2311V42.5608H47.8997V37.8923ZM47.8997 25.4356H43.2311V30.1114H47.8997V25.4356ZM43.2311 25.4356V30.1114H47.8997V25.4356H43.2311ZM43.2311 37.8923V42.5608H47.8997V37.8923H43.2311ZM43.2311 37.8923V42.5608H47.8997V37.8923H43.2311ZM43.2311 25.4356V30.1114H47.8997V25.4356H43.2311ZM43.2311 25.4356V30.1114H47.8997V25.4356H43.2311ZM43.2311 37.8923V42.5608H47.8997V37.8923H43.2311ZM43.2311 37.8923V42.5608H47.8997V37.8923H43.2311ZM43.2311 25.4356V30.1114H47.8997V25.4356H43.2311ZM43.2311 25.4356V30.1114H47.8997V25.4356H43.2311ZM43.2311 37.8923V42.5608H47.8997V37.8923H43.2311ZM43.2311 37.8923V42.5608H47.8997V37.8923H43.2311ZM43.2311 25.4356V30.1114H47.8997V25.4356H43.2311ZM43.2311 25.4356V30.1114H47.8997V25.4356H43.2311ZM43.2311 37.8923V42.5608H47.8997V37.8923H43.2311ZM43.2311 37.8923V42.5608H47.8997V37.8923H43.2311ZM43.2311 25.4356V30.1114H47.8997V25.4356H43.2311Z" fill="#0054A6"/>
<path d="M29.582 17.6548V25.4357H36.403V30.1115H29.582V37.8923H36.403V42.5609H29.582V50.349H55.3244V17.6548H29.582ZM47.8998 42.5609H43.2313V37.8923H47.8998V42.5609ZM47.8998 30.1115H43.2313V25.4357H47.8998V30.1115Z" fill="white"/>
<path d="M24.9059 42.5608H17.125V50.3489H24.9059V42.5608Z" fill="white"/>
<path d="M12.4566 30.1113H4.66846V37.8922H12.4566V30.1113Z" fill="white"/>
<path d="M24.9059 5.198H17.125V12.9861H24.9059V5.198Z" fill="white"/>
<path d="M24.9059 30.1113H17.125V37.8922H24.9059V30.1113Z" fill="#FFCB05"/>
<path d="M12.4566 42.5608H4.66846V50.3489H12.4566V42.5608Z" fill="#FFCB05"/>
<path d="M24.9059 17.6548H17.125V25.4357H24.9059V17.6548Z" fill="#FFCB05"/>
<path d="M12.4566 17.6548H4.66846V25.4357H12.4566V17.6548Z" fill="#FFCB05"/>
<path d="M12.4566 5.198H4.66846V12.9861H12.4566V5.198Z" fill="#FFCB05"/>
</g>
<defs>
<clipPath id="clip0_51_635">
<rect width="60" height="54.4879" fill="white" transform="translate(0 0.529541)"/>
</clipPath>
</defs>
</svg>
