<svg width="60" height="60" viewBox="0 0 60 60" fill="none" xmlns="http://www.w3.org/2000/svg">
<g clip-path="url(#clip0_46_158)">
<path d="M28.6548 30L22.4629 40.7992L16.271 30H28.6548Z" fill="white"/>
<path d="M34.9455 58.8012H1.19678V46.0007C1.19678 37.5 7.78432 30.6044 16.172 30.0991L22.4629 40.7992L28.6547 30C37.0425 30.4954 43.63 37.4009 43.63 45.9016V58.7021H34.9455V58.8012Z" fill="#FFCB05"/>
<path d="M22.4629 1.29785C29.3571 1.29785 34.9456 6.89561 34.9456 13.8012C34.9456 20.7067 29.3571 26.3045 22.4629 26.3045C15.5687 26.3045 9.98022 20.7067 9.98022 13.8012C9.98022 6.89561 15.5687 1.29785 22.4629 1.29785Z" fill="white"/>
<path d="M52.7201 19.9042C53.3136 20.4987 53.6103 21.3012 53.6103 22.1037C53.6103 23.3025 52.918 24.6995 51.4145 26.4036C50.5243 27.4042 49.7231 28.3058 49.4264 28.504C49.3176 28.603 49.0208 28.8012 48.6252 28.8012C48.3186 28.8012 48.0218 28.7021 47.824 28.504C47.1217 27.8996 43.6301 24.5013 43.6301 22.1037C43.6301 20.3005 45.1336 18.9036 47.0228 18.9036C47.5273 18.9036 48.0218 19.0026 48.4274 19.2008C48.5263 19.2008 48.5263 19.2999 48.6252 19.2999C49.1197 19.0026 49.6242 18.9036 50.2177 18.9036C51.1178 18.9036 52.1168 19.2999 52.7201 19.9042Z" fill="white"/>
<path d="M48.7241 13.8013C43.2345 13.8013 38.7439 18.2993 38.7439 23.8079C38.7439 29.3165 43.2345 33.8046 48.7241 33.8046C54.2137 33.8046 58.7043 29.3066 58.7043 23.8079C58.7043 18.3092 54.2137 13.8013 48.7241 13.8013ZM48.7241 32.6058C43.828 32.6058 39.9407 28.7022 39.9407 23.8079C39.9407 18.9136 43.9269 15.0001 48.7241 15.0001C53.5213 15.0001 57.5075 18.9036 57.5075 23.8079C57.5075 28.7121 53.6104 32.6058 48.7241 32.6058Z" fill="white"/>
<path d="M50.3165 20.0033C51.5134 20.0033 52.5124 20.9049 52.4135 22.0046C52.4135 23.0053 51.4144 24.4023 50.5143 25.502C49.6142 26.6017 48.6152 27.5033 48.6152 27.5033C48.6152 27.5033 44.8269 24.006 44.8269 22.0046C44.8269 20.9049 45.8259 20.0033 46.9238 20.0033C47.2206 20.0033 47.5272 20.1024 47.8239 20.2015C48.1207 20.3005 48.3185 20.4987 48.5262 20.6968C49.0208 20.3005 49.6241 19.9934 50.3264 19.9934L50.3165 20.0033Z" fill="white"/>
<path d="M43.729 60.0001H1.29575C0.593472 60.0001 0 59.3957 0 58.7022V46.0007C0 36.9056 7.09199 29.2966 16.1721 28.8013H28.7537C37.8437 29.2966 44.9258 36.9056 44.9258 46.0007V58.8013C44.9258 59.4056 44.3225 60.0001 43.729 60.0001ZM2.49258 57.5034H42.4233V46.0007C42.4233 38.2035 36.3304 31.8033 28.6449 31.298H16.2611C8.57567 31.6943 2.48269 38.1936 2.48269 46.0007V57.5034H2.49258Z" fill="#0054A6"/>
<path d="M9.98032 60C9.27804 60 8.68457 59.3956 8.68457 58.7021V51.4993C8.68457 50.7959 9.28793 50.2014 9.98032 50.2014C10.6727 50.2014 11.2761 50.8058 11.2761 51.4993V58.7021C11.2761 59.4055 10.6727 60 9.98032 60Z" fill="#0054A6"/>
<path d="M34.9457 60C34.2434 60 33.6499 59.3956 33.6499 58.7021V51.4993C33.6499 50.7959 34.2533 50.2014 34.9457 50.2014C35.638 50.2014 36.2414 50.8058 36.2414 51.4993V58.7021C36.2414 59.4055 35.638 60 34.9457 60Z" fill="#0054A6"/>
<path d="M22.4134 42.2655C22.0177 42.2655 21.5133 42.0673 21.3155 41.6611L15.1236 30.8619C14.7279 30.2575 14.9257 29.4649 15.5192 29.1578C16.1226 28.7615 16.9139 28.9597 17.2205 29.5541L22.4134 38.4511L27.6063 29.5541C28.0019 28.9498 28.7042 28.7516 29.3075 29.1578C29.9109 29.5541 30.1087 30.2575 29.7032 30.8619L23.5113 41.562C23.3135 42.0574 22.809 42.2655 22.4134 42.2655Z" fill="#0054A6"/>
<path d="M22.463 27.5033C14.8765 27.5033 8.68457 21.3012 8.68457 13.7021C8.68457 6.10304 14.8765 0 22.463 0C30.0496 0 36.2414 6.20211 36.2414 13.8012C36.2414 21.4003 30.0496 27.5033 22.463 27.5033ZM22.463 2.4967C16.2711 2.4967 11.1772 7.5 11.1772 13.8012C11.1772 20.1024 16.1722 25.1057 22.463 25.1057C28.7538 25.1057 33.7489 20.1024 33.7489 13.8012C33.7489 7.5 28.6549 2.4967 22.463 2.4967Z" fill="#0054A6"/>
<path d="M48.7241 12.5034C42.4333 12.5034 37.4382 17.4076 37.4382 23.6989C37.4382 29.9902 42.5322 35.0034 48.7241 35.0034C54.916 35.0034 60.0001 30.0992 60.0001 23.8079C60.0001 17.5166 55.0149 12.5034 48.7241 12.5034ZM48.7241 32.6058C43.8279 32.6058 39.9407 28.7022 39.9407 23.8079C39.9407 18.9136 43.9269 15.0001 48.7241 15.0001C53.5213 15.0001 57.5075 18.9037 57.5075 23.8079C57.5075 28.7121 53.6103 32.6058 48.7241 32.6058Z" fill="#0054A6"/>
<path d="M48.7241 15C43.9268 15 39.9407 18.9036 39.9407 23.8078C39.9407 28.712 43.8279 32.6057 48.7241 32.6057C53.6202 32.6057 57.5074 28.7021 57.5074 23.8078C57.5074 18.9135 53.5114 15 48.7241 15ZM51.4145 26.4036C50.5243 27.4042 49.7231 28.3058 49.4263 28.504C49.3175 28.603 49.0208 28.8012 48.6251 28.8012C48.3185 28.8012 48.0218 28.7021 47.824 28.504C47.1217 27.8996 43.6301 24.5013 43.6301 22.1037C43.6301 20.3005 45.1336 18.9036 47.0228 18.9036C47.5272 18.9036 48.0218 19.0026 48.4273 19.2008C48.5262 19.2008 48.5262 19.2999 48.6251 19.2999C49.1197 19.0026 49.6242 18.9036 50.2176 18.9036C51.1177 18.9036 52.1167 19.2999 52.7201 19.9042C53.3136 20.4987 53.6103 21.3012 53.6103 22.1037C53.6103 23.3025 52.9179 24.6995 51.4145 26.4036Z" fill="#FFCB05"/>
<path d="M52.7201 19.9042C52.1168 19.2999 51.1178 18.9036 50.2177 18.9036C49.6242 18.9036 49.1197 19.0026 48.6252 19.2999C48.5263 19.2999 48.5263 19.2008 48.4274 19.2008C48.0218 19.0026 47.5273 18.9036 47.0228 18.9036C45.1336 18.9036 43.6301 20.3005 43.6301 22.1037C43.6301 24.5013 47.1217 27.8996 47.824 28.504C48.0218 28.7021 48.3186 28.8012 48.6252 28.8012C49.0208 28.8012 49.3176 28.603 49.4264 28.504C49.7231 28.3058 50.5243 27.4042 51.4145 26.4036C52.918 24.6995 53.6103 23.3025 53.6103 22.1037C53.6103 21.3012 53.3136 20.4987 52.7201 19.9042ZM47.0228 21.3012C47.2206 21.3012 47.3294 21.3012 47.4283 21.4003C47.5273 21.4003 47.6262 21.4993 47.7251 21.5984C47.9229 21.9055 48.3186 22.0046 48.6252 22.0046C48.9318 22.0046 49.3176 21.8065 49.5253 21.5984C49.7231 21.4003 49.9209 21.3012 50.2177 21.3012C50.5144 21.3012 50.7221 21.4003 50.9199 21.5984C51.0189 21.7074 51.1178 21.8065 51.1178 22.0046C51.1178 22.5 50.7221 23.4016 49.5253 24.7985C49.2187 25.2048 48.9219 25.502 48.6252 25.7992C47.3294 24.4022 46.1227 22.8071 46.1227 22.1037C46.1227 21.5984 46.5282 21.3012 47.0228 21.3012Z" fill="#0054A6"/>
</g>
<defs>
<clipPath id="clip0_46_158">
<rect width="60" height="60" fill="white"/>
</clipPath>
</defs>
</svg>
