<svg width="60" height="60" viewBox="0 0 60 60" fill="none" xmlns="http://www.w3.org/2000/svg">
<g clip-path="url(#clip0_51_359)">
<path d="M39.3745 30C34.2043 30 29.9998 34.2046 29.9998 39.3748C29.9998 40.412 30.8383 41.2505 31.8716 41.2505C32.9048 41.2505 33.7473 40.412 33.7473 39.3748C33.7473 36.2711 36.2708 33.7476 39.3745 33.7476C40.4078 33.7476 41.2503 32.909 41.2503 31.8758C41.2503 30.8425 40.4078 30 39.3745 30ZM39.3745 30C34.2043 30 29.9998 34.2046 29.9998 39.3748C29.9998 40.412 30.8383 41.2505 31.8716 41.2505C32.9048 41.2505 33.7473 40.412 33.7473 39.3748C33.7473 36.2711 36.2708 33.7476 39.3745 33.7476C40.4078 33.7476 41.2503 32.909 41.2503 31.8758C41.2503 30.8425 40.4078 30 39.3745 30ZM59.4474 56.797L51.2092 48.5548C53.1843 46.0154 54.3726 42.8322 54.3726 39.3748C54.3726 31.1008 47.6445 24.3728 39.3745 24.3728C31.1046 24.3728 24.3726 31.1008 24.3726 39.3748C24.3726 47.6487 31.1046 54.3728 39.3745 54.3728C42.832 54.3728 46.0152 53.1846 48.5546 51.2095L56.7967 59.4476C57.1623 59.8172 57.6432 60 58.1241 60C58.6049 60 59.0818 59.8172 59.4474 59.4476C60.1826 58.7164 60.1826 57.5322 59.4474 56.797ZM39.3745 50.6253C33.1711 50.6253 28.124 45.5783 28.124 39.3748C28.124 33.1713 33.1711 28.1243 39.3745 28.1243C45.578 28.1243 50.625 33.1713 50.625 39.3748C50.625 45.5783 45.578 50.6253 39.3745 50.6253ZM39.3745 30C34.2043 30 29.9998 34.2046 29.9998 39.3748C29.9998 40.412 30.8383 41.2505 31.8716 41.2505C32.9048 41.2505 33.7473 40.412 33.7473 39.3748C33.7473 36.2711 36.2708 33.7476 39.3745 33.7476C40.4078 33.7476 41.2503 32.909 41.2503 31.8758C41.2503 30.8425 40.4078 30 39.3745 30ZM39.3745 30C34.2043 30 29.9998 34.2046 29.9998 39.3748C29.9998 40.412 30.8383 41.2505 31.8716 41.2505C32.9048 41.2505 33.7473 40.412 33.7473 39.3748C33.7473 36.2711 36.2708 33.7476 39.3745 33.7476C40.4078 33.7476 41.2503 32.909 41.2503 31.8758C41.2503 30.8425 40.4078 30 39.3745 30ZM39.3745 30C34.2043 30 29.9998 34.2046 29.9998 39.3748C29.9998 40.412 30.8383 41.2505 31.8716 41.2505C32.9048 41.2505 33.7473 40.412 33.7473 39.3748C33.7473 36.2711 36.2708 33.7476 39.3745 33.7476C40.4078 33.7476 41.2503 32.909 41.2503 31.8758C41.2503 30.8425 40.4078 30 39.3745 30Z" fill="#0054A6"/>
<path d="M39.3745 28.1243C33.1711 28.1243 28.124 33.1713 28.124 39.3748C28.124 45.5782 33.1711 50.6253 39.3745 50.6253C45.578 50.6253 50.625 45.5782 50.625 39.3748C50.625 33.1713 45.578 28.1243 39.3745 28.1243ZM39.3745 33.7475C36.2708 33.7475 33.7473 36.271 33.7473 39.3748C33.7473 40.412 32.9088 41.2505 31.8715 41.2505C30.8343 41.2505 29.9998 40.412 29.9998 39.3748C29.9998 34.2045 34.2043 30 39.3745 30C40.4078 30 41.2503 30.8385 41.2503 31.8758C41.2503 32.913 40.4078 33.7475 39.3745 33.7475Z" fill="#FFCB05"/>
<path d="M15.2642 35.373C14.2707 35.9452 10.9444 38.3575 9.78399 45.3081C9.629 46.2221 8.83419 46.8738 7.93606 46.8738C7.83274 46.8738 7.72941 46.8659 7.62211 46.846C6.60079 46.6791 5.91328 45.7094 6.08416 44.6881C7.47507 36.3546 11.6558 33.1276 13.3884 32.1262C14.2826 31.6056 15.4311 31.9156 15.9477 32.8097C16.4683 33.7079 16.1583 34.8564 15.2642 35.373Z" fill="#0054A6"/>
<path d="M33.7478 16.8738C33.7478 17.911 32.9092 18.7495 31.872 18.7495C30.8348 18.7495 30.0002 17.911 30.0002 16.8738C30.0002 12.7368 26.6342 9.37478 22.4973 9.37478C21.464 9.37478 20.6255 8.53626 20.6255 7.49904C20.6255 6.46181 21.464 5.62329 22.4973 5.62329C28.7007 5.62329 33.7478 10.6703 33.7478 16.8738Z" fill="#0054A6"/>
<path d="M39.3748 16.8738C39.3748 18.1534 39.2198 19.4171 38.9376 20.6451C37.5427 20.6769 37.499 20.6252 35.6233 20.6252V16.8738C35.6233 9.63704 29.7337 3.74752 22.497 3.74752C15.2603 3.74752 9.37475 9.63704 9.37475 16.8738C9.37475 20.4265 10.8332 23.8124 13.3726 26.2803C14.0601 26.3757 14.6682 26.8287 14.9026 27.5321C15.2285 28.5137 14.7 29.5748 13.7184 29.9007C13.3369 30.0358 4.46284 33.3342 3.19513 48.7694H22.497V52.497H1.87575C0.838522 52.497 0 51.6585 0 50.6253C0 36.5651 6.00477 30.3497 9.7046 27.8461C7.09763 24.8059 5.62326 20.9233 5.62326 16.8738C5.62326 7.57054 13.1938 0 22.497 0C31.8002 0 39.3748 7.57054 39.3748 16.8738Z" fill="#0054A6"/>
</g>
<defs>
<clipPath id="clip0_51_359">
<rect width="60" height="60" fill="white"/>
</clipPath>
</defs>
</svg>
