<svg width="54" height="60" viewBox="0 0 54 60" fill="none" xmlns="http://www.w3.org/2000/svg">
<g clip-path="url(#clip0_51_433)">
<path d="M33.9324 0C27.0508 0 21.4482 5.55753 21.4482 12.3825C21.4482 13.9695 21.7482 15.4837 22.3028 16.8801H22.3084C22.5348 17.4689 22.8064 18.0297 23.129 18.5625C25.2852 22.2638 29.3202 24.7537 33.9324 24.7537C40.8197 24.7537 46.4223 19.2018 46.4223 12.3825C46.4223 5.56314 40.8197 0 33.9324 0ZM33.9324 21.9497C28.6071 21.9497 24.2778 17.6596 24.2778 12.3825C24.2778 7.10534 28.6071 2.804 33.9324 2.804C39.2577 2.804 43.5927 7.09973 43.5927 12.3825C43.5927 17.6652 39.2634 21.9497 33.9324 21.9497Z" fill="#0054A6"/>
<path d="M43.5926 12.3824C43.5926 17.6595 39.2634 21.9497 33.9324 21.9497C28.6015 21.9497 24.2778 17.6595 24.2778 12.3824C24.2778 7.10529 28.6071 2.80396 33.9324 2.80396C39.2577 2.80396 43.5926 7.09968 43.5926 12.3824Z" fill="white"/>
<path d="M53.6037 31.9431C52.5907 26.464 47.8031 25.7294 47.5993 25.7014C47.5427 25.7014 47.4805 25.6901 47.4239 25.6901L16.2983 25.191L22.7045 19.3026C22.9196 19.1063 23.0667 18.8484 23.129 18.568C23.146 18.467 23.1573 18.3717 23.1573 18.2708C23.1573 17.8838 22.9932 17.5081 22.6989 17.2445L22.3084 16.8856H22.3027L16.57 11.6421C16.021 11.143 15.1778 11.1486 14.6402 11.6533C12.9028 13.2796 10.0336 15.9715 7.48698 18.3661C4.94034 20.7607 2.7276 22.8693 2.30316 23.3236C1.40335 24.305 -1.364 27.8997 0.826108 32.9245C2.78419 37.3604 7.7473 37.3884 8.31888 37.366L18.794 37.495L18.7827 58.5979C18.7827 58.968 18.9299 59.3269 19.1958 59.5905C19.4618 59.8485 19.824 59.9999 20.1975 59.9999H52.2116C52.9756 59.9999 53.5981 59.4054 53.6264 58.6484C53.6603 57.7511 54.4639 36.5921 53.6037 31.9431ZM50.8477 57.1959H21.6123L21.6236 36.1098C21.6236 35.3415 21.0011 34.719 20.2258 34.7078L8.32454 34.562H8.25663C8.10383 34.562 4.6687 34.6349 3.41802 31.8085C1.94663 28.4212 3.61043 26.0659 4.43101 25.1742C4.90639 24.647 11.1824 18.7418 15.6192 14.5919L19.6599 18.2764L11.7936 25.5107C11.3692 25.8976 11.2277 26.5033 11.4314 27.0417C11.6408 27.5744 12.1558 27.9333 12.733 27.9389L47.2654 28.4885C47.7974 28.5951 50.2309 29.2512 50.8194 32.4478C51.4249 35.7285 51.125 49.3615 50.8477 57.1959Z" fill="#0054A6"/>
<path d="M50.8477 57.1958H45.3073V34.8199C45.3073 34.046 44.6735 33.4179 43.8925 33.4179C43.1115 33.4179 42.4777 34.046 42.4777 34.8199V57.1958H21.6123L21.6236 36.1097C21.6236 35.3414 21.0011 34.7189 20.2258 34.7077L8.32449 34.5619H8.25658C8.10379 34.5619 4.66866 34.6348 3.41798 31.8084C1.94659 28.4211 3.61039 26.0658 4.43097 25.1741C4.90634 24.6469 11.1824 18.7417 15.6192 14.5918L19.6599 18.2763L11.7936 25.5106C11.3691 25.8975 11.2277 26.5032 11.4314 27.0416C11.6408 27.5743 12.1558 27.9332 12.733 27.9388L47.2654 28.4884C47.7974 28.595 50.2308 29.2511 50.8194 32.4477C51.4249 35.7284 51.125 49.3614 50.8477 57.1958Z" fill="white"/>
<path d="M45.3074 34.82V58.5979C45.3074 59.3718 44.6735 59.9999 43.8926 59.9999C43.1116 59.9999 42.4778 59.3718 42.4778 58.5979V34.82C42.4778 34.0461 43.1116 33.418 43.8926 33.418C44.6735 33.418 45.3074 34.0461 45.3074 34.82Z" fill="#0054A6"/>
</g>
<defs>
<clipPath id="clip0_51_433">
<rect width="54" height="60" fill="white"/>
</clipPath>
</defs>
</svg>
