<svg width="54" height="61" viewBox="0 0 54 61" fill="none" xmlns="http://www.w3.org/2000/svg">
<g clip-path="url(#clip0_51_622)">
<path d="M53.9497 13.4733C53.9811 13.3154 54 13.1575 54 12.9932C54 12.8416 53.9748 12.69 53.9497 12.551V6.21495C53.9811 6.05702 54 5.89909 54 5.73485C54 5.45689 53.9434 5.19158 53.849 4.93889C53.6979 4.40825 53.3644 3.95974 52.9239 3.68178C49.3432 0.636932 37.9466 0.529541 36.43 0.529541C34.9134 0.529541 23.5168 0.636932 19.9361 3.68178C19.4956 3.95974 19.1684 4.40825 19.0111 4.93889C18.9167 5.19158 18.86 5.45689 18.86 5.73485C18.86 5.89909 18.8789 6.05702 18.9104 6.21495V12.551C18.8789 12.69 18.86 12.8416 18.86 12.9932C18.86 13.1575 18.8789 13.3154 18.9104 13.4733V20.4727C18.9104 20.7254 18.9481 20.9591 19.0048 21.1865C18.9167 21.4329 18.86 21.6856 18.86 21.9572C18.86 22.1215 18.8789 22.2794 18.9104 22.431V26.1834C18.3314 26.1265 17.7462 26.0949 17.1546 26.0949C7.69631 26.0949 0 33.8208 0 43.3154C0 52.81 7.69631 60.5295 17.1546 60.5295C24.6307 60.5295 31.0055 55.7033 33.3465 48.9882C34.5044 49.0387 35.5616 49.0513 36.43 49.0513C41.6972 49.0513 53.9497 48.4954 53.9497 43.3091C53.9497 43.2964 53.9497 43.2775 53.9497 43.2649C53.9497 43.2522 53.9497 43.2396 53.9497 43.2269V36.3034C53.9811 36.1518 54 35.9938 54 35.8296C54 35.678 53.9748 35.5264 53.9497 35.3811V29.6957C53.9811 29.5378 54 29.3798 54 29.2156C54 29.064 53.9748 28.9124 53.9497 28.7734V22.431C53.9811 22.2794 54 22.1215 54 21.9572C54 21.6856 53.9434 21.4329 53.8553 21.1865C53.9119 20.9591 53.9497 20.7254 53.9497 20.4727C53.9497 20.4601 53.9497 20.4411 53.9497 20.4285C53.9497 20.4158 53.9497 20.3969 53.9497 20.3906V13.4733ZM36.43 3.06902C45.2402 3.06902 50.6962 4.71147 51.6213 5.73485C50.6962 6.76454 45.2402 8.40699 36.43 8.40699C27.6199 8.40699 22.1576 6.76454 21.2388 5.73485C22.1576 4.71147 27.6199 3.06902 36.43 3.06902ZM17.1546 58.3249C8.90456 58.3249 2.19625 51.5908 2.19625 43.3154C2.19625 35.04 8.90456 28.2996 17.1546 28.2996C25.4047 28.2996 32.113 35.0336 32.113 43.3154C32.113 51.5971 25.4047 58.3249 17.1546 58.3249ZM51.9485 43.1701C51.9422 43.2143 51.9422 43.2585 51.9422 43.2964C51.9422 43.3154 51.9422 43.328 51.9485 43.3533C51.8478 45.28 44.9255 46.8467 36.43 46.8467C35.5868 46.8467 34.7624 46.8277 33.9506 46.7961C34.1897 45.6717 34.303 44.5093 34.303 43.3154C34.303 43.0059 34.2967 42.7089 34.2841 42.4057C35.0707 42.431 35.807 42.4373 36.43 42.4373C40.382 42.4373 48.2545 42.1215 51.9485 39.7841V43.1701ZM51.9485 36.5561C51.9422 36.6003 51.9422 36.6445 51.9422 36.6824C51.9422 36.7014 51.9422 36.7203 51.9485 36.7393C51.8478 38.666 44.9255 40.2326 36.43 40.2326C35.6056 40.2326 34.8064 40.2137 34.0198 40.1884C33.68 38.3628 33.0633 36.6319 32.2074 35.0589C33.8059 35.1537 35.2847 35.1789 36.43 35.1789C40.382 35.1789 48.2545 34.8694 51.9485 32.5257V36.5561ZM51.9485 29.2977C51.9422 29.3419 51.9422 29.3861 51.9422 29.424C51.9422 29.443 51.9422 29.4619 51.9485 29.4809C51.8478 31.4139 44.9255 32.9743 36.43 32.9743C34.3911 32.9743 32.4466 32.8795 30.6657 32.7216C28.2554 29.6388 24.8384 27.4026 20.9115 26.5119V24.6736C25.2348 27.0804 35.033 27.1688 36.43 27.1688C37.8271 27.1688 47.6252 27.0804 51.9485 24.6799V29.2977ZM51.9485 20.3337C51.9422 20.3779 51.9422 20.4221 51.9422 20.4601C51.9422 20.479 51.9422 20.498 51.9485 20.5169C51.8478 22.4436 44.9255 24.0103 36.43 24.0103C27.9345 24.0103 21.0122 22.4436 20.9115 20.5169C20.9178 20.479 20.9178 20.4411 20.9178 20.4032C20.9178 20.3842 20.9115 20.359 20.9115 20.3337V16.3034C24.5992 18.647 32.478 18.9566 36.43 18.9566C40.382 18.9566 48.2545 18.647 51.9485 16.3034V20.3337ZM51.9485 13.0753C51.9422 13.1196 51.9422 13.1638 51.9422 13.2017C51.9422 13.2206 51.9422 13.2396 51.9485 13.2585C51.8478 15.1916 44.9255 16.7519 36.43 16.7519C27.9345 16.7519 21.0122 15.1916 20.9115 13.2585C20.9178 13.2206 20.9178 13.1827 20.9178 13.1511C20.9178 13.1259 20.9115 13.1006 20.9115 13.0753V8.45121C25.2348 10.858 35.033 10.9465 36.43 10.9465C37.8271 10.9465 47.6252 10.858 51.9485 8.45121V13.0753Z" fill="#0054A6"/>
<path d="M51.9486 13.0753C51.9423 13.1195 51.9423 13.1637 51.9423 13.2016C51.9423 13.2206 51.9423 13.2395 51.9486 13.2585C51.8479 15.1915 44.9256 16.7519 36.4301 16.7519C27.9346 16.7519 21.0123 15.1915 20.9116 13.2585C20.9179 13.2206 20.9179 13.1827 20.9179 13.1511C20.9179 13.1258 20.9116 13.1006 20.9116 13.0753V8.45117C25.2349 10.858 35.0331 10.9464 36.4301 10.9464C37.8271 10.9464 47.6253 10.858 51.9486 8.45117V13.0753Z" fill="white"/>
<path d="M51.9486 20.3338C51.9423 20.378 51.9423 20.4222 51.9423 20.4601C51.9423 20.4791 51.9423 20.498 51.9486 20.517C51.8479 22.4437 44.9256 24.0104 36.4301 24.0104C27.9346 24.0104 21.0123 22.4437 20.9116 20.517C20.9179 20.4791 20.9179 20.4412 20.9179 20.4033C20.9179 20.3843 20.9116 20.3591 20.9116 20.3338V16.3035C24.5993 18.6471 32.4781 18.9567 36.4301 18.9567C40.3821 18.9567 48.2546 18.6471 51.9486 16.3035V20.3338Z" fill="white"/>
<path d="M51.9486 29.2977C51.9423 29.3419 51.9423 29.3862 51.9423 29.4241C51.9423 29.443 51.9423 29.462 51.9486 29.4809C51.8479 31.414 44.9256 32.9743 36.4301 32.9743C34.3912 32.9743 32.4466 32.8795 30.6657 32.7216C28.2555 29.6388 24.8384 27.4026 20.9116 26.5119V24.6736C25.2349 27.0804 35.0331 27.1688 36.4301 27.1688C37.8271 27.1688 47.6253 27.0804 51.9486 24.6799V29.2977Z" fill="white"/>
<path d="M51.9486 36.556C51.9423 36.6002 51.9423 36.6444 51.9423 36.6823C51.9423 36.7012 51.9423 36.7202 51.9486 36.7392C51.8479 38.6659 44.9256 40.2325 36.4301 40.2325C35.6057 40.2325 34.8065 40.2136 34.0199 40.1883C33.6801 38.3627 33.0634 36.6318 32.2075 35.0588C33.8059 35.1536 35.2848 35.1788 36.4301 35.1788C40.3821 35.1788 48.2546 34.8693 51.9486 32.5256V36.556Z" fill="white"/>
<path d="M51.9486 43.1702C51.9423 43.2144 51.9423 43.2586 51.9423 43.2965C51.9423 43.3154 51.9423 43.3281 51.9486 43.3534C51.8479 45.2801 44.9256 46.8467 36.4301 46.8467C35.5869 46.8467 34.7625 46.8278 33.9507 46.7962C34.1898 45.6717 34.3031 44.5094 34.3031 43.3155C34.3031 43.0059 34.2968 42.709 34.2842 42.4058C35.0708 42.4311 35.8071 42.4374 36.4301 42.4374C40.3821 42.4374 48.2546 42.1215 51.9486 39.7842V43.1702Z" fill="white"/>
<path d="M51.6212 5.73492C50.6962 6.76461 45.2402 8.40706 36.43 8.40706C27.6198 8.40706 22.1575 6.76461 21.2388 5.73492C22.1575 4.71154 27.6198 3.06909 36.43 3.06909C45.2402 3.06909 50.6962 4.71154 51.6212 5.73492Z" fill="#FFCB05"/>
<path d="M17.1547 28.2996C8.9046 28.2996 2.19629 35.0336 2.19629 43.3154C2.19629 51.5971 8.9046 58.3248 17.1547 58.3248C25.4048 58.3248 32.1131 51.5908 32.1131 43.3154C32.1131 35.0399 25.4048 28.2996 17.1547 28.2996ZM17.1547 54.9136C10.7799 54.9136 5.59449 49.7083 5.59449 43.3154C5.59449 36.9224 10.7799 31.7108 17.1547 31.7108C23.5295 31.7108 28.7149 36.9161 28.7149 43.3154C28.7149 49.7146 23.5232 54.9136 17.1547 54.9136Z" fill="#FFCB05"/>
<path d="M17.1544 31.7109C10.7796 31.7109 5.59424 36.9162 5.59424 43.3155C5.59424 49.7147 10.7796 54.9137 17.1544 54.9137C23.5292 54.9137 28.7146 49.7084 28.7146 43.3155C28.7146 36.9226 23.5229 31.7109 17.1544 31.7109ZM17.1544 53.4481C11.5851 53.4481 7.0605 48.8998 7.0605 43.3155C7.0605 37.7312 11.5851 33.1828 17.1544 33.1828C22.7237 33.1828 27.2484 37.7248 27.2484 43.3155C27.2484 48.9061 22.7174 53.4481 17.1544 53.4481Z" fill="#0054A6"/>
<path d="M17.1545 33.1826C11.5852 33.1826 7.06055 37.7246 7.06055 43.3153C7.06055 48.9059 11.5852 53.4479 17.1545 53.4479C22.7238 53.4479 27.2484 48.8996 27.2484 43.3153C27.2484 37.7309 22.7175 33.1826 17.1545 33.1826ZM20.6597 48.23C20.2129 48.748 19.6339 49.146 18.9606 49.3987V50.6937C18.9606 51.098 18.6333 51.4265 18.2243 51.4265H16.3553C15.9525 51.4265 15.619 51.098 15.619 50.6937V49.6008C15.4113 49.5629 15.2099 49.5124 15.0086 49.4492C14.4233 49.285 13.9262 49.0512 13.5234 48.7606L13.2717 48.5838C13.0074 48.3879 12.8941 48.0468 13.0074 47.7373L13.6933 45.8232C13.7689 45.6084 13.9388 45.4441 14.1464 45.3747C14.3667 45.3052 14.5995 45.3304 14.7883 45.4568L15.2225 45.7474C15.6064 46.0064 16.2798 46.3159 17.0097 46.2843C17.3181 46.2843 17.5824 46.2085 17.7334 46.0822C17.8404 45.9937 17.8782 45.9053 17.8782 45.76C17.8782 45.6652 17.8656 45.6147 17.8467 45.5831C17.8278 45.5452 17.8027 45.4884 17.7208 45.4062C17.6202 45.2989 17.3433 45.0841 16.6951 44.8188C15.8959 44.5029 15.298 44.1997 14.8198 43.8522C14.1968 43.41 13.75 42.8794 13.4857 42.273C13.2969 41.8308 13.1962 41.3507 13.1962 40.8326C13.1962 39.8598 13.5486 38.9438 14.1968 38.2553C14.6121 37.8131 15.1344 37.4719 15.7386 37.2382V35.9937C15.7386 35.5894 16.0721 35.261 16.4748 35.261H18.3313C18.734 35.261 19.0612 35.5894 19.0612 35.9937V37.0297C19.6528 37.1498 20.194 37.3582 20.6911 37.6488L20.9869 37.8257C21.2953 38.0026 21.4274 38.3816 21.3015 38.7164L20.5841 40.6052C20.5086 40.8011 20.3513 40.959 20.1499 41.0348C19.9486 41.1043 19.722 41.0853 19.5332 40.9779L19.1242 40.7442C18.9731 40.6558 18.7844 40.5547 18.5389 40.4726C18.2369 40.3715 17.9159 40.321 17.5698 40.321C17.2929 40.321 17.0853 40.3715 16.9846 40.4726C16.9342 40.5168 16.9216 40.5863 16.9216 40.6305C16.9216 40.6874 16.9279 40.7189 16.9342 40.7253C16.9468 40.7568 16.9783 40.7884 17.0286 40.8326C17.1608 40.9527 17.4817 41.1611 18.2683 41.4833C18.2935 41.4959 18.3187 41.5023 18.3438 41.5149C19.1242 41.8371 19.7094 42.1719 20.1814 42.5699C20.7603 43.0436 21.1631 43.6059 21.3896 44.2502C21.5407 44.6735 21.6225 45.1472 21.6225 45.6526C21.6225 46.6065 21.2827 47.5225 20.6597 48.23Z" fill="white"/>
<path d="M21.3898 44.2502C21.1633 43.6059 20.7605 43.0437 20.1816 42.5699C19.7096 42.1719 19.1244 41.8371 18.344 41.5149C18.3189 41.5023 18.2937 41.496 18.2685 41.4833C17.4819 41.1612 17.161 40.9527 17.0288 40.8327C16.9785 40.7885 16.947 40.7569 16.9344 40.7253C16.9281 40.7253 16.9218 40.6874 16.9218 40.6305C16.9218 40.5863 16.9344 40.5168 16.9848 40.4726C17.0855 40.3715 17.2931 40.321 17.57 40.321C17.9161 40.321 18.2371 40.3715 18.5391 40.4726C18.7846 40.5547 18.9733 40.6558 19.1244 40.7442L19.5334 40.978C19.7222 41.0854 19.9488 41.1043 20.1501 41.0348C20.3515 40.959 20.5088 40.8011 20.5843 40.6053L21.3017 38.7165C21.4276 38.3816 21.2955 38.0026 20.9871 37.8257L20.6913 37.6489C20.1942 37.3583 19.653 37.1498 19.0614 37.0298V35.9938C19.0614 35.5895 18.7342 35.261 18.3315 35.261H16.475C16.0723 35.261 15.7388 35.5895 15.7388 35.9938V37.2382C15.1346 37.472 14.6123 37.8131 14.197 38.2553C13.5488 38.9439 13.1964 39.8598 13.1964 40.8327C13.1964 41.3507 13.2971 41.8308 13.4859 42.273C13.7502 42.8794 14.197 43.4101 14.82 43.8523C15.2982 44.1997 15.8961 44.5029 16.6953 44.8188C17.3435 45.0841 17.6204 45.2989 17.721 45.4063C17.8029 45.4884 17.828 45.5453 17.8469 45.5832C17.8658 45.6147 17.8784 45.6653 17.8784 45.76C17.8784 45.9053 17.8406 45.9938 17.7336 46.0822C17.5826 46.2086 17.3183 46.2844 17.0099 46.2844C16.28 46.3159 15.6066 46.0064 15.2227 45.7474L14.7885 45.4568C14.5997 45.3305 14.3669 45.3052 14.1466 45.3747C13.939 45.4442 13.7691 45.6084 13.6935 45.8232L13.0076 47.7373C12.8943 48.0468 13.0076 48.388 13.2719 48.5838L13.5236 48.7607C13.9264 49.0513 14.4235 49.285 15.0088 49.4492C15.2101 49.5124 15.4115 49.5629 15.6192 49.6008V50.6937C15.6192 51.098 15.9527 51.4265 16.3555 51.4265H18.2245C18.6335 51.4265 18.9608 51.098 18.9608 50.6937V49.3987C19.6341 49.146 20.2131 48.748 20.6599 48.23C21.2829 47.5225 21.6227 46.6065 21.6227 45.6526C21.6227 45.1473 21.5409 44.6735 21.3898 44.2502ZM19.5586 47.2635C19.5586 47.2635 19.5586 47.2698 19.5523 47.2698C19.1936 47.6868 18.6713 47.99 18.0546 48.1416C17.7273 48.2237 17.4945 48.5206 17.4945 48.8554V49.9546H17.0855V48.9628C17.0855 48.5838 16.796 48.2616 16.4184 48.23C16.0786 48.1984 15.745 48.1353 15.4178 48.0405C15.0969 47.9458 14.8137 47.8321 14.5808 47.6994L14.7571 47.1814C15.4304 47.5478 16.2422 47.7499 17.0036 47.7499C17.6833 47.7689 18.2434 47.5667 18.6776 47.2067C19.1055 46.8403 19.3383 46.3475 19.3446 45.7664C19.3446 45.4884 19.2943 45.2357 19.1936 45.002C19.0992 44.7746 18.9545 44.5724 18.7657 44.3766C18.4321 44.0355 17.935 43.7322 17.2365 43.4543C16.5505 43.1827 16.0534 42.93 15.6695 42.6583C15.2605 42.3614 14.9836 42.0456 14.8263 41.6855C14.7193 41.4328 14.6627 41.1485 14.6627 40.8327C14.6627 40.2389 14.8766 39.683 15.2668 39.266C15.6066 38.8996 16.0849 38.628 16.6449 38.4954C16.9722 38.4132 17.205 38.1226 17.205 37.7815V36.7329H17.5952V37.6615C17.5952 38.0405 17.8847 38.3564 18.2559 38.3943C18.7908 38.4448 19.2754 38.5775 19.7033 38.7859L19.5145 39.285C19.3698 39.2155 19.1999 39.146 19.0048 39.0765C18.558 38.9249 18.0734 38.8491 17.5637 38.8491C16.8841 38.8554 16.3492 39.0449 15.9653 39.4177C15.6381 39.7335 15.4556 40.1631 15.4556 40.6305C15.4556 40.9085 15.5059 41.1422 15.6066 41.357C15.7073 41.5718 15.852 41.755 16.0597 41.9382C16.3869 42.2288 16.903 42.513 17.7462 42.8605C18.407 43.1321 18.8852 43.3974 19.2565 43.707C19.6152 44.0039 19.8732 44.3513 20.0117 44.743C20.1061 45.0083 20.1564 45.3178 20.1564 45.6526C20.1564 46.2465 19.9488 46.8213 19.5586 47.2635Z" fill="#0054A6"/>
<path d="M20.1566 45.6527C20.1566 46.2465 19.949 46.8214 19.5588 47.2635C19.5588 47.2635 19.5588 47.2699 19.5525 47.2699C19.1938 47.6868 18.6715 47.99 18.0548 48.1416C17.7275 48.2238 17.4947 48.5207 17.4947 48.8555V49.9546H17.0857V48.9629C17.0857 48.5838 16.7962 48.2617 16.4186 48.2301C16.0788 48.1985 15.7453 48.1353 15.418 48.0406C15.0971 47.9458 14.8139 47.8321 14.5811 47.6994L14.7573 47.1814C15.4306 47.5478 16.2424 47.75 17.0038 47.75C17.6835 47.7689 18.2436 47.5668 18.6778 47.2067C19.1057 46.8403 19.3385 46.3476 19.3448 45.7664C19.3448 45.4884 19.2945 45.2358 19.1938 45.002C19.0994 44.7746 18.9547 44.5725 18.7659 44.3766C18.4324 44.0355 17.9352 43.7323 17.2367 43.4543C16.5508 43.1827 16.0536 42.93 15.6697 42.6584C15.2607 42.3615 14.9838 42.0456 14.8265 41.6855C14.7195 41.4328 14.6629 41.1486 14.6629 40.8327C14.6629 40.2389 14.8768 39.683 15.267 39.2661C15.6068 38.8997 16.0851 38.628 16.6452 38.4954C16.9724 38.4133 17.2052 38.1227 17.2052 37.7816V36.7329H17.5954V37.6615C17.5954 38.0406 17.8849 38.3564 18.2562 38.3943C18.7911 38.4448 19.2756 38.5775 19.7035 38.786L19.5147 39.285C19.37 39.2155 19.2001 39.146 19.005 39.0766C18.5582 38.9249 18.0737 38.8491 17.5639 38.8491C16.8843 38.8555 16.3494 39.045 15.9655 39.4177C15.6383 39.7335 15.4558 40.1631 15.4558 40.6306C15.4558 40.9085 15.5061 41.1423 15.6068 41.357C15.7075 41.5718 15.8522 41.755 16.0599 41.9382C16.3871 42.2288 16.9032 42.5131 17.7464 42.8605C18.4072 43.1322 18.8854 43.3975 19.2567 43.707C19.6154 44.0039 19.8734 44.3514 20.0119 44.743C20.1063 45.0083 20.1566 45.3179 20.1566 45.6527Z" fill="#FFCB05"/>
</g>
<defs>
<clipPath id="clip0_51_622">
<rect width="54" height="60" fill="white" transform="translate(0 0.529541)"/>
</clipPath>
</defs>
</svg>
