<svg width="37" height="61" viewBox="0 0 37 61" fill="none" xmlns="http://www.w3.org/2000/svg">
<g clip-path="url(#clip0_51_646)">
<path d="M18.0272 0.529541C8.08116 0.529541 0 8.62365 0 18.5697C0 19.9943 0.168357 21.4318 0.505072 22.8304C0.997194 25.7573 1.65767 28.1143 2.47356 29.8367C4.24779 33.5664 11.7073 45.8436 15.1263 51.4382C10.5029 52.034 8.35312 54.0284 8.35312 55.8932C8.35312 58.1337 11.3836 60.5295 18.0272 60.5295C24.6708 60.5295 27.7013 58.1337 27.7013 55.8932C27.7013 54.0284 25.5515 52.034 20.9281 51.4382C24.3471 45.8436 31.8066 33.5664 33.5808 29.8367C34.3967 28.1143 35.0572 25.7573 35.5493 22.8304C35.886 21.4318 36.0544 19.9943 36.0544 18.5697C36.0544 8.62365 27.9732 0.529541 18.0272 0.529541ZM24.9169 55.8932C24.7226 56.4242 22.3915 57.7452 18.0272 57.7452C13.6629 57.7452 11.2799 56.3983 11.1375 55.9191C11.267 55.4529 13.1578 54.3133 16.758 54.0931C16.7969 54.1579 16.8228 54.2097 16.8357 54.2356C17.0948 54.65 17.548 54.896 18.0272 54.896C18.5064 54.896 18.9596 54.65 19.2057 54.2356C19.2316 54.2097 19.2575 54.1579 19.2964 54.0931C22.8448 54.3133 24.7485 55.427 24.9169 55.8932ZM32.8297 22.2217C32.8297 22.2217 32.8297 22.2865 32.8038 22.3254C32.3764 24.9802 31.7677 27.1689 31.0684 28.6452C29.2812 32.4009 21.1094 45.8047 18.0272 50.8425C14.945 45.8047 6.77315 32.4009 4.98597 28.6452C4.28664 27.1689 3.67796 24.9802 3.25059 22.3254C3.23764 22.2865 3.23764 22.2477 3.22469 22.2217C2.92683 21.0173 2.78437 19.787 2.78437 18.5697C2.78437 10.1648 9.62227 3.31391 18.0272 3.31391C26.4321 3.31391 33.27 10.1648 33.27 18.5697C33.27 19.787 33.1276 21.0173 32.8297 22.2217Z" fill="#0054A6"/>
<path d="M18.027 3.31396C9.62208 3.31396 2.78418 10.1648 2.78418 18.5697C2.78418 19.7871 2.92664 21.0174 3.2245 22.2218C3.23745 22.2477 3.23745 22.2866 3.2504 22.3254C3.67777 24.9803 4.28645 27.1689 4.98578 28.6453C6.77296 32.4009 14.9448 45.8048 18.027 50.8426C21.1092 45.8048 29.281 32.4009 31.0682 28.6453C31.7676 27.1689 32.3762 24.9803 32.8036 22.3254C32.8166 22.2866 32.8166 22.2477 32.8295 22.2218C33.1274 21.0174 33.2698 19.7871 33.2698 18.5697C33.2698 10.1648 26.4319 3.31396 18.027 3.31396ZM18.027 27.7776C12.6914 27.7776 8.35292 23.4392 8.35292 18.1035C8.35292 12.7679 12.6914 8.42944 18.027 8.42944C23.3626 8.42944 27.7011 12.7679 27.7011 18.1035C27.7011 23.4392 23.3626 27.7776 18.027 27.7776Z" fill="white"/>
<path d="M24.9171 55.8931C24.7228 56.4241 22.3917 57.7451 18.0274 57.7451C13.6631 57.7451 11.2802 56.3982 11.1377 55.919C11.2672 55.4528 13.158 54.3132 16.7582 54.093C16.7971 54.1578 16.823 54.2096 16.8359 54.2355C17.095 54.6499 17.5482 54.896 18.0274 54.896C18.5066 54.896 18.9598 54.6499 19.2059 54.2355C19.2318 54.2096 19.2577 54.1578 19.2966 54.093C22.845 54.3132 24.7487 55.4269 24.9171 55.8931Z" fill="#FFCB05"/>
<path d="M18.0271 8.42944C12.6915 8.42944 8.35303 12.7679 8.35303 18.1035C8.35303 23.4392 12.6915 27.7776 18.0271 27.7776C23.3627 27.7776 27.7012 23.4392 27.7012 18.1035C27.7012 12.7679 23.3627 8.42944 18.0271 8.42944ZM18.0271 24.9932C14.2326 24.9932 11.1374 21.898 11.1374 18.1035C11.1374 14.309 14.2326 11.2138 18.0271 11.2138C21.8216 11.2138 24.9168 14.309 24.9168 18.1035C24.9168 21.898 21.8216 24.9932 18.0271 24.9932Z" fill="#0054A6"/>
<path d="M18.0274 24.9933C21.8325 24.9933 24.9171 21.9086 24.9171 18.1036C24.9171 14.2985 21.8325 11.2139 18.0274 11.2139C14.2223 11.2139 11.1377 14.2985 11.1377 18.1036C11.1377 21.9086 14.2223 24.9933 18.0274 24.9933Z" fill="#FFCB05"/>
</g>
<defs>
<clipPath id="clip0_51_646">
<rect width="36.0544" height="60" fill="white" transform="translate(0 0.529541)"/>
</clipPath>
</defs>
</svg>
