<svg width="60" height="60" viewBox="0 0 60 60" fill="none" xmlns="http://www.w3.org/2000/svg">
<g clip-path="url(#clip0_46_173)">
<path d="M47.7172 12.0751C48.716 13.0739 48.716 14.6662 47.7172 15.5661L38.6286 24.8524V58.7934H32.5367V42.5251H27.5424V58.7934H21.4505V24.8524L11.6697 14.8738C11.1752 14.3794 10.9675 13.7761 10.9675 13.0739C10.9675 12.3718 11.1653 11.7784 11.6697 11.274C12.6685 10.2752 14.1619 10.2752 15.1607 11.274L23.7449 20.056H36.4233L44.3053 12.0751C45.1063 11.0762 46.6985 11.0762 47.6974 12.0751H47.7172Z" fill="white"/>
<path d="M13.4795 35.3452H4.69752C2.89762 35.3452 1.4043 37.333 1.4043 39.8351V49.7148H4.09426V58.7934H14.0827V49.7148H16.7727V39.8351C16.7727 37.333 15.2794 35.3452 13.4795 35.3452ZM15.3783 48.3203H13.8849C13.1828 48.3203 12.5795 48.9137 12.5795 49.6159V57.4978H10.2851V50.318C10.2851 49.6159 9.68186 49.0126 8.98959 49.0126C8.29732 49.0126 7.69406 49.6159 7.69406 50.318V57.4978H5.39968V49.6159C5.39968 48.9137 4.79642 48.3203 4.09426 48.3203H2.60093V39.7362C2.60093 37.8374 3.69868 36.443 4.59863 36.443H13.3806C14.2805 36.443 15.3783 37.8374 15.3783 39.7362V48.3203Z" fill="white"/>
<path d="M55.5002 35.3452H46.8172C45.0271 35.3452 43.5239 37.333 43.5239 39.8351V49.7148H46.2238V58.7934H56.1035V49.7148H58.8033V39.8351C58.8033 37.333 57.3001 35.3452 55.5002 35.3452ZM57.4979 48.3203H56.1035C55.4013 48.3203 54.8079 48.9137 54.8079 49.6159V57.4978H52.4146V50.318C52.4146 49.6159 51.8114 49.0126 51.1092 49.0126C50.4071 49.0126 49.8137 49.6159 49.8137 50.318V57.4978H47.5193V49.6159C47.5193 48.9137 46.9161 48.3203 46.2238 48.3203H44.7206V39.7362C44.7206 37.8374 45.8183 36.443 46.7183 36.443H55.5002C56.4001 36.443 57.4979 37.8374 57.4979 39.7362V48.3203Z" fill="white"/>
<path d="M51.1093 25.9502C53.6014 25.9502 55.698 27.9479 55.698 30.539C55.698 33.13 53.7003 35.1277 51.1093 35.1277C48.5182 35.1277 46.5205 33.13 46.5205 30.539C46.6194 27.9479 48.6171 25.9502 51.1093 25.9502Z" fill="white"/>
<path d="M30.0545 1.39453C34.1488 1.39453 37.442 4.78665 37.442 8.88093C37.442 12.9752 34.1488 16.3673 30.0545 16.3673C25.9602 16.3673 22.667 12.9752 22.667 8.88093C22.667 4.78665 25.9602 1.39453 30.0545 1.39453Z" fill="white"/>
<path d="M8.98964 25.9502C11.4818 25.9502 13.5784 27.9479 13.5784 30.539C13.5784 33.13 11.5807 35.1277 8.98964 35.1277C6.39857 35.1277 4.40088 33.13 4.40088 30.539C4.40088 27.9479 6.39857 25.9502 8.98964 25.9502Z" fill="white"/>
<path d="M55.8267 33.8618C55.7179 33.842 55.6091 33.842 55.5003 33.842H46.7184C46.5997 33.842 46.4909 33.8519 46.3722 33.8618C44.0482 34.0893 42.2285 36.5913 42.2285 39.6373V49.517C42.2285 50.2093 42.8318 50.8125 43.524 50.8125H44.9284V58.6945C44.9284 59.3967 45.5217 59.9999 46.2239 59.9999H56.0047C56.7068 59.9999 57.3002 59.3967 57.2013 58.6945V50.8125H58.6946C59.3968 50.8125 60.0001 50.2093 60.0001 49.517V39.6373C60.0001 36.4826 58.1705 34.0596 55.8267 33.8618ZM57.498 48.3204H56.1036C55.4014 48.3204 54.808 48.9137 54.808 49.6159V57.4979H47.5194V49.6159C47.5194 48.9137 46.9162 48.3204 46.2239 48.3204H44.7207V39.7362C44.7207 37.8374 45.8184 36.443 46.7184 36.443H55.5003C56.4003 36.443 57.498 37.8374 57.498 39.7362V48.3204Z" fill="#0054A6"/>
<path d="M57.498 39.7363V48.3205H56.1036C55.4014 48.3205 54.8081 48.9139 54.8081 49.616V57.498H52.4148V50.3182C52.4148 49.616 51.8115 49.0128 51.1094 49.0128C50.4072 49.0128 49.8138 49.616 49.8138 50.3182V57.498H47.5194V49.616C47.5194 48.9139 46.9162 48.3205 46.2239 48.3205H44.7207V39.7363C44.7207 37.8375 45.8184 36.4431 46.7184 36.4431H55.5003C56.4003 36.4431 57.498 37.8375 57.498 39.7363Z" fill="#FFCB05"/>
<path d="M51.1094 36.3342C47.915 36.3342 45.324 33.7432 45.324 30.5488C45.324 27.3545 47.915 24.7634 51.1094 24.7634C54.3037 24.7634 56.8948 27.3545 56.8948 30.5488C56.8948 33.7432 54.3037 36.3342 51.1094 36.3342ZM51.1094 27.1468C49.3095 27.1468 47.8161 28.6401 47.8161 30.44C47.8161 32.2399 49.3095 33.7333 51.1094 33.7333C52.9093 33.7333 54.4026 32.2399 54.4026 30.44C54.4026 28.6401 53.0082 27.1468 51.1094 27.1468Z" fill="#0054A6"/>
<path d="M52.4147 50.3181V58.6946C52.4147 58.6946 52.4147 58.7638 52.4048 58.7935C52.3553 59.4561 51.7817 60 51.1093 60C50.4368 60 49.8731 59.4561 49.8236 58.7935C49.8137 58.7638 49.8137 58.7242 49.8137 58.6946V50.3181C49.8137 49.616 50.417 49.0127 51.1093 49.0127C51.8015 49.0127 52.4147 49.616 52.4147 50.3181Z" fill="#0054A6"/>
<path d="M13.7168 33.8717C13.5685 33.8519 13.43 33.842 13.2817 33.842H4.49975C4.41075 33.842 4.33163 33.842 4.24262 33.8618C1.85924 34.0201 0 36.5518 0 39.6373V49.517C0 50.2093 0.603264 50.8125 1.30542 50.8125H2.79875V58.6945C2.79875 59.3967 3.40201 59.9999 4.09428 59.9999H13.885C14.5772 59.9999 15.0816 59.3967 14.9728 58.6945V50.8125H16.476C17.1782 50.8125 17.7715 50.2093 17.7715 49.517V39.6373C17.7715 36.532 16.0013 34.1387 13.7168 33.8717ZM15.3783 48.3204H13.885C13.1828 48.3204 12.5795 48.9137 12.5795 49.6159V57.4979H5.3997V49.6159C5.3997 48.9137 4.79644 48.3204 4.09428 48.3204H2.60096V39.7362C2.60096 37.8374 3.6987 36.443 4.59865 36.443H13.3806C14.2805 36.443 15.3783 37.8374 15.3783 39.7362V48.3204Z" fill="#0054A6"/>
<path d="M15.3784 39.7363V48.3205H13.8851C13.1829 48.3205 12.5796 48.9139 12.5796 49.616V57.498H10.2853V50.3182C10.2853 49.616 9.682 49.0128 8.98973 49.0128C8.29746 49.0128 7.6942 49.616 7.6942 50.3182V57.498H5.39982V49.616C5.39982 48.9139 4.79656 48.3205 4.0944 48.3205H2.60107V39.7363C2.60107 37.8375 3.69882 36.4431 4.59877 36.4431H13.3807C14.2807 36.4431 15.3784 37.8375 15.3784 39.7363Z" fill="#FFCB05"/>
<path d="M8.9895 36.3342C5.79517 36.3342 3.2041 33.7432 3.2041 30.5488C3.2041 27.3545 5.79517 24.7634 8.9895 24.7634C12.1838 24.7634 14.7749 27.3545 14.7749 30.5488C14.7749 33.7432 12.1838 36.3342 8.9895 36.3342ZM8.9895 27.1468C7.1896 27.1468 5.69627 28.6401 5.69627 30.44C5.69627 32.2399 7.1896 33.7333 8.9895 33.7333C10.7894 33.7333 12.2827 32.2399 12.2827 30.44C12.2827 28.6401 10.7894 27.1468 8.9895 27.1468Z" fill="#0054A6"/>
<path d="M10.2852 50.3181V58.6946C10.2852 58.6946 10.2852 58.7638 10.2654 58.7935C10.1368 59.4561 9.65223 60 8.98962 60C8.32702 60 7.75343 59.4561 7.70398 58.7935C7.69409 58.7638 7.69409 58.7242 7.69409 58.6946V50.3181C7.69409 49.616 8.28747 49.0127 8.98962 49.0127C9.69178 49.0127 10.2852 49.616 10.2852 50.3181Z" fill="#0054A6"/>
<path d="M30.0544 17.5639C25.3667 17.5639 21.4702 13.6674 21.4702 8.78194C21.4702 3.89649 25.3568 0 30.0544 0C34.7519 0 38.6385 3.89649 38.6385 8.78194C38.6385 13.6674 34.742 17.5639 30.0544 17.5639ZM30.0544 2.59107C26.6622 2.59107 23.9624 5.38981 23.9624 8.88083C23.9624 12.3718 26.6523 15.1706 30.0544 15.1706C33.4564 15.1706 36.1463 12.3718 36.1463 8.88083C36.1463 5.38981 33.4465 2.59107 30.0544 2.59107Z" fill="#0054A6"/>
<path d="M38.6384 59.99H32.5465C31.8443 59.99 31.2509 59.3868 31.2509 58.6945V43.7217H28.8576V58.6945C28.8576 59.3967 28.2544 59.99 27.5621 59.99H21.4701C20.768 59.99 20.1746 59.3868 20.1746 58.6945V25.3568L10.6905 15.6749C9.98836 14.9727 9.59277 14.0827 9.59277 13.0838C9.59277 12.085 9.98836 11.185 10.6905 10.4928C11.3927 9.7906 12.2926 9.39502 13.2816 9.39502C14.2705 9.39502 15.1804 9.7906 15.8726 10.4928L24.0612 18.8791H35.6419L43.1283 11.2938C43.8305 10.5917 44.7304 10.1961 45.7194 10.1961C46.7083 10.1961 47.6182 10.5917 48.3104 11.2938C49.7049 12.7871 49.7049 15.0914 48.3104 16.5847L39.6274 25.4656V58.9022C39.8252 59.3967 39.3307 59.9999 38.6285 59.9999L38.6384 59.99ZM33.7431 57.4979H37.333V24.8524C37.333 24.5557 37.4319 24.2491 37.7286 23.9525L46.8072 14.6662C47.3017 14.1717 47.3017 13.3706 46.8072 12.8663C46.5105 12.6685 46.2039 12.5696 45.9073 12.5696C45.6106 12.5696 45.304 12.6685 45.1062 12.9652L37.2242 20.946C37.0264 21.1438 36.621 21.3416 36.3243 21.3416H23.7447C23.4481 21.3416 23.0426 21.2427 22.8448 20.946L14.2606 12.1641C14.0629 11.9663 13.7662 11.7685 13.4596 11.7685C13.153 11.7685 12.8563 11.8674 12.6585 12.1641C12.4607 12.3619 12.263 12.7674 12.263 13.064C12.263 13.3607 12.3619 13.7662 12.6585 13.964L22.4393 23.9426C22.6371 24.1404 22.8349 24.4371 22.8349 24.8425V57.488H26.4248V42.5152C26.4248 41.813 27.0281 41.2196 27.7204 41.2196H32.6157C33.3178 41.2196 33.9112 41.8229 33.9112 42.5152L33.7134 57.488L33.7431 57.4979Z" fill="#0054A6"/>
</g>
<defs>
<clipPath id="clip0_46_173">
<rect width="60" height="60" fill="white"/>
</clipPath>
</defs>
</svg>
