<svg width="60" height="51" viewBox="0 0 60 51" fill="none" xmlns="http://www.w3.org/2000/svg">
<g clip-path="url(#clip0_51_603)">
<path d="M54.0721 9.74897H45.4913V8.02954C45.4913 3.88653 42.1343 0.529541 37.9913 0.529541H22.0087C17.8657 0.529541 14.5087 3.88653 14.5087 8.02954V9.74897H5.92795C2.66921 9.74897 0 12.4182 0 15.6769V44.9891C0 48.2479 2.66921 50.9171 5.92795 50.9171H54.0721C57.3308 50.9171 60 48.2479 60 44.9891V15.6769C60 12.4182 57.3308 9.74897 54.0721 9.74897ZM24.3013 48.3134H22.5983V11.583H24.3013V48.3134ZM34.4869 48.3134H25.5131V11.583H34.4869V48.3134ZM37.4017 48.3134H35.6987V11.583H37.4017V48.3134ZM38.3515 9.74897H21.6485V8.02954C21.6485 7.83303 21.8122 7.66928 22.0087 7.66928H37.9913C38.1878 7.66928 38.3515 7.83303 38.3515 8.02954V9.74897ZM57.56 44.9891C57.56 46.9051 56.0044 48.4771 54.0721 48.4771H38.6135V12.1889H39.5633C40.2347 12.1889 40.7751 11.6485 40.7751 10.9771V8.02954C40.7751 6.49024 39.5306 5.2457 37.9913 5.2457H22.0087C20.4694 5.2457 19.2249 6.49024 19.2249 8.02954V10.9771C19.2249 11.6485 19.7653 12.1889 20.4367 12.1889H21.3865V48.4771H5.92795C3.99563 48.4771 2.43996 46.9051 2.43996 44.9891V15.6769C2.43996 13.761 3.99563 12.1889 5.92795 12.1889H15.7205C16.3919 12.1889 16.9487 11.6485 16.9487 10.9771V8.02954C16.9487 5.22932 19.2085 2.9695 22.0087 2.9695H37.9913C40.7915 2.9695 43.0513 5.22932 43.0513 8.02954V10.9771C43.0513 11.6485 43.6081 12.1889 44.2795 12.1889H54.0721C56.0044 12.1889 57.56 13.761 57.56 15.6769V44.9891Z" fill="#0054A6"/>
<path d="M38.3515 8.02945V9.74888H21.6484V8.02945C21.6484 7.83294 21.8122 7.66919 22.0087 7.66919H37.9912C38.1877 7.66919 38.3515 7.83294 38.3515 8.02945Z" fill="white"/>
<path d="M34.487 11.583H25.5132V48.3134H34.487V11.583Z" fill="white"/>
<path d="M57.56 15.6769V44.9891C57.56 46.9051 56.0044 48.4771 54.072 48.4771H38.6135V12.1889H39.5633C40.2347 12.1889 40.7751 11.6485 40.7751 10.9771V8.02953C40.7751 6.49022 39.5306 5.24568 37.9913 5.24568H22.0087C20.4694 5.24568 19.2249 6.49022 19.2249 8.02953V10.9771C19.2249 11.6485 19.7653 12.1889 20.4367 12.1889H21.3864V48.4771H5.92793C3.99562 48.4771 2.43994 46.9051 2.43994 44.9891V15.6769C2.43994 13.761 3.99562 12.1889 5.92793 12.1889H15.7205C16.3919 12.1889 16.9487 11.6485 16.9487 10.9771V8.02953C16.9487 5.22931 19.2085 2.96948 22.0087 2.96948H37.9913C40.7915 2.96948 43.0513 5.22931 43.0513 8.02953V10.9771C43.0513 11.6485 43.6081 12.1889 44.2795 12.1889H54.072C56.0044 12.1889 57.56 13.761 57.56 15.6769Z" fill="white"/>
<path d="M37.4018 11.583H35.6987V48.3134H37.4018V11.583Z" fill="#FFCB05"/>
<path d="M24.3012 11.583H22.5981V48.3134H24.3012V11.583Z" fill="#FFCB05"/>
</g>
<defs>
<clipPath id="clip0_51_603">
<rect width="60" height="50.3876" fill="white" transform="translate(0 0.529541)"/>
</clipPath>
</defs>
</svg>
