<svg width="45" height="60" viewBox="0 0 45 60" fill="none" xmlns="http://www.w3.org/2000/svg">
<g clip-path="url(#clip0_46_190)">
<path d="M30.0356 38.8188C28.4489 38.2535 26.6884 38.8636 25.8417 40.2742L22.6403 45.6031C22.5225 45.799 22.4609 46.0229 22.4609 46.2468C22.4609 46.0229 22.3992 45.799 22.2814 45.6031L19.0912 40.291C18.239 38.886 16.4672 38.2703 14.8917 38.8356C6.3694 41.8863 0.527141 49.6781 0.000104083 58.6733C-0.0391434 59.3674 0.487894 59.9552 1.17753 59.9943C1.86716 60.0615 2.46148 59.5129 2.50073 58.8189C2.96609 50.8256 8.16357 43.9014 15.7383 41.1866C16.2093 41.0243 16.7083 41.181 16.9438 41.5784L19.8313 46.3811L16.4111 55.9753C16.0467 56.8821 16.1588 57.9009 16.7083 58.7069C17.2522 59.5129 18.1605 59.9999 19.136 59.9999H25.7857C26.7613 59.9999 27.6639 59.5185 28.2134 58.7069C28.7629 57.9009 28.875 56.8821 28.5274 56.0257L25.0904 46.3867L27.9891 41.5616C28.2302 41.1586 28.7236 41.0019 29.1946 41.1698C36.8086 43.8678 42.0285 50.7976 42.4939 58.8244C42.5331 59.4906 43.0826 59.9999 43.7442 59.9999H43.8171C44.5067 59.9607 45.0337 59.373 44.9945 58.6789C44.4675 49.6501 38.5972 41.8527 30.0356 38.8188ZM26.1781 56.9045H26.1838C26.2566 57.0892 26.1894 57.2403 26.1389 57.3075C26.0884 57.3747 25.9819 57.4978 25.7801 57.4978H19.136C18.9398 57.4978 18.8277 57.3747 18.7772 57.3075C18.7267 57.2403 18.6595 57.0892 18.7492 56.8597L22.3824 46.6666C22.4328 46.5267 22.4552 46.3923 22.4552 46.2468C22.4552 46.3923 22.4833 46.5267 22.5281 46.6666L26.1781 56.9045Z" fill="#0054A6"/>
<path d="M38.5186 3.86797L26.6322 0.498253C23.8905 -0.179049 20.9694 -0.173451 18.1323 0.543034L6.39733 3.87357C4.05931 4.53968 2.42773 6.70032 2.42773 9.12965C2.42773 11.2119 3.58273 13.0815 5.44979 14.0107H5.45539L7.43459 15.0015V20.0001C7.43459 28.2732 14.1739 35.0015 22.4608 35.0015C30.7476 35.0015 37.4869 28.2732 37.4869 20.0001V15.0015L39.4661 14.0107C41.3332 13.0815 42.4938 11.2119 42.4938 9.12965C42.4938 6.70032 40.8622 4.53968 38.5186 3.86797ZM34.9807 20.0001C34.9807 26.8906 29.3627 32.4994 22.4608 32.4994C15.5588 32.4994 9.94082 26.8906 9.94082 20.0001V18.3992C12.262 19.0877 16.4783 20.0001 22.4608 20.0001C28.4432 20.0001 32.6595 19.0877 34.9807 18.3992V20.0001ZM38.3448 11.7773L35.6703 13.1095C35.2498 13.3222 34.9807 13.7532 34.9807 14.229V15.7851C33.0351 16.4288 28.8301 17.5036 22.4608 17.5036C16.0915 17.5036 11.8808 16.4288 9.94082 15.7851V14.229C9.94082 13.7532 9.67169 13.3222 9.25118 13.1095L6.57114 11.7773C5.56192 11.2735 4.93396 10.2548 4.93396 9.12965C4.93396 7.81423 5.81984 6.63875 7.08697 6.27491L18.7771 2.96117C21.1768 2.36223 23.683 2.35104 25.9874 2.91639L37.8289 6.27491C39.1017 6.63875 39.9875 7.80864 39.9875 9.12965C39.9875 10.2548 39.3596 11.2679 38.3448 11.7773Z" fill="#0054A6"/>
<path d="M37.829 6.27495L25.9875 2.91642C23.6831 2.35107 21.1769 2.36227 18.7772 2.9612L7.08708 6.27495C5.81995 6.63879 4.93408 7.81427 4.93408 9.12969C4.93408 10.2548 5.56204 11.2735 6.57126 11.7773L9.2513 13.1095C9.67181 13.3222 9.94093 13.7533 9.94093 14.229V15.7852C11.8809 16.4289 16.0916 17.5036 22.4609 17.5036C28.8302 17.5036 33.0353 16.4289 34.9808 15.7852V14.229C34.9808 13.7533 35.2499 13.3222 35.6704 13.1095L38.3449 11.7773C39.3597 11.2679 39.9877 10.2548 39.9877 9.12969C39.9877 7.80867 39.1018 6.63879 37.829 6.27495ZM29.3628 11.072L23.1056 14.8224C22.9038 14.9399 22.6851 15.0015 22.4609 15.0015C22.2366 15.0015 22.0123 14.9399 21.8161 14.8224L15.5589 11.072C14.9646 10.7194 14.7684 9.95253 15.1272 9.35919C15.486 8.76585 16.2598 8.57553 16.8429 8.92818L22.4609 12.2923L28.0789 8.92818C28.662 8.56994 29.4413 8.76585 29.7945 9.35919C30.1534 9.94693 29.9571 10.7194 29.3628 11.072Z" fill="#FFCB05"/>
<path d="M29.3628 11.072L23.1056 14.8224C22.9038 14.9399 22.6851 15.0015 22.4609 15.0015C22.2366 15.0015 22.0123 14.9399 21.8161 14.8224L15.5589 11.072C14.9646 10.7194 14.7684 9.95251 15.1272 9.35918C15.486 8.76584 16.2598 8.57552 16.8429 8.92817L22.4609 12.2923L28.0788 8.92817C28.662 8.56992 29.4413 8.76584 29.7945 9.35918C30.1534 9.94692 29.9571 10.7194 29.3628 11.072Z" fill="#0054A6"/>
</g>
<defs>
<clipPath id="clip0_46_190">
<rect width="45" height="60" fill="white"/>
</clipPath>
</defs>
</svg>
