<svg width="40" height="41" viewBox="0 0 40 41" fill="none" xmlns="http://www.w3.org/2000/svg">
<g clip-path="url(#clip0_48_523)">
<path d="M29.8752 0.470703H10.1248C4.53301 0.470703 0 5.00371 0 10.5955V30.3459C0 35.9377 4.53301 40.4707 10.1248 40.4707H29.8752C35.467 40.4707 40 35.9377 40 30.3459V10.5955C40 5.00371 35.467 0.470703 29.8752 0.470703Z" fill="#FF0000"/>
<path d="M30.5738 18.0588C30.5738 15.4417 28.4446 13.3125 25.8275 13.3125H13.6955C11.0784 13.3125 8.94922 15.4417 8.94922 18.0588V23.7034C8.94922 26.3205 11.0673 28.4497 13.6955 28.4497H25.8275C28.4446 28.4497 30.5738 26.3316 30.5738 23.7034V18.0588ZM23.4433 21.297L18.0094 23.9917C17.7987 24.1026 17.0668 23.9474 17.0668 23.7145V18.1919C17.0668 17.9479 17.7987 17.7927 18.0094 17.9147L23.2104 20.7425C23.4322 20.8645 23.654 21.1861 23.4322 21.297H23.4433Z" fill="white"/>
</g>
<defs>
<clipPath id="clip0_48_523">
<rect width="40" height="40" fill="white" transform="translate(0 0.470703)"/>
</clipPath>
</defs>
</svg>
