<svg width="171" height="33" viewBox="0 0 171 33" fill="none" xmlns="http://www.w3.org/2000/svg">
<g clip-path="url(#clip0_23_179)">
<path d="M0.266687 0.47887C0.266687 0.47887 6.17992 6.78457 14.6944 7.44625L15.0251 7.33762V6.67594L23.5938 6.45373L24.0381 5.18469L23.7617 4.57733L22.9867 4.52301L22.3253 4.74522L21.9946 5.07606L21.4961 3.74776L21.7182 2.58735L22.9917 2.14294L23.6531 2.29602L24.2602 1.89605L25.1141 1.52571L26.1507 1.35782L27.3797 1.48126C27.3797 1.48126 27.9177 1.38744 28.0855 1.38744C28.2534 1.38744 29.0135 1.343 29.0135 1.343L29.6502 1.25906L29.9118 1.1208L29.9809 1.55039L29.744 2.059L29.3294 2.50341L29.0283 2.97251V3.52556L29.0678 4.10823L29.2751 5.35258V5.93525L29.5959 6.66606C29.5959 6.66606 30.0253 6.68087 30.1191 6.68087C30.2129 6.68087 31.0175 6.65125 31.0175 6.65125L32.1231 6.68087C32.1231 6.68087 33.2682 6.75001 33.3077 6.73519C33.3522 6.72038 35.0649 6.68087 35.1735 6.68087H36.6099L37.7007 6.63643L38.1696 6.72038L38.14 7.27342C38.14 7.27342 38.0709 7.35737 38.2091 7.41168C38.3473 7.466 39.838 7.2438 39.838 7.2438C39.838 7.2438 40.6919 7.06109 40.7511 7.06109C40.8103 7.06109 41.1953 6.96234 41.3187 6.96234C41.4421 6.96234 42.839 6.57718 42.9229 6.56237C43.0068 6.54755 45.2872 5.71798 45.2872 5.71798L46.9605 4.8736L47.7354 4.43413C47.7354 4.43413 49.5617 3.35767 49.6308 3.29841C49.6999 3.2441 50.9438 2.33058 50.9438 2.33058L51.5114 1.54052L52.2024 1.09611L52.7256 0.765268L52.9329 0.834399L52.9724 1.7331L52.6812 2.34046L52.3653 2.8935L52.2419 3.40705L52.2814 3.9749L52.2271 4.66621L51.9211 5.39702L51.4374 6.19696L51.161 6.61174L51.1461 7.27342L51.0919 8.28076L50.4551 9.3029L49.8036 9.772L49.3791 10.1177L49.2804 10.5868L49.157 11.1546L48.6733 11.8311L48.1747 12.6607L47.0987 13.0755L46.5459 13.4754L46.0622 13.5594L45.7709 14.0137L45.4797 14.3988C45.4797 14.3988 44.9022 15.021 44.8874 15.0753C44.8726 15.1296 44.0828 15.4061 44.0828 15.4061L43.2141 15.6432L42.6317 15.7419L42.4639 16.0481L42.0789 16.3789C42.0789 16.3789 41.8567 16.5863 41.8173 16.6554C41.7778 16.7246 41.373 16.9863 41.373 16.9863L40.7264 17.1394L40.3118 17.2085L39.8824 17.3616L39.5517 17.6677L39.2456 17.8455L38.7915 18.0924L38.14 18.3294L37.6316 18.3689L37.1775 18.3985L36.8024 18.4281L36.4174 18.6355L36.0867 19.0108L36.2397 19.396L36.5704 19.7268C36.5704 19.7268 36.8764 20.1811 36.8764 20.2255C36.8764 20.27 36.9455 20.7243 36.9455 20.7243L36.8912 21.1391L36.7974 21.4995L36.521 22.0081L36.2594 22.5612L35.9682 23.0303L35.9287 24.2055L35.6819 24.882C35.6819 24.882 35.4746 25.3116 35.4351 25.3807C35.3907 25.4498 34.9761 25.7115 34.9761 25.7115C34.9761 25.7115 34.6454 25.9881 34.6059 25.9979C34.5615 26.0128 34.6059 26.1905 34.6059 26.2448C34.6059 26.2992 34.7441 26.867 34.7441 26.867L34.8675 27.3213L34.4775 28.1114C34.4775 28.1114 34.3541 28.4274 34.3541 28.4965C34.3541 28.5657 34.0481 29.2421 34.0481 29.2421C34.0481 29.2421 33.7717 29.7261 33.7717 29.8248C33.7717 29.9236 33.7026 30.2396 33.6631 30.3482C33.6236 30.4569 33.441 31.2469 33.441 31.3457C33.441 31.4445 33.2189 31.8444 33.0807 31.9679C32.9425 32.0913 32.1527 32.2839 32.0984 32.3827C32.0441 32.4814 31.4518 32.6049 31.3926 32.6049C31.3334 32.6049 30.5239 32.3283 30.5239 32.3283L30.0105 32.2839L29.2948 32.3777C29.2948 32.3777 28.8654 32.4913 28.7963 32.516C28.7272 32.5456 27.7598 32.5456 27.7598 32.5456C27.7598 32.5456 27.3896 32.4617 27.3303 32.4073C27.276 32.353 26.6689 32.0321 26.6689 32.0321L26.5554 31.7012L25.9483 32.2543C25.9483 32.2543 25.9088 32.4617 25.6324 32.5456C25.356 32.6296 24.7044 32.5851 24.7044 32.5851L23.9147 32.2938L23.347 32.2691L22.6955 32.3086C22.6955 32.3086 22.35 32.3629 22.1822 32.3777C22.0143 32.3925 21.269 32.4073 21.2295 32.437C21.1901 32.4617 20.6619 32.4222 20.6619 32.4222L20.1091 32.0765L19.6698 31.5531L19.3638 31.0297L19.349 30.4223L19.1959 29.7162L19.1713 29.2767L18.8652 28.6397L18.342 27.7558C18.342 27.7558 18.3568 27.0349 18.3716 26.9707C18.3864 26.9016 18.3864 26.3732 18.3864 26.3732L18.4556 26.0967L18.2877 25.7807L17.804 25.5585L17.4141 24.9659C17.4141 24.9659 17.2364 24.4919 17.2759 24.3289C17.3154 24.166 17.3055 23.6278 17.3055 23.6278C17.3055 23.6278 17.1525 23.1587 17.1377 23.0451C17.1229 22.9315 16.9846 22.6155 16.9698 22.5612C16.955 22.5068 16.6095 21.8995 16.6095 21.8995C16.6095 21.8995 16.5108 21.6921 16.4565 21.5538C16.4022 21.4156 16.0962 20.5465 16.0962 20.5465C16.0962 20.5465 16.4022 19.9391 16.4022 19.8947C16.4022 19.8503 16.7181 19.3268 16.7477 19.2873C16.7773 19.2478 16.9846 18.9713 16.9846 18.9713L16.57 18.517L16.1258 18.3096L15.5039 18.28L14.8277 18.1812L14.1909 18.0134L13.6677 17.7763L13.2383 17.3616L12.7546 17.2776L11.4712 16.932L10.8493 16.4777L10.4495 15.9246L9.99538 15.7419L9.20564 15.6037L8.41589 15.2432L7.86307 14.9272L7.40896 14.2062L6.95486 13.5446L6.23421 13.2977L5.48889 12.9915L4.88177 12.5224C4.88177 12.5224 4.38324 11.9299 4.38324 11.8854C4.38324 11.841 3.96863 11.2237 3.96863 11.2237C3.96863 11.2237 3.89952 10.5868 3.89952 10.5473C3.89952 10.5077 3.80081 10.2164 3.80081 10.2164L3.2776 9.83126L2.57176 9.11032C2.57176 9.11032 2.10285 8.54246 2.08804 8.48815C2.07323 8.43383 1.86593 7.61414 1.86593 7.61414L1.88073 6.97715C1.88073 6.97715 1.82644 6.71544 1.84125 6.66112C1.85605 6.60681 1.80176 6.39941 1.80176 6.39941L1.37233 5.90069C1.37233 5.90069 1.04163 5.29332 1.04163 5.20938C1.04163 5.12544 0.81951 4.65634 0.81951 4.5477V4.09341C0.81951 4.0391 0.834318 3.63419 0.834318 3.63419L0.873805 3.37248L0.705984 2.72562L0.291367 2.21207L0.222264 1.56027C0.222264 1.56027 0.167969 1.06154 0.167969 1.00723V0.592442L0.261751 0.468994L0.266687 0.47887Z" fill="#F0BC3A"/>
<path d="M18.6826 8.02417L23.1398 8.42908L22.6314 10.3499H21.6096L19.3885 9.02656L18.6826 8.02417Z" fill="white"/>
<path d="M34.7194 8.02417L30.208 8.42908L30.7263 10.3499H31.7579L34.0037 9.02656L34.7194 8.02417Z" fill="white"/>
<path d="M52.6169 3.12075C53.2092 2.4887 53.3721 1.81715 53.3721 1.26904C53.3672 0.533293 53.0809 0 53.071 0C51.9209 1.31842 46.4717 6.51803 38.5002 7.21921V6.47359C38.5002 6.42915 38.4755 6.41433 38.4409 6.41433H29.8672C29.8031 6.01436 29.7537 5.62427 29.7044 5.28356V5.27862L29.6945 5.17986C29.5711 4.32066 29.4674 3.57504 29.2996 3.13063C29.6797 2.86398 29.9956 2.4887 30.2177 2.04429C30.425 1.63445 30.5385 1.17522 30.5336 0.770313V0.68143L30.4596 0.73081C30.346 0.79994 30.0647 0.903636 30.0598 0.908574C29.655 1.06165 28.9294 1.21966 27.7695 1.14066C27.1426 1.08634 26.5799 1.07646 26.1061 1.09621C25.6076 1.1209 25.2077 1.18016 24.9165 1.26904C24.5957 1.37274 24.344 1.50112 24.1416 1.67395C23.9688 1.81715 23.875 1.96035 23.8109 2.06404C23.3123 2.02948 22.6707 2.09367 22.2018 2.21218C21.8859 2.29612 21.6588 2.43932 21.4959 2.65659C21.338 2.86892 21.2541 3.14544 21.2541 3.48616C21.2541 3.69355 21.2985 4.0392 21.4219 4.39967C21.5848 4.86383 21.8414 5.23911 22.182 5.53539L22.2511 5.59464L22.261 5.50576C22.261 5.48107 22.3498 4.94284 23.1495 4.92803H23.416C23.5986 4.93296 23.727 4.98234 23.7911 5.05641C23.8504 5.12554 23.8652 5.24899 23.8356 5.42182C23.8356 5.44157 23.7615 5.84648 23.6332 6.28595C23.6332 6.28595 23.6134 6.3452 23.5937 6.42421H14.9262C14.8917 6.42421 14.867 6.43902 14.867 6.48347V7.22909C6.89548 6.51803 1.44622 1.31842 0.296155 0C0.291219 0 0 0.533293 0 1.2641C0 1.81221 0.162885 2.48376 0.755196 3.11582C0.755196 3.11582 0.755196 3.11582 0.760132 3.12569C0.518272 3.71824 0.197437 5.31318 1.7868 6.65629C1.75719 6.80443 1.73251 7.03651 1.73251 7.27847C1.73251 8.07841 2.02373 9.2635 3.49463 10.2461C3.49463 10.2461 3.59829 10.3153 3.66245 10.3548C3.63777 10.6708 3.67726 12.9768 6.98926 13.7965C7.31503 14.7446 8.22818 15.9544 10.4543 16.1025C11.0762 17.1197 11.9844 17.6431 13.2085 17.6283C13.5047 18.0826 14.0723 18.4529 14.7535 18.6159C15.2026 18.7196 15.6617 18.7344 16.1108 18.6455C16.254 18.764 16.5107 18.9122 16.8562 19.0455C16.8562 19.0455 16.8562 19.0455 16.8611 19.0455C16.4662 19.3319 16.2737 19.6874 16.1355 20.0973C15.9183 20.7589 15.9183 21.391 16.6143 22.2996C16.8512 22.6255 16.9845 22.902 17.0536 23.223C17.1227 23.539 17.1375 23.8945 17.1375 24.413C17.1375 24.7389 17.2066 25.045 17.3349 25.3166C17.4633 25.5882 17.6607 25.8252 17.8927 25.9931C18.0309 26.0968 18.1839 26.1758 18.3517 26.2351C18.2481 26.3783 18.1691 26.5313 18.1198 26.6943C18.0309 26.9758 18.0112 27.277 18.0704 27.5732C18.1247 27.8695 18.2481 28.1559 18.4406 28.4226C18.7417 28.8373 18.9391 29.1386 19.0724 29.4299C19.2007 29.736 19.26 30.0323 19.26 30.4372C19.2303 31.5878 19.6005 32.0914 20.1632 32.5013C20.7309 32.9111 21.3232 33.1086 22.4091 32.7284C22.7941 32.605 23.0952 32.5655 23.4209 32.5951C23.7418 32.6198 24.0873 32.7185 24.5809 32.8815C24.8918 32.9852 25.1979 33.0148 25.5039 32.9704C25.8001 32.9358 26.0863 32.8272 26.3233 32.6543C26.4615 32.5506 26.5849 32.4321 26.6885 32.2889C26.7922 32.4321 26.9156 32.5506 27.0538 32.6543C27.2907 32.8272 27.572 32.9358 27.8731 32.9704C28.1742 33.0148 28.4852 32.9852 28.7962 32.8815C29.2848 32.7235 29.6353 32.6247 29.9512 32.5951C30.2819 32.5655 30.578 32.605 30.963 32.7284C32.044 33.1086 32.6412 32.9111 33.2089 32.5013C33.7716 32.0914 34.1418 31.5828 34.1171 30.4372C34.1171 30.0373 34.1714 29.736 34.2997 29.4299C34.428 29.1386 34.6304 28.8373 34.9315 28.4226C35.124 28.1559 35.2474 27.8695 35.3017 27.5732C35.3609 27.277 35.3412 26.9758 35.2474 26.6943C35.198 26.5313 35.1191 26.3832 35.0154 26.2351C35.1832 26.1758 35.3412 26.0968 35.4695 25.9931C35.7064 25.8252 35.8989 25.5882 36.0322 25.3166C36.1655 25.0401 36.2297 24.734 36.2297 24.413C36.2297 23.8945 36.2445 23.539 36.3136 23.223C36.3827 22.902 36.5159 22.6255 36.7529 22.2996C37.4488 21.391 37.4488 20.7589 37.2316 20.0973C37.0934 19.6825 36.9009 19.3319 36.5061 19.0455H36.511C36.8565 18.9122 37.1132 18.764 37.2563 18.6455C37.7055 18.7344 38.1645 18.7245 38.6088 18.6159C39.2899 18.4529 39.8625 18.0826 40.1586 17.6283C41.3877 17.6382 42.291 17.1197 42.9129 16.1025C45.139 15.9494 46.0472 14.7446 46.3779 13.7965C49.685 12.9768 49.7245 10.6708 49.6998 10.3548C49.7639 10.3103 49.8676 10.2461 49.8676 10.2461C51.3385 9.25857 51.6248 8.07841 51.6248 7.27847C51.6248 7.03651 51.6001 6.80443 51.5705 6.65629C53.1599 5.31318 52.839 3.71824 52.6021 3.12569C52.6021 3.11582 52.612 3.11582 52.612 3.11582L52.6169 3.12075ZM40.0155 11.9892H36.4468L36.4567 11.9645L38.2287 8.12285L40.0155 11.9892ZM41.363 9.9795C40.8349 10.1622 40.2672 10.261 39.6996 10.2857L39.132 9.07586C40.4499 8.8981 41.7036 8.61664 42.8734 8.28086C42.824 8.67096 42.5624 9.55978 41.363 9.9795ZM41.7135 10.2807C41.521 11.0658 41.0965 11.6041 40.4449 11.8757L39.8822 10.6708C40.4351 10.6362 40.9879 10.5375 41.5061 10.3548C41.5752 10.3301 41.6444 10.3054 41.7135 10.2807ZM32.3155 18.3246C32.276 18.29 32.2266 18.2653 32.1723 18.2653C32.1526 18.2653 32.1279 18.2653 32.1082 18.2752C32.0785 18.29 32.0489 18.2999 32.0292 18.3246L30.0795 20.3096C29.9413 20.1615 29.7883 20.0183 29.6303 19.8899L31.3727 17.5592C31.6195 17.2234 31.9798 16.9814 32.3599 16.9765C32.7696 16.9765 33.1348 17.1543 33.4211 17.5394C33.7419 17.9789 33.9986 18.3048 34.2948 18.5616C33.6679 19.006 32.1082 20.0923 30.6767 21.0898C30.5632 20.9071 30.4398 20.7293 30.3016 20.5565L32.3105 18.606C32.3451 18.5714 32.3698 18.5171 32.3698 18.4678C32.3698 18.4134 32.3451 18.3641 32.3105 18.3196L32.3155 18.3246ZM29.9956 16.6852C29.9808 16.6358 29.9462 16.5963 29.8969 16.5716C29.8426 16.5469 29.7932 16.5469 29.7389 16.5617C29.6896 16.5765 29.6501 16.616 29.6254 16.6654L28.3914 19.1788C28.194 19.0998 27.9867 19.0356 27.7744 18.9813C28.2828 17.3172 28.8356 15.4902 29.0578 14.7594C29.3934 14.9668 29.7883 15.11 30.2967 15.2779C30.7508 15.426 31.0321 15.7223 31.1605 16.1124C31.274 16.4679 31.1605 16.8876 30.9137 17.2283L29.2355 19.6035C29.0676 19.4948 28.8899 19.3961 28.7024 19.3072L29.9857 16.8432C30.0005 16.8136 30.0055 16.7839 30.0055 16.7494C30.0055 16.7247 30.0055 16.7049 29.9956 16.6852ZM26.6836 14.6804C26.5602 14.6804 26.4664 14.7841 26.4664 14.9026L26.5059 18.8578C26.3085 18.8578 26.111 18.8825 25.9185 18.9122C25.4002 17.1543 24.8277 15.2038 24.6253 14.5372C24.8227 14.3742 25.0103 14.1767 25.1929 13.9199C25.8001 13.0854 26.2443 13.041 26.6836 13.041C27.1229 13.041 27.5622 13.0854 28.1693 13.9199C28.3569 14.1767 28.5395 14.3742 28.7369 14.5372C28.5395 15.2087 27.9669 17.1543 27.4487 18.9122C27.2561 18.8825 27.0538 18.8628 26.8563 18.8578L26.8958 14.9026C26.8958 14.7841 26.802 14.6804 26.6836 14.6804ZM23.3864 16.8432L24.6697 19.3072C24.4822 19.3961 24.3045 19.4948 24.1366 19.6035L22.4634 17.2283C22.2166 16.8876 22.0981 16.4679 22.2166 16.1124C22.34 15.7223 22.6213 15.4211 23.0754 15.2779C23.5888 15.11 23.9787 14.9668 24.3143 14.7594C24.5365 15.4902 25.0942 17.3123 25.6026 18.9813C25.3904 19.0356 25.1831 19.0998 24.9856 19.1788L23.7516 16.6654C23.727 16.616 23.6825 16.5815 23.6332 16.5617C23.5789 16.5469 23.5295 16.5469 23.4802 16.5716C23.4308 16.5963 23.4012 16.6358 23.3815 16.6852C23.3716 16.7099 23.3716 16.7296 23.3716 16.7494C23.3716 16.7839 23.3765 16.8136 23.3963 16.8432H23.3864ZM21.0517 18.611L23.0606 20.5614C22.9224 20.7343 22.799 20.9071 22.6855 21.0947C21.259 20.0973 19.6943 19.0109 19.0724 18.5665C19.3685 18.3097 19.6302 17.9838 19.9461 17.5444C20.2323 17.1592 20.5976 16.9864 21.0023 16.9814C21.3824 16.9864 21.7427 17.2283 21.9895 17.5641L23.7368 19.8948C23.5789 20.0232 23.4308 20.1664 23.2877 20.3145L21.3429 18.3295C21.3429 18.3295 21.2936 18.2949 21.2639 18.2801C21.2393 18.2752 21.2195 18.2702 21.1948 18.2702C21.1405 18.2702 21.0961 18.29 21.0517 18.3295C21.0171 18.3739 20.9974 18.4184 20.9974 18.4776C20.9974 18.527 21.0171 18.5813 21.0517 18.6159V18.611ZM36.0223 9.6931C36.4024 9.44621 36.817 9.29807 37.2514 9.25857L36.9108 9.9795C36.5604 9.89062 36.2593 9.79186 36.0223 9.6931ZM36.7331 10.34L36.3037 11.2535C35.7706 10.9868 35.3461 10.7152 35.1092 10.5622C35.1289 10.5375 35.1487 10.5079 35.1734 10.4832C35.3214 10.2906 35.4893 10.1178 35.662 9.96962C35.9286 10.0881 36.2988 10.2165 36.738 10.34H36.7331ZM34.7884 10.1918C33.9887 11.2584 32.6659 11.9695 31.4122 12.088C31.274 11.6732 31.1358 11.2584 31.0074 10.8486C31.7429 10.7696 33.1546 10.4535 34.3145 9.21413C35.0352 8.44875 35.968 7.80189 37.3156 7.81176C37.5229 7.81176 37.7302 7.81176 37.9375 7.80189L37.4686 8.78946C36.5554 8.78946 35.5436 9.17462 34.7884 10.1918ZM31.6886 15.9642C31.6886 15.9642 31.6787 15.9445 31.6738 15.9346C31.7478 15.8408 31.8268 15.7173 31.8959 15.5741C31.9749 15.8951 32.0391 16.1963 32.0785 16.458C31.9996 16.4728 31.9206 16.4926 31.8416 16.5173C31.812 16.5272 31.7873 16.537 31.7577 16.5469C31.7577 16.5222 31.7626 16.4877 31.7626 16.458C31.7626 16.2852 31.733 16.1173 31.6837 15.9642H31.6886ZM31.5208 15.6087C31.3233 15.2779 31.0074 15.0162 30.6175 14.8581C30.6915 14.8038 31.1407 14.4236 31.3135 13.6335C31.4862 14.157 31.6491 14.6656 31.7774 15.1297C31.7034 15.3223 31.6096 15.4853 31.5208 15.6087ZM21.6045 16.5469C21.5749 16.537 21.5453 16.5272 21.5206 16.5173C21.4466 16.4926 21.3627 16.4728 21.2837 16.458C21.3232 16.1963 21.3873 15.8951 21.4713 15.5741C21.5404 15.7223 21.6144 15.8408 21.6934 15.9346C21.6934 15.9445 21.6835 15.9544 21.6835 15.9642C21.6341 16.1173 21.6045 16.2852 21.6045 16.458C21.6045 16.4877 21.6045 16.5173 21.6045 16.5469ZM21.5897 15.1297C21.718 14.6656 21.8809 14.157 22.0537 13.6335C22.2264 14.4187 22.6756 14.7989 22.7497 14.8581C22.3597 15.0162 22.0488 15.2779 21.8464 15.6087C21.7526 15.4853 21.6638 15.3223 21.5897 15.1297ZM22.2363 13.0756C22.2758 12.9571 22.3104 12.8385 22.3498 12.725L22.3597 12.7003C22.4782 12.3398 22.6016 11.9695 22.72 11.609L22.725 11.6139C22.8632 12.4238 23.2383 12.8978 23.4407 13.1052C23.4111 13.8755 23.0063 14.3742 22.8385 14.4829C22.6707 14.3693 22.2561 13.8607 22.2363 13.0706V13.0756ZM23.5986 13.757C23.6924 14.0236 23.8306 14.231 23.959 14.3792C23.7122 14.5174 23.4209 14.6211 23.0458 14.7446C23.1988 14.5915 23.4555 14.2705 23.5937 13.7521L23.5986 13.757ZM23.7566 13.2286C23.801 13.199 24.2206 12.8682 24.4427 12.1571C24.6796 12.8237 25.0794 13.1299 25.1041 13.1447L25.1485 13.1743C25.03 13.3027 24.9116 13.4508 24.7931 13.6237C24.6204 13.8558 24.4624 14.0335 24.2798 14.1767C24.0675 14.0187 23.8257 13.6879 23.7615 13.2286H23.7566ZM24.5562 11.5843C24.6747 11.4856 25.0103 11.1547 25.1831 10.5474C25.3558 11.1547 25.6865 11.4856 25.8099 11.5843C25.6816 12.2411 25.3311 12.6657 25.1831 12.7645C25.03 12.6657 24.6796 12.2411 24.5562 11.5843ZM25.9728 12.0238C26.0518 12.2312 26.1505 12.404 26.2443 12.5423C26.0814 12.5719 25.9136 12.6213 25.7408 12.7102C25.6915 12.7348 25.647 12.7595 25.5977 12.7892C25.7309 12.6114 25.8741 12.3596 25.9728 12.0287V12.0238ZM26.1011 11.5498C26.2393 11.4164 26.5306 11.0955 26.6885 10.5424C26.8415 11.0955 27.1327 11.4164 27.271 11.5498C27.1426 12.0386 26.8958 12.3694 26.7477 12.5077C26.728 12.5077 26.7083 12.5077 26.6885 12.5077C26.6688 12.5077 26.649 12.5077 26.6293 12.5077C26.4763 12.3694 26.2344 12.0386 26.1061 11.5498H26.1011ZM27.3993 12.0238C27.498 12.3596 27.6411 12.6114 27.7744 12.7842C27.7251 12.7595 27.6806 12.7348 27.6313 12.7052C27.4585 12.6163 27.2858 12.567 27.1278 12.5373C27.2216 12.404 27.3203 12.2262 27.3993 12.0189V12.0238ZM27.5572 11.5843C27.6757 11.4856 28.0113 11.1547 28.1841 10.5474C28.3569 11.1547 28.6925 11.4856 28.8159 11.5843C28.6876 12.2411 28.3421 12.6657 28.1841 12.7645C28.036 12.6657 27.6856 12.2411 27.5572 11.5843ZM28.268 13.1398C28.268 13.1398 28.6974 12.8188 28.9294 12.1522C29.1515 12.8682 29.5711 13.1941 29.6155 13.2237C29.5514 13.678 29.3095 14.0088 29.0972 14.1718C28.9146 14.0286 28.7517 13.8508 28.579 13.6187C28.4605 13.4459 28.3421 13.2978 28.2236 13.1694L28.268 13.1398ZM29.7685 13.757C29.9067 14.2705 30.1634 14.5915 30.3214 14.7495C29.9512 14.6261 29.655 14.5224 29.4082 14.3841C29.5464 14.236 29.6797 14.0286 29.7685 13.7619V13.757ZM29.9265 13.1052C30.1338 12.8978 30.5089 12.4238 30.6471 11.6139C30.6471 11.6139 30.6471 11.6139 30.6471 11.609C30.7656 11.9744 30.889 12.3398 31.0124 12.7003V12.725C31.0568 12.8385 31.0963 12.9571 31.1358 13.0756C31.1111 13.8607 30.7014 14.3742 30.5336 14.4878C30.3658 14.3742 29.961 13.8755 29.9265 13.1101V13.1052ZM33.8653 8.82403C32.814 9.94 31.4616 10.2116 30.8149 10.2708C30.6224 9.64866 30.4398 9.04624 30.2917 8.49813C31.3184 8.40431 34.1566 8.15248 34.6452 8.10804C34.3836 8.30555 34.1023 8.56726 33.8604 8.82403H33.8653ZM30.5336 11.2535C30.4892 11.2979 30.4546 11.3325 30.425 11.3522C30.2671 11.2535 29.887 10.8091 29.8031 10.1178C29.8524 10.0733 29.961 9.97456 30.0746 9.81161C30.2177 10.2758 30.3757 10.7597 30.5336 11.2535ZM30.351 11.7325C30.1782 12.3645 29.8426 12.7546 29.6994 12.8534C29.5415 12.7497 29.1663 12.3003 29.0726 11.5794C29.191 11.4707 29.4773 11.1794 29.655 10.656C29.8771 11.3917 30.3263 11.7176 30.3559 11.7374L30.351 11.7325ZM28.9344 11.2436C28.7813 11.1448 28.4358 10.7202 28.347 10.0783C28.4901 9.94 28.7813 9.61903 28.9344 9.06599C29.0874 9.61903 29.3786 9.94 29.5217 10.0783C29.4329 10.7202 29.0874 11.1448 28.9344 11.2436ZM28.1841 9.76223C28.036 9.66841 27.6954 9.24869 27.6017 8.60676C27.7448 8.47838 28.0311 8.15248 28.1841 7.60437C28.3421 8.15248 28.6283 8.47838 28.7715 8.60676C28.6777 9.24869 28.3371 9.66841 28.1841 9.76223ZM28.0212 10.0783C27.9324 10.7202 27.5819 11.1448 27.4338 11.2436C27.2808 11.1448 26.9353 10.7202 26.8465 10.0783C26.9896 9.94 27.2759 9.61903 27.4338 9.06599C27.5918 9.61903 27.8781 9.94 28.0212 10.0783ZM26.6836 9.76223C26.5355 9.66841 26.19 9.24869 26.0962 8.60676C26.2393 8.47838 26.5256 8.15248 26.6836 7.60437C26.8366 8.15248 27.1229 8.47838 27.266 8.60676C27.1772 9.24869 26.8317 9.66841 26.6836 9.76223ZM26.5207 10.0783C26.4318 10.7202 26.0863 11.1448 25.9333 11.2436C25.7803 11.1448 25.4348 10.7202 25.3459 10.0783C25.4891 9.94 25.7754 9.61903 25.9333 9.06599C26.0913 9.61903 26.3776 9.94 26.5207 10.0783ZM25.1831 9.76223C25.03 9.66841 24.6895 9.24869 24.5957 8.60676C24.7388 8.47838 25.0251 8.15248 25.1831 7.60437C25.3361 8.15248 25.6224 8.47838 25.7655 8.60676C25.6717 9.24869 25.3311 9.66841 25.1831 9.76223ZM25.0202 10.0783C24.9313 10.7202 24.5858 11.1448 24.4328 11.2436C24.2798 11.1448 23.9343 10.7202 23.8454 10.0783C23.9886 9.94 24.2749 9.61903 24.4328 9.06599C24.5858 9.61903 24.877 9.94 25.0202 10.0783ZM24.2995 11.5744C24.2008 12.3003 23.8306 12.7447 23.6677 12.8484C23.5246 12.7497 23.1939 12.3596 23.0162 11.7275C23.0458 11.7078 23.495 11.3819 23.7171 10.6461C23.8899 11.1695 24.1761 11.4609 24.2995 11.5695V11.5744ZM22.9471 11.3522C22.9175 11.3374 22.878 11.2979 22.8385 11.2535C23.0014 10.7597 23.1544 10.2758 23.2975 9.81161C23.4111 9.97456 23.5197 10.0684 23.569 10.1178C23.4851 10.8091 23.105 11.2584 22.9471 11.3522ZM22.5522 10.2708C21.9105 10.2116 20.5532 9.94 19.5018 8.82403C19.2649 8.56726 18.9786 8.30555 18.717 8.10804C19.2106 8.15248 22.0438 8.40431 23.0754 8.49813C22.9273 9.04624 22.7497 9.64866 22.5522 10.2708ZM19.0576 9.21906C20.2175 10.4585 21.6341 10.7745 22.3647 10.8535C22.2314 11.2634 22.0932 11.6781 21.955 12.0929C20.7012 11.9744 19.3784 11.2634 18.5788 10.1968C17.8236 9.17956 16.8068 8.79934 15.8937 8.7944L15.4297 7.80682C15.637 7.81176 15.8443 7.8167 16.0516 7.8167C17.3942 7.81176 18.3271 8.45369 19.0477 9.21906H19.0576ZM17.3498 9.6931C17.1128 9.79186 16.8068 9.89062 16.4613 9.9795L16.1207 9.25857C16.5551 9.29807 16.9746 9.44621 17.3498 9.6931ZM17.7101 9.97456C17.8828 10.1227 18.0457 10.3005 18.1987 10.4881C18.2185 10.5128 18.2382 10.5424 18.258 10.5671C18.026 10.7202 17.5966 10.9918 17.0635 11.2584L16.6291 10.3449C17.0684 10.2215 17.4435 10.0931 17.7101 9.97456ZM17.4386 12.0534L17.2362 11.6288C17.8285 11.3275 18.2925 11.0263 18.5196 10.8733C18.6923 11.0658 18.875 11.2387 19.0675 11.4016C18.6035 11.9547 17.1523 13.4854 15.2668 13.4657C14.1908 13.4558 13.6379 12.9225 13.3763 12.5373C13.786 12.7497 14.4079 12.9669 15.1434 12.9669C16.3231 12.9669 17.1721 12.4188 17.4139 12.2213C17.4929 12.1522 17.4682 12.1028 17.4435 12.0534H17.4386ZM19.3784 11.6436C19.5808 11.7868 19.793 11.9201 20.0102 12.0238C19.7437 12.5275 18.7269 14.2261 17.0388 14.5125C16.022 14.6804 15.5087 14.1619 15.3014 13.8656C17.409 13.8755 18.9194 12.2114 19.3834 11.6436H19.3784ZM20.3705 12.1917C20.6075 12.2904 20.8543 12.3645 21.1159 12.4287C20.9283 13.0015 20.3755 14.394 19.3932 14.9668C18.4801 15.4902 17.794 15.1199 17.4534 14.8433C19.181 14.3693 20.1336 12.6707 20.3755 12.1966L20.3705 12.1917ZM19.6005 15.3075C20.7506 14.6458 21.3232 13.0854 21.5009 12.5077C21.5996 12.5225 21.7032 12.5373 21.802 12.5472C21.491 13.4755 21.1948 14.3841 20.9777 15.1742C20.3952 15.6531 19.719 15.5198 19.4031 15.4112C19.4673 15.3766 19.5314 15.3421 19.5956 15.3075H19.6005ZM31.5603 12.5423C31.6639 12.5324 31.7676 12.5176 31.8614 12.5028C32.044 13.0805 32.6166 14.6409 33.7666 15.3026C33.8308 15.3371 33.895 15.3717 33.9591 15.4063C33.6383 15.5149 32.967 15.6482 32.3846 15.1692C32.1723 14.3792 31.8712 13.4755 31.5603 12.5423ZM32.2562 12.4287C32.5129 12.3645 32.7597 12.2855 33.0016 12.1917C33.2385 12.6707 34.1911 14.3644 35.9187 14.8384C35.5781 15.1149 34.8969 15.4902 33.9789 14.9618C32.9966 14.394 32.4438 12.9966 32.2562 12.4238V12.4287ZM33.3569 12.0238C33.5791 11.9152 33.7913 11.7868 33.9887 11.6436C34.4478 12.2114 35.9631 13.8755 38.0658 13.8656C37.8634 14.1619 37.3452 14.6804 36.3284 14.5125C34.6353 14.2261 33.6185 12.5275 33.3569 12.0238ZM34.3046 11.3967C34.4971 11.2337 34.6798 11.0609 34.8525 10.8683C35.0796 11.0214 35.5386 11.3226 36.1309 11.6238L35.9286 12.0485C35.9039 12.0979 35.8792 12.1472 35.9582 12.2164C36.2 12.4139 37.049 12.962 38.2287 12.962C38.9641 12.962 39.5811 12.7447 39.9958 12.5324C39.7342 12.9176 39.1813 13.4459 38.1053 13.4607C36.2247 13.4854 34.7686 11.9497 34.3046 11.3967ZM37.9572 6.97726V7.24884C37.9572 7.24884 31.7429 7.75744 30.1387 7.89571C30.0696 7.60437 30.0153 7.33278 29.9758 7.09083C29.9709 7.05132 29.966 7.01676 29.9561 6.98219H37.9572V6.97726ZM29.966 9.44127C29.8672 9.60916 29.7587 9.71779 29.6896 9.76223C29.5415 9.66841 29.196 9.24869 29.1022 8.60676C29.2157 8.50307 29.4181 8.27099 29.5563 7.90064C29.6599 8.36481 29.8031 8.88822 29.966 9.44127ZM23.4407 4.34535H23.1495C23.0113 4.34535 22.3943 4.35523 22.2264 4.72557C22.103 4.53793 22.0043 4.35029 21.9352 4.1429C21.8612 3.92563 21.8266 3.69849 21.8266 3.48122C21.8266 3.26395 21.8711 3.101 21.955 2.98743C22.0339 2.8788 22.1623 2.80473 22.3449 2.75535C22.7645 2.64178 23.3666 2.58746 23.8109 2.62696H23.959C24.1712 2.64672 24.7734 2.98743 25.1436 3.55529C25.1436 3.55529 26.4269 3.31827 27.2956 2.46895C27.2956 2.46895 25.6767 2.63684 24.339 2.4492C24.3193 2.4492 24.2699 2.42451 24.2946 2.37019C24.2946 2.37019 24.2995 2.35538 24.3094 2.33563V2.33069C24.4131 2.17268 24.5809 1.97022 25.0794 1.81221C25.3163 1.73814 25.6767 1.68876 26.1209 1.66901C26.575 1.64926 27.113 1.65914 27.7152 1.70358C28.6234 1.77271 29.2996 1.6937 29.7784 1.58013C29.6402 1.94553 29.3885 2.38007 28.9245 2.69116L28.7616 2.80473L28.5839 2.92818L28.6678 3.12075L28.7468 3.29852C28.8899 3.6738 28.9985 4.40955 29.117 5.25887L29.1318 5.35269C29.2009 5.89092 29.2897 6.52791 29.4033 7.17477C29.4033 7.18959 29.4033 7.19452 29.4082 7.20934C29.3737 7.81176 29.0775 8.19692 28.9294 8.29568H28.9245C28.7517 8.1821 28.3272 7.64387 28.3223 6.83899H28.036C28.0311 7.64387 27.6066 8.17717 27.4338 8.29568H27.424C27.2512 8.1821 26.8267 7.64387 26.8218 6.83899H26.5355C26.5306 7.64387 26.1061 8.17717 25.9333 8.29568H25.9284C25.7507 8.1821 25.3311 7.64387 25.3311 6.83899H25.0399C25.0399 7.64387 24.6154 8.17717 24.4377 8.29568H24.4279C24.2847 8.20185 24.0083 7.83645 23.954 7.26859C24.0527 6.88837 24.1712 6.45384 24.1811 6.43409C24.3291 5.94523 24.3983 5.52057 24.4032 5.50082C24.4575 5.16011 24.4032 4.88359 24.2304 4.67619C24.0626 4.4688 23.7911 4.35523 23.4357 4.34042L23.4407 4.34535ZM23.8158 7.90064C23.9491 8.27592 24.1515 8.50307 24.2699 8.60676C24.1761 9.24869 23.8356 9.66841 23.6825 9.76223C23.6134 9.71779 23.5048 9.60916 23.4061 9.44127C23.569 8.88822 23.7122 8.36481 23.8207 7.90064H23.8158ZM15.4099 6.97726H23.4407C23.4012 7.13527 23.3617 7.29822 23.3321 7.43154V7.43648C23.3025 7.58462 23.2729 7.73275 23.2334 7.89077C21.5601 7.74757 15.4149 7.2439 15.4149 7.2439V6.97232L15.4099 6.97726ZM15.1385 8.12285L16.9105 11.9645L16.9203 11.9892H13.3517L15.1385 8.12285ZM11.861 10.3597C12.3842 10.5474 12.937 10.6461 13.4849 10.6757L12.9222 11.8806C12.2707 11.609 11.8462 11.0708 11.6537 10.2857C11.7179 10.3103 11.787 10.335 11.8561 10.3597H11.861ZM10.4938 8.28086C11.6636 8.62158 12.9173 8.8981 14.2352 9.07586L13.6676 10.2857C13.0999 10.256 12.5323 10.1622 12.0042 9.9795C10.7998 9.55978 10.5481 8.67096 10.4938 8.28086ZM0.587374 1.11597C3.91912 4.5083 9.61024 7.39698 14.8472 7.77226L14.4326 8.66108C7.48285 7.8167 2.61604 4.11821 1.09084 2.64178C0.542951 2.10848 0.473848 1.46162 0.587374 1.11597ZM1.23892 3.41209C2.69008 4.70088 5.82932 6.82912 10.0545 8.1426C10.0693 8.39937 10.1779 9.12031 10.785 9.70792C8.011 9.3672 4.23008 8.04878 2.16687 6.23657C0.88353 5.11567 1.03161 3.99476 1.23892 3.41209ZM2.30014 6.9575C4.68419 8.7944 8.52927 9.93012 11.1947 10.1573C11.2884 10.6313 11.4661 11.1202 11.7968 11.5349C9.38318 11.7176 6.14028 11.3424 3.80559 9.77211C2.31001 8.76478 2.2261 7.55993 2.30014 6.9575ZM6.46605 13.1052C5.23208 12.6361 4.37322 11.8016 4.24983 10.5918C6.70791 11.93 9.87184 12.1472 12.167 11.9102C12.3398 12.0435 12.5323 12.1621 12.7594 12.2559C12.7939 12.3497 12.9617 12.7694 13.3714 13.1595C12.4632 13.4311 9.39305 14.2162 6.46112 13.1052H6.46605ZM10.6912 15.5593C9.13639 15.5001 8.11959 14.9668 7.66548 13.9446C10.7208 14.5866 13.4306 13.5891 13.7663 13.4558C14.0378 13.6286 14.3833 13.7669 14.7979 13.8261C14.8176 13.8656 14.946 14.1323 15.2224 14.3989C14.6992 14.7051 12.8976 15.6383 10.6863 15.5544L10.6912 15.5593ZM11.0713 16.0432C13.1888 16.0037 15.0101 15.0458 15.5778 14.6705C15.9085 14.8631 16.3626 15.0063 16.9648 14.9273C17.0289 15.0013 17.1326 15.1001 17.2658 15.1989C16.8068 15.6482 15.5827 16.6802 13.865 16.9765C12.5718 17.2037 11.6932 16.8876 11.0713 16.0383V16.0432ZM14.946 18.0974C14.4869 18.0382 14.0624 17.7715 13.8058 17.4851C15.8147 17.2086 17.1622 15.9395 17.6311 15.4309C17.9667 15.5988 18.406 15.6976 18.9194 15.584C18.9835 15.6531 19.1069 15.7223 19.2698 15.7865C18.8009 16.4333 17.1819 18.3789 14.946 18.0974ZM16.7723 18.3838C18.3517 17.8357 19.413 16.3642 19.7141 15.9C20.0546 15.9445 20.4545 15.9198 20.8395 15.747C20.7802 16.0037 20.7358 16.2457 20.7111 16.463C20.257 16.5518 19.8424 16.8284 19.5413 17.2432C18.949 18.048 18.6282 18.4134 17.8433 18.6653C17.8384 18.6653 17.8335 18.6653 17.8236 18.6653C17.3695 18.6356 17.0141 18.5023 16.7772 18.3739L16.7723 18.3838ZM17.0783 21.9786C16.4662 21.1441 16.5649 20.7046 16.7032 20.2898C16.8364 19.8751 17.0141 19.4603 18.0013 19.1442C18.3024 19.0504 18.5492 18.9369 18.7614 18.7937C19.3389 19.1936 21.0122 20.3392 22.5275 21.3762C22.4387 21.549 22.3548 21.7366 22.2857 21.9193L18.5393 20.6602C18.4307 20.6207 18.3024 20.6849 18.2678 20.7984C18.2283 20.9071 18.2975 21.0305 18.406 21.075L22.1771 22.2551C22.1228 22.4428 22.0833 22.6403 22.0537 22.8329C20.2126 22.7884 18.1889 22.7292 17.488 22.7094C17.3942 22.4724 17.2609 22.2354 17.0783 21.9786ZM18.2382 25.4993C17.9075 25.2574 17.715 24.9018 17.7101 24.4229C17.7101 23.8846 17.6953 23.4649 17.6064 23.0847C18.3715 23.0995 20.2768 23.1341 22.0191 23.1686C22.0093 23.2871 22.0043 23.4155 22.0043 23.5439C22.0043 23.6377 22.0043 23.7217 22.0142 23.8155L19.2452 24.2105C19.1909 24.2204 19.1415 24.25 19.1119 24.2895C19.0823 24.334 19.0625 24.3883 19.0724 24.4426C19.0823 24.5019 19.1069 24.5414 19.1514 24.5759C19.1662 24.5908 19.1909 24.5957 19.2106 24.6006C19.2451 24.6154 19.2748 24.6154 19.3044 24.6105L22.0438 24.1513C22.0685 24.3537 22.1129 24.5562 22.1623 24.7488L19.3834 25.608C18.9835 25.7413 18.5492 25.7215 18.2432 25.4993H18.2382ZM18.9046 28.0967C18.6282 27.7115 18.5739 27.3115 18.6973 26.9165C18.8157 26.556 19.1563 26.2894 19.5561 26.161L22.3104 25.2179C22.3844 25.4104 22.4732 25.5931 22.567 25.7758L20.0793 27.0103C20.0497 27.0251 20.025 27.0498 20.0102 27.0696C19.9954 27.0893 19.9855 27.1091 19.9806 27.1338C19.9609 27.1881 19.9658 27.2325 19.9905 27.2868C20.0152 27.3362 20.0596 27.3659 20.1089 27.3856C20.1583 27.4054 20.2126 27.4004 20.2619 27.3708L22.7398 26.0622C22.8533 26.2449 22.9866 26.4227 23.1248 26.5807C21.7329 27.6325 20.2175 28.783 19.6055 29.2423C19.4574 28.8818 19.2205 28.5312 18.9046 28.0917V28.0967ZM23.0557 32.0322C22.799 32.047 22.5325 32.0964 22.2314 32.1951C21.2491 32.5161 20.8641 32.284 20.5087 32.0322C20.1534 31.7754 19.8227 31.4791 19.8227 30.4422C19.8227 30.1261 19.7881 29.8595 19.7239 29.6077C20.2768 29.183 21.8859 27.9485 23.342 26.8177C23.4802 26.9659 23.6282 27.0943 23.7862 27.2227L21.4268 30.3928C21.3577 30.4866 21.3775 30.6249 21.4762 30.694C21.5749 30.7631 21.7082 30.7384 21.7773 30.6446L24.0626 27.4251C24.2255 27.5337 24.3983 27.6374 24.5759 27.7263C23.959 29.4595 23.2778 31.3705 23.0458 32.0322H23.0557ZM26.3973 31.1236C26.3973 31.5483 26.2443 31.9532 25.9383 32.1803C25.6076 32.4124 25.2077 32.4914 24.7536 32.3482C24.2403 32.1803 23.8356 32.0667 23.4456 32.0371C23.6973 31.3112 24.3193 29.5138 24.8869 27.8646C25.0893 27.9485 25.2917 28.0177 25.5039 28.072L25.0251 30.8273C25.0152 30.8816 25.0251 30.936 25.0597 30.9755C25.0942 31.0199 25.1386 31.0545 25.1929 31.0594C25.2472 31.0742 25.2966 31.0545 25.341 31.0248C25.3657 31.01 25.3756 30.9952 25.3904 30.9755C25.4101 30.9557 25.42 30.9211 25.4249 30.8915L25.8297 28.1411C26.0271 28.1806 26.2344 28.2053 26.4368 28.2201L26.3973 31.1236ZM26.6836 23.539C26.0468 24.492 24.7536 24.7537 23.7961 24.1118C22.8385 23.4748 22.5769 22.186 23.2186 21.2231C23.9639 20.1071 25.2374 19.3665 26.6836 19.3665C28.9837 19.3665 30.8446 21.2379 30.8446 23.539C30.8446 24.3932 30.5879 25.1833 30.1437 25.845C30.7804 24.8821 30.5237 23.5933 29.5662 22.9563C28.6086 22.3193 27.3203 22.5761 26.6836 23.534V23.539ZM28.6135 32.3482C28.1594 32.4914 27.7547 32.4124 27.4289 32.1803C27.1229 31.9532 26.9748 31.5483 26.9748 31.1236L26.9353 28.2201C27.1426 28.2053 27.345 28.1806 27.5424 28.1411L27.9521 30.8915C27.9521 30.9261 27.9719 30.9557 27.9867 30.9755C27.9965 30.9952 28.0113 31.01 28.0311 31.0248C28.0755 31.0545 28.1298 31.0742 28.1792 31.0594C28.2335 31.0545 28.2779 31.0199 28.3124 30.9755C28.3421 30.936 28.3569 30.8816 28.347 30.8273L27.8682 28.072C28.0755 28.0226 28.2828 27.9485 28.4852 27.8646C29.0528 29.5138 29.6747 31.3112 29.9265 32.0371C29.5365 32.0717 29.1318 32.1803 28.6185 32.3482H28.6135ZM33.5445 30.4471C33.5445 31.4841 33.2089 31.7754 32.8584 32.0371C32.503 32.2889 32.123 32.521 31.1358 32.2001C30.8347 32.1013 30.5681 32.0519 30.3115 32.0371C30.0795 31.3754 29.3983 29.4645 28.7813 27.7313C28.959 27.6424 29.1318 27.5387 29.2947 27.43L31.585 30.6496C31.6541 30.7434 31.7873 30.7681 31.886 30.6989C31.9848 30.6298 32.0045 30.4915 31.9354 30.3977L29.576 27.2276C29.734 27.0992 29.8821 26.9659 30.0203 26.8227C31.4764 27.9485 33.0855 29.1879 33.6383 29.6126C33.5791 29.8644 33.5396 30.136 33.5396 30.4471H33.5445ZM34.4626 28.0967C34.1418 28.5411 33.9098 28.8867 33.7617 29.2472C33.1496 28.783 31.6343 27.6374 30.2424 26.5857C30.3806 26.4227 30.5089 26.2499 30.6274 26.0672L33.1003 27.3757C33.1496 27.4054 33.2039 27.4054 33.2533 27.3905C33.3027 27.3708 33.3471 27.3412 33.3718 27.2918C33.3964 27.2375 33.4014 27.1881 33.3866 27.1387C33.3767 27.114 33.3668 27.0943 33.3569 27.0745C33.3372 27.0548 33.3125 27.0301 33.2829 27.0153L30.7952 25.7808C30.889 25.5981 30.9778 25.4154 31.0519 25.2228L33.8061 26.1659C34.2059 26.2943 34.5465 26.5659 34.665 26.9214C34.7933 27.3115 34.739 27.7164 34.4577 28.1016L34.4626 28.0967ZM35.6571 24.4229C35.6571 24.9018 35.4596 25.2623 35.1289 25.4993C34.8229 25.7166 34.3886 25.7413 33.9887 25.608L31.2098 24.7488C31.2592 24.5562 31.3036 24.3537 31.3283 24.1513L34.0677 24.6105C34.0973 24.6105 34.1319 24.6105 34.1615 24.6006C34.1812 24.5957 34.201 24.5858 34.2158 24.5759C34.2602 24.5414 34.2898 24.5019 34.2948 24.4426C34.3046 24.3883 34.2898 24.3389 34.2602 24.2895C34.2306 24.25 34.1812 24.2155 34.1319 24.2105L31.3579 23.8155C31.3628 23.7217 31.3628 23.6328 31.3628 23.5439C31.3628 23.4155 31.3579 23.2921 31.348 23.1686C33.0904 23.1341 34.9957 23.0995 35.7607 23.0847C35.6719 23.4698 35.6571 23.8846 35.6571 24.4229ZM36.6689 20.2948C36.8022 20.7096 36.9009 21.149 36.2889 21.9835C36.1063 22.2403 35.973 22.4773 35.8792 22.7143C35.1783 22.7341 33.1546 22.7934 31.3184 22.8378C31.2888 22.6452 31.2444 22.4477 31.195 22.2601L34.9661 21.0799C35.0796 21.0404 35.1437 20.917 35.1043 20.8034C35.0697 20.6898 34.9463 20.6256 34.8328 20.6651L31.0864 21.9243C31.0173 21.7366 30.9383 21.5539 30.8495 21.3811C32.3648 20.3442 34.0381 19.1986 34.6156 18.7986C34.8278 18.9369 35.0796 19.0504 35.3757 19.1492C36.3629 19.4701 36.5406 19.88 36.6739 20.2948H36.6689ZM35.5436 18.6751C35.5436 18.6751 35.5337 18.6751 35.5288 18.6751C34.739 18.4233 34.4231 18.0579 33.8259 17.253C33.5248 16.8382 33.1101 16.5617 32.656 16.4728C32.6314 16.2506 32.5869 16.0087 32.5277 15.7568C32.9078 15.9297 33.3076 15.9544 33.6531 15.9099C33.9591 16.3741 35.0154 17.8406 36.5949 18.3937C36.358 18.5221 36.0026 18.6554 35.5436 18.685V18.6751ZM38.4212 18.0974C36.1852 18.3789 34.5662 16.4333 34.0973 15.7865C34.2602 15.7223 34.3787 15.6531 34.4428 15.584C34.9611 15.7025 35.3955 15.5988 35.7311 15.4309C36.1951 15.9395 37.5475 17.2086 39.5565 17.4851C39.2998 17.7715 38.8753 18.0382 38.4163 18.0974H38.4212ZM39.5071 16.9765C37.7894 16.6802 36.5653 15.6482 36.1063 15.1989C36.2395 15.1001 36.3382 15.0013 36.4073 14.9273C37.0046 15.0013 37.4587 14.8631 37.7943 14.6705C38.357 15.0458 40.1784 16.0037 42.3008 16.0432C41.6789 16.8926 40.7954 17.2037 39.5071 16.9814V16.9765ZM42.676 15.5593C40.4696 15.6383 38.668 14.7051 38.1399 14.4039C38.4212 14.1422 38.5495 13.8706 38.5693 13.8311C38.9888 13.7718 39.3294 13.6335 39.6058 13.4607C39.9415 13.594 42.6562 14.5915 45.7066 13.9496C45.2476 14.9717 44.2308 15.505 42.676 15.5643V15.5593ZM46.9011 13.1052C43.979 14.2162 40.904 13.4311 39.9958 13.1595C40.4054 12.7694 40.5782 12.3497 40.6078 12.2559C40.8349 12.1621 41.0323 12.0435 41.2001 11.9102C43.5003 12.1472 46.6592 11.93 49.1173 10.5918C48.9939 11.8016 48.1351 12.6361 46.9011 13.1052ZM49.5616 9.77211C47.2269 11.3374 43.9889 11.7176 41.5753 11.5349C41.906 11.1251 42.0837 10.6313 42.1725 10.1573C44.8379 9.93012 48.6879 8.7944 51.067 6.9575C51.1411 7.55993 51.0572 8.76478 49.5616 9.77211ZM51.2003 6.24151C49.1371 8.05372 45.3512 9.37214 42.5822 9.71285C43.1893 9.12031 43.2929 8.40431 43.3127 8.14754C47.5428 6.83406 50.6771 4.71076 52.1282 3.41703C52.3405 4.00464 52.4836 5.1206 51.2052 6.24151H51.2003ZM38.9345 8.66108L38.5199 7.77226C43.7619 7.39698 49.448 4.5083 52.7798 1.11597C52.8933 1.46162 52.8242 2.10848 52.2763 2.64178C50.7511 4.11821 45.8843 7.8167 38.9345 8.66108Z" fill="#9A6833"/>
<path d="M29.482 22.5217C28.4652 22.0724 27.2856 22.4921 26.7772 23.455C26.7624 23.5044 26.7426 23.5587 26.7179 23.6081C26.249 24.6747 25.0052 25.1586 23.939 24.6895C22.8729 24.2204 22.3891 22.976 22.858 21.9094H22.8432C21.9054 24.0377 22.8778 26.5264 25.0052 27.4646C27.1375 28.4028 29.6252 27.4349 30.563 25.3018C31.0319 24.2352 30.5482 22.9908 29.482 22.5217Z" fill="#255BA0"/>
<path d="M26.7033 23.6033C27.1723 22.5367 28.4161 22.0528 29.4823 22.5219C30.5484 22.991 31.0321 24.2353 30.5632 25.3019C31.5011 23.1687 30.5336 20.68 28.4013 19.7418C26.269 18.8036 23.7813 19.7764 22.8435 21.9046H22.8583C22.3894 22.9761 22.8731 24.2205 23.9392 24.6896C24.956 25.134 26.1308 24.7192 26.6441 23.7514C26.6639 23.702 26.6836 23.6526 26.7033 23.6033Z" fill="#E1323D"/>
<path d="M72.0399 13.2482H56.4375V11.3669H72.0399V13.2482ZM64.1425 8.38931C63.5896 9.0658 62.7752 9.61391 61.7041 10.0336C60.633 10.4534 59.3349 10.7151 57.8146 10.8138L57.0792 8.99667C58.3971 8.90779 59.4879 8.72015 60.3566 8.43869C61.2253 8.15229 61.8621 7.80664 62.2668 7.39679C62.6716 6.98694 62.8739 6.5376 62.8739 6.05862V5.7179H64.9816V6.05862C64.9816 6.93757 64.7052 7.71282 64.1523 8.38931H64.1425ZM70.5296 6.56722H57.9331V4.66613H70.5296V6.56722ZM67.415 14.774C68.3035 15.0012 68.9846 15.3271 69.4535 15.7616C69.9224 16.1961 70.1594 16.7195 70.1692 17.3417C70.1643 17.9688 69.9224 18.5021 69.4535 18.9367C68.9846 19.3712 68.3035 19.702 67.415 19.9242C66.5265 20.1465 65.4554 20.26 64.2116 20.26C62.9677 20.26 61.8769 20.1465 60.9835 19.9242C60.0901 19.702 59.404 19.3712 58.9301 18.9367C58.4563 18.5021 58.2144 17.9688 58.2144 17.3417C58.2144 16.7146 58.4514 16.1961 58.9301 15.7616C59.4089 15.3271 60.0901 15.0012 60.9835 14.774C61.8769 14.5469 62.9529 14.4333 64.2116 14.4333C65.4702 14.4333 66.5265 14.5469 67.415 14.774ZM62.2125 16.3295C61.6893 16.4134 61.2994 16.5418 61.0378 16.7047C60.7762 16.8726 60.6528 17.08 60.6577 17.3417C60.6528 17.6034 60.7762 17.8207 61.0378 17.9837C61.2994 18.1515 61.6893 18.275 62.2125 18.354C62.7357 18.4379 63.4021 18.4774 64.2116 18.4774C65.0211 18.4774 65.6578 18.4379 66.181 18.354C66.7042 18.2701 67.0991 18.1466 67.3607 17.9837C67.6223 17.8207 67.7556 17.6034 67.7556 17.3417C67.7556 17.08 67.6223 16.8726 67.3607 16.7047C67.0991 16.5368 66.7042 16.4134 66.181 16.3295C65.6578 16.2455 65.0013 16.206 64.2116 16.2109C63.4021 16.206 62.7357 16.2455 62.2125 16.3295ZM65.3962 5.57964H63.0171V3.1897H65.3962V5.57964ZM65.4061 15.0555H63.0171V12.5717H65.4061V15.0555ZM66.1563 7.39679C66.5611 7.80664 67.1978 8.15723 68.0665 8.43869C68.9303 8.72509 70.0212 8.91273 71.339 8.99667L70.6135 10.8138C69.0833 10.7151 67.7852 10.4534 66.719 10.0336C65.6479 9.61391 64.8384 9.0658 64.2807 8.38931C63.7229 7.71282 63.4465 6.93263 63.4514 6.05862V5.7179H65.5591V6.05862C65.5541 6.54253 65.7516 6.98694 66.1613 7.39679H66.1563Z" fill="#255BA0"/>
<path d="M78.3679 9.62389C78.0125 10.5028 77.4695 11.2731 76.744 11.9249C76.0184 12.5768 75.1299 13.0557 74.0687 13.352L72.9482 11.4904C73.8367 11.2336 74.582 10.8584 75.1842 10.3646C75.7864 9.87078 76.2356 9.31774 76.5317 8.7005C76.8279 8.08326 76.976 7.44133 76.976 6.76978V6.12291H78.8911V6.76978C78.8911 7.79192 78.7134 8.74494 78.358 9.62389H78.3679ZM82.8102 6.81916H73.5356V4.92794H82.8102V6.81916ZM84.7796 14.147C85.6681 14.3939 86.3443 14.7593 86.8182 15.2482C87.292 15.7321 87.529 16.3147 87.5388 16.9814C87.5339 17.6727 87.292 18.2603 86.8182 18.7491C86.3443 19.238 85.6632 19.6133 84.7796 19.87C83.8912 20.1268 82.8448 20.2552 81.6355 20.2552C80.4262 20.2552 79.3847 20.1268 78.5061 19.87C77.6275 19.6133 76.9513 19.238 76.4774 18.7491C75.9986 18.2603 75.7617 17.6727 75.7617 16.9814C75.7617 16.2901 75.9986 15.7321 76.4725 15.2482C76.9463 14.7642 77.6226 14.3939 78.5012 14.147C79.3797 13.9001 80.4262 13.7767 81.6355 13.7767C82.8448 13.7767 83.8912 13.9001 84.7796 14.147ZM79.3896 5.68344H76.9809V3.07129H79.3896V5.68344ZM79.819 8.53755C80.1251 9.10047 80.5792 9.60413 81.1814 10.0535C81.7885 10.4979 82.5387 10.8337 83.4321 11.0608L82.3018 12.9125C81.2357 12.636 80.3373 12.1965 79.6068 11.5941C78.8763 10.9917 78.3284 10.2757 77.9631 9.45106C77.5979 8.62149 77.4153 7.73267 77.4153 6.76978V6.12291H79.36V6.76978C79.36 7.38208 79.513 7.97463 79.8141 8.53755H79.819ZM79.7253 15.7617C79.207 15.8605 78.8171 16.0135 78.5456 16.2209C78.2741 16.4283 78.1408 16.6801 78.1408 16.9814C78.1408 17.2826 78.2741 17.5591 78.5456 17.7714C78.8121 17.9838 79.207 18.1467 79.7253 18.2553C80.2435 18.364 80.8803 18.4232 81.6404 18.4282C82.4104 18.4232 83.057 18.364 83.5802 18.2553C84.1034 18.1467 84.4934 17.9838 84.755 17.7714C85.0166 17.5591 85.1449 17.2974 85.1449 16.9814C85.1449 16.6653 85.0166 16.4184 84.755 16.216C84.4934 16.0135 84.1034 15.8605 83.5852 15.7617C83.0669 15.6629 82.4153 15.6136 81.6404 15.6136C80.8655 15.6136 80.2435 15.6629 79.7253 15.7617ZM85.6582 9.65845H82.3117V7.73267H85.6582V9.65845ZM87.4845 13.4853H85.0955V3.12561H87.4845V13.4903V13.4853Z" fill="#255BA0"/>
<path d="M105.313 13.2038H89.7104V11.3027H105.313V13.2038ZM103.408 20.2552H101.019V16.5764H91.4331V14.6605H103.408V20.2552ZM94.0639 5.11555H100.925V3.55518H103.314V10.1868H91.6947V3.55518H94.0639V5.11555ZM100.925 8.29556V6.88332H94.0639V8.29556H100.925ZM98.6691 15.3568H96.29V12.7347H98.6691V15.3568Z" fill="#255BA0"/>
<path d="M121.987 18.3196H106.345V16.3543H121.987V18.3196ZM120.155 6.25632H110.585V11.6633H108.186V4.35522H120.15V6.25632H120.155ZM120.279 12.7052H108.191V10.7942H120.279V12.7052ZM115.318 16.9864H112.959V11.6732H115.318V16.9864Z" fill="#255BA0"/>
<path d="M131.054 8.40421C130.467 9.59424 129.593 10.6016 128.428 11.4311C127.263 12.2607 125.807 12.9125 124.065 13.3816L123.127 11.4904C124.548 11.1151 125.728 10.6263 126.656 10.0337C127.589 9.43623 128.275 8.7548 128.714 7.98942C129.154 7.22405 129.376 6.37967 129.376 5.46616V4.30081H131.933C131.933 5.85131 131.641 7.21911 131.054 8.40421ZM131.039 6.23647H124.035V4.30081H131.039V6.23647ZM134.746 13.6483C135.63 13.9347 136.311 14.3346 136.795 14.858C137.278 15.3815 137.52 15.9888 137.52 16.69C137.52 17.3912 137.278 18.0035 136.795 18.5269C136.311 19.0503 135.63 19.4552 134.746 19.7466C133.863 20.0379 132.846 20.1811 131.691 20.1811C130.536 20.1811 129.509 20.0379 128.626 19.7466C127.742 19.4602 127.061 19.0503 126.577 18.5269C126.093 18.0035 125.852 17.3912 125.852 16.69C125.852 15.9888 126.093 15.3765 126.577 14.858C127.061 14.3396 127.742 13.9347 128.621 13.6483C129.499 13.3619 130.526 13.2187 131.691 13.2187C132.856 13.2187 133.863 13.3619 134.746 13.6483ZM129.835 15.2728C129.317 15.3913 128.922 15.574 128.65 15.8111C128.379 16.053 128.245 16.3444 128.25 16.69C128.245 17.0357 128.379 17.327 128.65 17.564C128.922 17.801 129.317 17.9788 129.835 18.1022C130.353 18.2208 130.97 18.28 131.691 18.28C132.411 18.28 133.019 18.2208 133.532 18.1022C134.045 17.9837 134.44 17.806 134.712 17.564C134.983 17.327 135.121 17.0357 135.121 16.69C135.121 16.3444 134.983 16.053 134.712 15.8111C134.44 15.5691 134.045 15.3913 133.532 15.2728C133.019 15.1543 132.402 15.0951 131.691 15.0951C130.98 15.0951 130.353 15.1543 129.835 15.2728ZM135.255 11.3521H131.168V9.42635H135.255V11.3521ZM135.393 7.79685H131.286V5.90563H135.393V7.79685ZM137.397 13.0162H135.008V3.16016H137.397V13.0162Z" fill="#255BA0"/>
<path d="M144.894 8.9523C144.524 9.72755 143.966 10.3991 143.221 10.9571C142.475 11.5151 141.562 11.915 140.486 12.1619L139.459 10.3201C140.348 10.1176 141.098 9.81643 141.71 9.41646C142.322 9.01649 142.776 8.55727 143.077 8.04373C143.379 7.53018 143.527 6.98208 143.527 6.40928V5.77229H145.442V6.40928C145.442 7.33267 145.259 8.18199 144.889 8.95724L144.894 8.9523ZM149.361 6.51791H140.086V4.6267H149.361V6.51791ZM153.186 17.2677H144.228V19.3565H141.868V15.5395H150.797V14.5716H141.839V12.7495H153.186V17.2727V17.2677ZM153.685 20.1317H141.868V18.2899H153.685V20.1317ZM145.94 5.64391H143.532V3.09595H145.94V5.64391ZM146.36 7.92522C146.661 8.40419 147.11 8.82885 147.712 9.19426C148.315 9.55966 149.055 9.83618 149.929 10.0189L148.897 11.8508C147.831 11.6188 146.932 11.2385 146.197 10.7102C145.466 10.1818 144.914 9.54979 144.548 8.8091C144.183 8.07335 144.001 7.27341 144.01 6.40434V5.76735H145.911V6.40434C145.911 6.93764 146.059 7.4413 146.36 7.92522ZM153.186 12.0385H150.787V3.12557H153.186V12.0385ZM155.496 8.55727H152.189V6.59198H155.496V8.55727Z" fill="#255BA0"/>
<path d="M161.553 9.62389C161.198 10.5028 160.655 11.2731 159.929 11.9249C159.203 12.5768 158.315 13.0557 157.254 13.352L156.133 11.4904C157.022 11.2336 157.767 10.8584 158.369 10.3646C158.971 9.87078 159.421 9.31774 159.717 8.7005C160.013 8.08326 160.161 7.44133 160.161 6.76978V6.12291H162.076V6.76978C162.076 7.79192 161.898 8.74494 161.543 9.62389H161.553ZM165.995 6.81916H156.721V4.92794H165.995V6.81916ZM167.965 14.147C168.853 14.3939 169.529 14.7593 170.003 15.2482C170.477 15.7321 170.714 16.3147 170.724 16.9814C170.719 17.6727 170.477 18.2603 170.003 18.7491C169.529 19.238 168.848 19.6133 167.965 19.87C167.076 20.1268 166.03 20.2552 164.821 20.2552C163.611 20.2552 162.57 20.1268 161.691 19.87C160.813 19.6133 160.136 19.238 159.662 18.7491C159.184 18.2603 158.947 17.6727 158.947 16.9814C158.947 16.2901 159.184 15.7321 159.658 15.2482C160.131 14.7642 160.808 14.3939 161.686 14.147C162.565 13.9001 163.611 13.7767 164.821 13.7767C166.03 13.7767 167.076 13.9001 167.965 14.147ZM162.575 5.68344H160.166V3.07129H162.575V5.68344ZM163.004 8.53755C163.31 9.10047 163.764 9.60413 164.366 10.0535C164.974 10.4979 165.724 10.8337 166.617 11.0608L165.487 12.9125C164.421 12.636 163.522 12.1965 162.792 11.5941C162.061 10.9917 161.513 10.2757 161.148 9.45106C160.783 8.62149 160.6 7.73267 160.6 6.76978V6.12291H162.545V6.76978C162.545 7.38208 162.698 7.97463 162.999 8.53755H163.004ZM162.91 15.7617C162.392 15.8605 162.002 16.0135 161.731 16.2209C161.459 16.4283 161.326 16.6801 161.326 16.9814C161.326 17.2826 161.459 17.5591 161.731 17.7714C161.997 17.9838 162.392 18.1467 162.91 18.2553C163.429 18.364 164.065 18.4232 164.825 18.4282C165.595 18.4232 166.242 18.364 166.765 18.2553C167.288 18.1467 167.678 17.9838 167.94 17.7714C168.202 17.5591 168.33 17.2974 168.33 16.9814C168.33 16.6653 168.202 16.4184 167.94 16.216C167.678 16.0135 167.288 15.8605 166.77 15.7617C166.252 15.6629 165.6 15.6136 164.825 15.6136C164.051 15.6136 163.429 15.6629 162.91 15.7617ZM168.843 9.65845H165.497V7.73267H168.843V9.65845ZM170.67 13.4853H168.281V3.12561H170.67V13.4903V13.4853Z" fill="#255BA0"/>
<path d="M60.6083 25.9289C60.5047 25.7857 60.3763 25.682 60.2134 25.603C60.0506 25.524 59.8679 25.4894 59.6656 25.4894C59.3891 25.4894 59.1522 25.5586 58.9498 25.6919C58.7475 25.8252 58.5895 26.0277 58.476 26.2844C58.3625 26.5412 58.3082 26.8523 58.3082 27.2177C58.3082 27.5831 58.3674 27.8991 58.476 28.1559C58.5895 28.4127 58.7475 28.6102 58.9498 28.7435C59.1522 28.8768 59.3842 28.946 59.6557 28.946C59.8581 28.946 60.0357 28.9065 60.1937 28.8373C60.3566 28.7682 60.4849 28.6645 60.5935 28.5312C60.6972 28.3979 60.7712 28.2399 60.8058 28.0522L61.9065 28.0621C61.862 28.3929 61.7436 28.6991 61.5511 28.9805C61.3586 29.262 61.097 29.4891 60.7712 29.657C60.4405 29.8249 60.0654 29.9138 59.6409 29.9138C59.172 29.9138 58.7524 29.8052 58.3871 29.5928C58.017 29.3805 57.7307 29.0694 57.5234 28.6645C57.3161 28.2596 57.2124 27.7757 57.2124 27.2227C57.2124 26.6696 57.3161 26.1857 57.5283 25.7758C57.7405 25.3709 58.0268 25.0598 58.397 24.8475C58.7623 24.6352 59.1818 24.5315 59.6458 24.5315C60.0506 24.5315 60.4109 24.6056 60.7366 24.7537C61.0624 24.9018 61.329 25.1191 61.5313 25.4055C61.7337 25.6919 61.862 26.0326 61.9114 26.4276H60.8107C60.7811 26.2351 60.7169 26.0672 60.6133 25.9289H60.6083Z" fill="#848585"/>
<path d="M62.6665 24.6006H63.7524V26.7683H66.0229V24.6006H67.1088V29.8397H66.0229V27.667H63.7524V29.8397H62.6665V24.6006Z" fill="#848585"/>
<path d="M72.3161 24.6006V28.0028C72.3161 28.383 72.2273 28.7139 72.0446 29.0003C71.8669 29.2867 71.6103 29.5138 71.2845 29.6718C70.9538 29.8298 70.5787 29.9088 70.1492 29.9088C69.7198 29.9088 69.3397 29.8298 69.014 29.6718C68.6882 29.5138 68.4365 29.2916 68.2588 29.0003C68.0811 28.7139 67.9873 28.3781 67.9873 28.0028V24.6006H69.0732V27.9139C69.0732 28.1164 69.1176 28.2941 69.2065 28.4472C69.2953 28.6003 69.4237 28.7287 69.5865 28.8176C69.7494 28.9064 69.937 28.9509 70.1542 28.9509C70.3714 28.9509 70.554 28.9064 70.7218 28.8176C70.8847 28.7287 71.013 28.6052 71.1019 28.4472C71.1907 28.2892 71.2351 28.1114 71.2351 27.9139V24.6006H72.326H72.3161Z" fill="#848585"/>
<path d="M77.5631 29.8397H76.6252L74.3251 26.5116H74.2856V29.8397H73.1997V24.6006H74.1523L76.4327 27.9238H76.4772V24.6006H77.5581V29.8397H77.5631Z" fill="#848585"/>
<path d="M81.6997 25.8647C81.596 25.7462 81.4726 25.6523 81.3196 25.5882C81.1666 25.524 80.9988 25.4943 80.8112 25.4943C80.5397 25.4943 80.3028 25.5635 80.1004 25.6968C79.8981 25.8301 79.7352 26.0276 79.6217 26.2893C79.5081 26.551 79.4489 26.8572 79.4489 27.2226C79.4489 27.588 79.5081 27.8991 79.6167 28.1559C79.7253 28.4126 79.8882 28.6101 80.0955 28.7484C80.3028 28.8867 80.5397 28.9558 80.8162 28.9558C81.063 28.9558 81.2801 28.9114 81.4628 28.8175C81.6454 28.7237 81.7836 28.5953 81.8774 28.4324C81.9712 28.2694 82.0205 28.0719 82.0205 27.8448L82.2426 27.8793H80.8853V27.0498H83.0669V27.7065C83.0669 28.1559 82.9732 28.5509 82.7807 28.8817C82.5882 29.2175 82.3216 29.4743 81.981 29.652C81.6355 29.8298 81.2456 29.9187 80.8063 29.9187C80.3176 29.9187 79.8882 29.8101 79.5131 29.5928C79.1429 29.3755 78.8517 29.0644 78.6493 28.6595C78.4469 28.2546 78.3433 27.7806 78.3433 27.2325C78.3433 26.6844 78.4469 26.2054 78.6592 25.7955C78.8714 25.3857 79.1626 25.0746 79.5328 24.8623C79.903 24.645 80.3176 24.5364 80.7816 24.5364C81.1715 24.5364 81.5269 24.6104 81.8478 24.7586C82.1735 24.9067 82.4351 25.1141 82.6375 25.3808C82.8399 25.6474 82.9682 25.9536 83.0176 26.2943H81.9119C81.8626 26.1264 81.7885 25.9832 81.6849 25.8647H81.6997Z" fill="#848585"/>
<path d="M83.8813 24.6006H85.9643C86.3394 24.6006 86.6553 24.6549 86.9169 24.7685C87.1785 24.882 87.371 25.0401 87.5043 25.2425C87.6376 25.445 87.7017 25.682 87.7017 25.9486C87.7017 26.1511 87.6623 26.3239 87.5783 26.477C87.4994 26.6301 87.3858 26.7584 87.2427 26.8572C87.0996 26.956 86.9367 27.03 86.754 27.0695V27.1189C86.9564 27.1288 87.144 27.188 87.3167 27.2917C87.4895 27.3954 87.6326 27.5436 87.7412 27.7362C87.8498 27.9287 87.8992 28.146 87.8992 28.3978C87.8992 28.6793 87.8301 28.9262 87.6919 29.1435C87.5537 29.3607 87.3513 29.5336 87.0798 29.657C86.8083 29.7804 86.4826 29.8446 86.1025 29.8446H83.8813V24.6055V24.6006ZM86.2111 26.714C86.3345 26.6597 86.4283 26.5807 86.4974 26.4819C86.5665 26.3782 86.601 26.2597 86.601 26.1215C86.601 25.9931 86.5714 25.8795 86.5073 25.7857C86.448 25.6869 86.3592 25.6129 86.2407 25.5635C86.1223 25.5141 85.984 25.4845 85.8212 25.4845H84.9623V26.798H85.7965C85.9495 26.798 86.0828 26.7683 86.2062 26.714H86.2111ZM86.3888 28.862C86.5221 28.8077 86.6208 28.7336 86.6849 28.6349C86.7491 28.5361 86.7787 28.4225 86.7787 28.2843C86.7787 28.1411 86.7491 28.0077 86.6751 27.8942C86.606 27.7806 86.5023 27.6917 86.369 27.6275C86.2358 27.5633 86.0828 27.5337 85.91 27.5337H84.9672V28.941H85.8804C86.0877 28.941 86.2555 28.9114 86.3888 28.862Z" fill="#848585"/>
<path d="M92.9186 24.6006V28.0028C92.9186 28.383 92.8298 28.7139 92.6472 29.0003C92.4695 29.2867 92.2128 29.5138 91.887 29.6718C91.5563 29.8298 91.1812 29.9088 90.7518 29.9088C90.3224 29.9088 89.9423 29.8298 89.6165 29.6718C89.2907 29.5138 89.039 29.2916 88.8613 29.0003C88.6836 28.7139 88.5898 28.3781 88.5898 28.0028V24.6006H89.6757V27.9139C89.6757 28.1164 89.7202 28.2941 89.809 28.4472C89.8979 28.6003 90.0262 28.7287 90.1891 28.8176C90.352 28.9064 90.5395 28.9509 90.7567 28.9509C90.9739 28.9509 91.1565 28.9064 91.3243 28.8176C91.4872 28.7287 91.6156 28.6052 91.7044 28.4472C91.7933 28.2892 91.8377 28.1114 91.8377 27.9139V24.6006H92.9285H92.9186Z" fill="#848585"/>
<path d="M93.7974 24.6006H94.8833V26.9215H94.9524L96.8527 24.6006H98.1607L96.2061 26.9461L98.1854 29.8398H96.8823L95.4312 27.672L94.8833 28.3386V29.8348H93.7974V24.5957V24.6006Z" fill="#848585"/>
<path d="M100.417 24.6006H102.465C102.855 24.6006 103.19 24.6747 103.477 24.8228C103.758 24.971 103.975 25.1784 104.123 25.445C104.271 25.7117 104.345 26.0178 104.345 26.3684C104.345 26.719 104.271 27.0251 104.123 27.2869C103.975 27.5535 103.753 27.756 103.467 27.9041C103.181 28.0522 102.84 28.1263 102.445 28.1263H101.127V27.2523H102.272C102.485 27.2523 102.657 27.2177 102.801 27.1437C102.944 27.0696 103.052 26.9659 103.121 26.8326C103.19 26.6992 103.225 26.5462 103.225 26.3684C103.225 26.1906 103.19 26.0376 103.121 25.9042C103.052 25.7709 102.944 25.6722 102.801 25.5981C102.657 25.524 102.48 25.4895 102.267 25.4895H101.502V29.8348H100.417V24.5957V24.6006Z" fill="#848585"/>
<path d="M105.026 24.6006H107.075C107.465 24.6006 107.805 24.6697 108.087 24.808C108.368 24.9462 108.58 25.1438 108.728 25.4055C108.876 25.6672 108.95 25.9634 108.95 26.3091C108.95 26.6548 108.876 26.951 108.728 27.2029C108.58 27.4547 108.363 27.6473 108.077 27.7806C107.791 27.9139 107.45 27.983 107.05 27.983H105.663V27.0992H106.877C107.09 27.0992 107.267 27.0695 107.41 27.0103C107.554 26.951 107.657 26.8621 107.726 26.7486C107.795 26.635 107.83 26.4869 107.83 26.314C107.83 26.1412 107.795 25.9881 107.726 25.8647C107.657 25.7412 107.549 25.6524 107.406 25.5882C107.262 25.5289 107.085 25.4993 106.872 25.4993H106.107V29.8446H105.021V24.6055L105.026 24.6006ZM109.138 29.8397H107.929L106.66 27.4596H107.835L109.138 29.8397Z" fill="#848585"/>
<path d="M114.178 28.6645C113.966 29.0694 113.675 29.3805 113.309 29.5928C112.939 29.8052 112.52 29.9138 112.051 29.9138C111.582 29.9138 111.167 29.8052 110.797 29.5928C110.427 29.3805 110.136 29.0694 109.928 28.6645C109.716 28.2596 109.612 27.7757 109.612 27.2227C109.612 26.6696 109.716 26.1857 109.928 25.7758C110.14 25.3709 110.432 25.0598 110.797 24.8475C111.167 24.6352 111.587 24.5315 112.051 24.5315C112.515 24.5315 112.939 24.6352 113.309 24.8475C113.679 25.0598 113.971 25.3709 114.178 25.7758C114.39 26.1808 114.494 26.6647 114.494 27.2227C114.494 27.7806 114.39 28.2596 114.178 28.6645ZM113.23 26.2795C113.122 26.0227 112.964 25.8252 112.761 25.6919C112.559 25.5586 112.322 25.4894 112.051 25.4894C111.779 25.4894 111.547 25.5586 111.345 25.6919C111.142 25.8252 110.989 26.0227 110.876 26.2795C110.762 26.5363 110.708 26.8523 110.708 27.2177C110.708 27.5831 110.762 27.8942 110.876 28.151C110.989 28.4077 111.142 28.6053 111.345 28.7386C111.547 28.8719 111.779 28.941 112.051 28.946C112.322 28.946 112.559 28.8768 112.761 28.7386C112.964 28.6003 113.122 28.4077 113.23 28.151C113.339 27.8942 113.393 27.5831 113.393 27.2177C113.393 26.8523 113.339 26.5363 113.23 26.2795Z" fill="#848585"/>
<path d="M117.174 28.5953H117.224L118.497 24.6006H119.706L117.895 29.8397H116.498L114.691 24.6006H115.896L117.174 28.5953Z" fill="#848585"/>
<path d="M121.384 29.8397H120.298V24.6006H121.384V29.8397Z" fill="#848585"/>
<path d="M126.636 29.8397H125.698L123.398 26.5116H123.359V29.8397H122.273V24.6006H123.226L125.506 27.9238H125.55V24.6006H126.631V29.8397H126.636Z" fill="#848585"/>
<path d="M130.827 25.9289C130.723 25.7857 130.595 25.682 130.432 25.603C130.269 25.524 130.086 25.4894 129.884 25.4894C129.607 25.4894 129.37 25.5586 129.168 25.6919C128.966 25.8252 128.808 26.0277 128.694 26.2844C128.581 26.5412 128.526 26.8523 128.526 27.2177C128.526 27.5831 128.586 27.8991 128.694 28.1559C128.808 28.4127 128.966 28.6102 129.168 28.7435C129.37 28.8768 129.602 28.946 129.874 28.946C130.076 28.946 130.254 28.9065 130.412 28.8373C130.575 28.7682 130.703 28.6645 130.812 28.5312C130.915 28.3979 130.989 28.2399 131.024 28.0522L132.125 28.0621C132.08 28.3929 131.962 28.6991 131.769 28.9805C131.577 29.262 131.315 29.4891 130.989 29.657C130.659 29.8249 130.284 29.9138 129.859 29.9138C129.39 29.9138 128.971 29.8052 128.605 29.5928C128.235 29.3805 127.949 29.0694 127.742 28.6645C127.534 28.2596 127.431 27.7757 127.431 27.2227C127.431 26.6696 127.534 26.1857 127.747 25.7758C127.959 25.3709 128.245 25.0598 128.615 24.8475C128.981 24.6352 129.4 24.5315 129.864 24.5315C130.269 24.5315 130.629 24.6056 130.955 24.7537C131.281 24.9018 131.547 25.1191 131.75 25.4055C131.952 25.6919 132.08 26.0326 132.13 26.4276H131.029C130.999 26.2351 130.935 26.0672 130.832 25.9289H130.827Z" fill="#848585"/>
<path d="M133.966 29.8397H132.88V24.6006H133.966V29.8397Z" fill="#848585"/>
<path d="M134.558 29.8397L136.365 24.6006H137.762L139.573 29.8397H138.403L137.085 25.7857H137.041L135.718 29.8397H134.558ZM138.457 27.7806V28.6299H135.664V27.7806H138.457Z" fill="#848585"/>
<path d="M140.166 24.6006H141.251V28.941H143.502V29.8397H140.166V24.6006Z" fill="#848585"/>
<path d="M145.921 24.6006H147.969C148.359 24.6006 148.695 24.6747 148.981 24.8228C149.263 24.971 149.48 25.1784 149.628 25.445C149.776 25.7117 149.85 26.0178 149.85 26.3684C149.85 26.719 149.776 27.0251 149.628 27.2869C149.48 27.5535 149.258 27.756 148.971 27.9041C148.685 28.0522 148.344 28.1263 147.95 28.1263H146.632V27.2523H147.777C147.989 27.2523 148.162 27.2177 148.305 27.1437C148.448 27.0696 148.557 26.9659 148.626 26.8326C148.695 26.6992 148.729 26.5462 148.729 26.3684C148.729 26.1906 148.695 26.0376 148.626 25.9042C148.557 25.7709 148.448 25.6722 148.305 25.5981C148.162 25.524 147.984 25.4895 147.772 25.4895H147.007V29.8348H145.921V24.5957V24.6006Z" fill="#848585"/>
<path d="M155.003 28.6645C154.79 29.0694 154.499 29.3805 154.134 29.5928C153.764 29.8052 153.344 29.9138 152.875 29.9138C152.406 29.9138 151.992 29.8052 151.622 29.5928C151.251 29.3805 150.96 29.0694 150.753 28.6645C150.541 28.2596 150.437 27.7757 150.437 27.2227C150.437 26.6696 150.541 26.1857 150.753 25.7758C150.965 25.3709 151.256 25.0598 151.622 24.8475C151.992 24.6352 152.411 24.5315 152.875 24.5315C153.339 24.5315 153.764 24.6352 154.134 24.8475C154.504 25.0598 154.795 25.3709 155.003 25.7758C155.215 26.1808 155.319 26.6647 155.319 27.2227C155.319 27.7806 155.215 28.2596 155.003 28.6645ZM154.055 26.2795C153.946 26.0227 153.789 25.8252 153.586 25.6919C153.384 25.5586 153.147 25.4894 152.875 25.4894C152.604 25.4894 152.372 25.5586 152.17 25.6919C151.967 25.8252 151.814 26.0227 151.701 26.2795C151.587 26.5363 151.533 26.8523 151.533 27.2177C151.533 27.5831 151.587 27.8942 151.701 28.151C151.814 28.4077 151.967 28.6053 152.17 28.7386C152.372 28.8719 152.604 28.941 152.875 28.946C153.147 28.946 153.384 28.8768 153.586 28.7386C153.789 28.6003 153.946 28.4077 154.055 28.151C154.164 27.8942 154.218 27.5831 154.218 27.2177C154.218 26.8523 154.164 26.5363 154.055 26.2795Z" fill="#848585"/>
<path d="M156.108 24.6006H157.194V28.941H159.445V29.8397H156.108V24.6006Z" fill="#848585"/>
<path d="M161.232 29.8397H160.146V24.6006H161.232V29.8397Z" fill="#848585"/>
<path d="M165.417 25.9289C165.314 25.7857 165.185 25.682 165.023 25.603C164.86 25.524 164.677 25.4894 164.475 25.4894C164.198 25.4894 163.961 25.5586 163.759 25.6919C163.557 25.8252 163.399 26.0277 163.285 26.2844C163.172 26.5412 163.117 26.8523 163.117 27.2177C163.117 27.5831 163.176 27.8991 163.285 28.1559C163.399 28.4127 163.557 28.6102 163.759 28.7435C163.961 28.8768 164.193 28.946 164.465 28.946C164.667 28.946 164.845 28.9065 165.003 28.8373C165.166 28.7682 165.294 28.6645 165.403 28.5312C165.506 28.3979 165.58 28.2399 165.615 28.0522L166.716 28.0621C166.671 28.3929 166.553 28.6991 166.36 28.9805C166.168 29.262 165.906 29.4891 165.58 29.657C165.25 29.8249 164.874 29.9138 164.45 29.9138C163.981 29.9138 163.561 29.8052 163.196 29.5928C162.826 29.3805 162.54 29.0694 162.332 28.6645C162.125 28.2596 162.021 27.7757 162.021 27.2227C162.021 26.6696 162.125 26.1857 162.337 25.7758C162.55 25.3709 162.836 25.0598 163.206 24.8475C163.571 24.6352 163.991 24.5315 164.455 24.5315C164.86 24.5315 165.22 24.6056 165.546 24.7537C165.872 24.9018 166.138 25.1191 166.34 25.4055C166.543 25.6919 166.671 26.0326 166.72 26.4276H165.62C165.59 26.2351 165.526 26.0672 165.422 25.9289H165.417Z" fill="#848585"/>
<path d="M167.476 24.6006H170.99V25.4993H168.562V26.7733H170.808V27.667H168.562V28.9459H171V29.8446H167.481V24.6055L167.476 24.6006Z" fill="#848585"/>
</g>
<defs>
<clipPath id="clip0_23_179">
<rect width="171" height="33" fill="white"/>
</clipPath>
</defs>
</svg>
